<svg width="16" height="16" viewBox="0 0 16 16" fill="none" xmlns="http://www.w3.org/2000/svg">
<path d="M8 0.6875C6.55373 0.6875 5.13993 1.11637 3.9374 1.91988C2.73486 2.72339 1.7976 3.86544 1.24413 5.20163C0.690668 6.53781 0.545857 8.00811 0.828011 9.4266C1.11017 10.8451 1.80661 12.148 2.82928 13.1707C3.85196 14.1934 5.15492 14.8898 6.57341 15.172C7.99189 15.4541 9.46219 15.3093 10.7984 14.7559C12.1346 14.2024 13.2766 13.2651 14.0801 12.0626C14.8836 10.8601 15.3125 9.44628 15.3125 8C15.3105 6.06123 14.5394 4.20246 13.1685 2.83154C11.7975 1.46063 9.93877 0.689547 8 0.6875ZM8 14.1875C6.77623 14.1875 5.57994 13.8246 4.56241 13.1447C3.54488 12.4648 2.75182 11.4985 2.2835 10.3679C1.81518 9.23724 1.69265 7.99314 1.93139 6.79288C2.17014 5.59262 2.75944 4.49011 3.62478 3.62478C4.49012 2.75944 5.59262 2.17014 6.79288 1.93139C7.99314 1.69264 9.23724 1.81518 10.3679 2.2835C11.4985 2.75181 12.4648 3.54488 13.1447 4.56241C13.8246 5.57994 14.1875 6.77623 14.1875 8C14.1856 9.64046 13.5331 11.2132 12.3732 12.3732C11.2132 13.5331 9.64046 14.1856 8 14.1875ZM11.375 8C11.375 8.14918 11.3157 8.29226 11.2103 8.39775C11.1048 8.50324 10.9617 8.5625 10.8125 8.5625H8.5625V10.8125C8.5625 10.9617 8.50324 11.1048 8.39775 11.2102C8.29226 11.3157 8.14919 11.375 8 11.375C7.85082 11.375 7.70775 11.3157 7.60226 11.2102C7.49677 11.1048 7.4375 10.9617 7.4375 10.8125V8.5625H5.1875C5.03832 8.5625 4.89525 8.50324 4.78976 8.39775C4.68427 8.29226 4.625 8.14918 4.625 8C4.625 7.85082 4.68427 7.70774 4.78976 7.60225C4.89525 7.49676 5.03832 7.4375 5.1875 7.4375H7.4375V5.1875C7.4375 5.03832 7.49677 4.89524 7.60226 4.78975C7.70775 4.68426 7.85082 4.625 8 4.625C8.14919 4.625 8.29226 4.68426 8.39775 4.78975C8.50324 4.89524 8.5625 5.03832 8.5625 5.1875V7.4375H10.8125C10.9617 7.4375 11.1048 7.49676 11.2103 7.60225C11.3157 7.70774 11.375 7.85082 11.375 8Z" fill="#101828"/>
</svg>
