<?xml version="1.0" encoding="utf-8"?>
<svg version="1.1" xmlns="http://www.w3.org/2000/svg" xmlns:xlink="http://www.w3.org/1999/xlink" x="0px" y="0px"
	 viewBox="0 0 30 30" style="enable-background:new 0 0 30 30;" xml:space="preserve">
<path d="M24.6,19.9c-1-1.4-2.4-2.4-4-3.1c2.4-2.1,2.5-5.7,0.4-8.1c-2.1-2.4-5.7-2.5-8.1-0.4s-2.5,5.7-0.4,8.1
	c0.1,0.1,0.2,0.3,0.4,0.4c-1.6,0.7-2.9,1.8-4,3.1c-0.3,0.5-0.2,1.2,0.4,1.6c0.5,0.4,1.2,0.3,1.6-0.2c2.5-3.3,7.1-4,10.4-1.5
	c0.6,0.4,1.1,0.9,1.5,1.5c0.4,0.5,1.1,0.6,1.6,0.2C24.9,21.1,25,20.4,24.6,19.9z M20.2,12.6c0,1.9-1.6,3.4-3.5,3.4
	c-1.9,0-3.4-1.5-3.4-3.4c0-1.9,1.5-3.5,3.4-3.5C18.6,9.1,20.2,10.6,20.2,12.6L20.2,12.6z"/>
<path d="M27.1,0H6.5C5.3,0,4.3,1,4.3,2.3v3.5H2c-0.6,0-1.2,0.5-1.2,1.2C0.8,7.6,1.3,8,2,8h2.3v5.7H2c-0.6,0-1.2,0.5-1.2,1.2
	c0,0.6,0.5,1.2,1.2,1.2h2.3v5.7H2c-0.6,0-1.2,0.5-1.2,1.2c0,0.7,0.5,1.2,1.2,1.2h2.3v3.5c0,1.3,1,2.3,2.3,2.3h20.6
	c1.3,0,2.3-1,2.3-2.3V2.3C29.4,1,28.3,0,27.1,0z M27.1,27.4H6.5V2.3h20.6V27.4z"/>
</svg>
