<?xml version="1.0" encoding="utf-8"?>
<svg version="1.1" xmlns="http://www.w3.org/2000/svg" xmlns:xlink="http://www.w3.org/1999/xlink" x="0px" y="0px"
	 viewBox="0 0 30 30" style="enable-background:new 0 0 30 30;" xml:space="preserve">
<path d="M27.7,2.4H2.3C1,2.4,0,3.4,0,4.7V25c0,1.2,1,2.3,2.3,2.3h25.4c1.3,0,2.3-1,2.3-2.3V4.7C30,3.4,29,2.4,27.7,2.4z
	 M27.7,25H2.3V4.7h25.4V25z M8.1,8.6c0,0.9-0.8,1.7-1.7,1.7S4.6,9.6,4.6,8.6c0-0.9,0.8-1.7,1.7-1.7S8.1,7.7,8.1,8.6z M13.8,8.6
	c0,0.9-0.8,1.7-1.7,1.7s-1.7-0.8-1.7-1.7c0-0.9,0.8-1.7,1.7-1.7S13.8,7.7,13.8,8.6z"/>
</svg>
