<svg id="Layer_1" data-name="Layer 1" xmlns="http://www.w3.org/2000/svg" viewBox="0 0 14.06 13.5">
  <path d="M11.65,6.35c.05,.05,.09,.11,.12,.18,.03,.07,.04,.14,.04,.22s-.01,.15-.04,.22c-.03,.07-.07,.13-.12,.18l-5.06,5.06c-.05,.05-.11,.09-.18,.12-.07,.03-.14,.04-.22,.04s-.15-.01-.22-.04c-.07-.03-.13-.07-.18-.12-.05-.05-.09-.11-.12-.18-.03-.07-.04-.14-.04-.22s.01-.15,.04-.22c.03-.07,.07-.13,.12-.18l4.1-4.1H.56c-.15,0-.29-.06-.4-.16s-.16-.25-.16-.4,.06-.29,.16-.4,.25-.16,.4-.16H9.89L5.79,2.09c-.11-.11-.16-.25-.16-.4s.06-.29,.16-.4c.11-.11,.25-.16,.4-.16s.29,.06,.4,.16l5.06,5.06ZM13.5,0c-.15,0-.29,.06-.4,.16-.11,.11-.16,.25-.16,.4V12.94c0,.15,.06,.29,.16,.4,.11,.11,.25,.16,.4,.16s.29-.06,.4-.16c.11-.11,.16-.25,.16-.4V.56c0-.15-.06-.29-.16-.4-.11-.11-.25-.16-.4-.16Z" />
</svg>
