<?xml version="1.0" encoding="UTF-8"?>
<svg id="Layer_1" data-name="Layer 1" xmlns="http://www.w3.org/2000/svg" viewBox="0 0 7.88 7.88">
  <path d="M7.88,1.75V7.44c0,.12-.05,.23-.13,.31-.08,.08-.19,.13-.31,.13H1.75c-.12,0-.23-.05-.31-.13-.08-.08-.13-.19-.13-.31s.05-.23,.13-.31c.08-.08,.19-.13,.31-.13H6.38L.13,.75c-.08-.08-.13-.19-.13-.31S.05,.21,.13,.13c.08-.08,.19-.13,.31-.13s.23,.05,.31,.13L7,6.38V1.75c0-.12,.05-.23,.13-.31,.08-.08,.19-.13,.31-.13s.23,.05,.31,.13c.08,.08,.13,.19,.13,.31Z" style="fill: #98a2b3;"/>
</svg>