<?xml version="1.0" encoding="utf-8"?>
<svg version="1.1" xmlns="http://www.w3.org/2000/svg" xmlns:xlink="http://www.w3.org/1999/xlink" x="0px" y="0px"
	 viewBox="0 0 30 30" style="enable-background:new 0 0 30 30;" xml:space="preserve">
<path d="M15,0C6.7,0,0,6.7,0,15s6.7,15,15,15s15-6.7,15-15C30,6.7,23.3,0,15,0z M15,27.7C8,27.7,2.3,22,2.3,15
	S8,2.3,15,2.3S27.7,8,27.7,15C27.7,22,22,27.7,15,27.7z M20.8,12.7v6.9c0,0.6-0.5,1.2-1.2,1.2h-6.9c-0.6,0-1.2-0.5-1.2-1.2
	c0-0.6,0.5-1.2,1.2-1.2h4.1l-7.3-7.3c-0.5-0.5-0.5-1.2,0-1.6c0.5-0.5,1.2-0.5,1.6,0l7.3,7.3v-4.1c0-0.6,0.5-1.2,1.2-1.2
	C20.2,11.5,20.8,12.1,20.8,12.7z"/>
</svg>
