<svg width="16" height="16" viewBox="0 0 16 16" xmlns="http://www.w3.org/2000/svg">
  <path d="M12.5 5.50003V12C12.5 12.1326 12.4474 12.2598 12.3536 12.3536C12.2598 12.4474 12.1326 12.5 12 12.5H5.50003C5.36743 12.5 5.24025 12.4474 5.14648 12.3536C5.05271 12.2598 5.00003 12.1326 5.00003 12C5.00003 11.8674 5.05271 11.7402 5.14648 11.6465C5.24025 11.5527 5.36743 11.5 5.50003 11.5H10.7932L3.64628 4.35378C3.55246 4.25996 3.49976 4.13272 3.49976 4.00003C3.49976 3.86735 3.55246 3.7401 3.64628 3.64628C3.7401 3.55246 3.86735 3.49976 4.00003 3.49976C4.13272 3.49976 4.25996 3.55246 4.35378 3.64628L11.5 10.7932V5.50003C11.5 5.36743 11.5527 5.24025 11.6465 5.14648C11.7402 5.05271 11.8674 5.00003 12 5.00003C12.1326 5.00003 12.2598 5.05271 12.3536 5.14648C12.4474 5.24025 12.5 5.36743 12.5 5.50003Z" />
</svg>
