<svg xmlns="http://www.w3.org/2000/svg" viewBox="0 0 12.38 12.38">
  <path d="M12.38,.56V3.94c0,.15-.06,.29-.16,.4-.11,.11-.25,.16-.4,.16s-.29-.06-.4-.16c-.11-.11-.16-.25-.16-.4V1.92l-3.54,3.54c-.11,.11-.25,.16-.4,.16s-.29-.06-.4-.16-.16-.25-.16-.4,.06-.29,.16-.4l3.54-3.54h-2.02c-.15,0-.29-.06-.4-.16-.11-.11-.16-.25-.16-.4s.06-.29,.16-.4c.11-.11,.25-.16,.4-.16h3.38c.15,0,.29,.06,.4,.16,.11,.11,.16,.25,.16,.4ZM4.66,6.91l-3.54,3.54v-2.02c0-.15-.06-.29-.16-.4-.11-.11-.25-.16-.4-.16s-.29,.06-.4,.16c-.11,.11-.16,.25-.16,.4v3.38c0,.15,.06,.29,.16,.4,.11,.11,.25,.16,.4,.16H3.94c.15,0,.29-.06,.4-.16,.11-.11,.16-.25,.16-.4s-.06-.29-.16-.4c-.11-.11-.25-.16-.4-.16H1.92l3.54-3.54c.11-.11,.16-.25,.16-.4s-.06-.29-.16-.4-.25-.16-.4-.16-.29,.06-.4,.16Z" />
</svg>
