<svg width="16" height="16" viewBox="0 0 16 16" xmlns="http://www.w3.org/2000/svg">
  <path id="Vector" d="M11.8538 7.64625C11.9002 7.69269 11.9371 7.74783 11.9623 7.80853C11.9874 7.86923 12.0004 7.93429 12.0004 8C12.0004 8.06571 11.9874 8.13077 11.9623 8.19147C11.9371 8.25217 11.9002 8.30731 11.8538 8.35375L7.35375 12.8538C7.3073 12.9002 7.25214 12.9371 7.19145 12.9622C7.13075 12.9873 7.0657 13.0003 7 13.0003C6.9343 13.0003 6.86925 12.9873 6.80855 12.9622C6.74786 12.9371 6.6927 12.9002 6.64625 12.8538C6.59979 12.8073 6.56294 12.7521 6.5378 12.6914C6.51266 12.6308 6.49972 12.5657 6.49972 12.5C6.49972 12.4343 6.51266 12.3692 6.5378 12.3086C6.56294 12.2479 6.59979 12.1927 6.64625 12.1462L10.2931 8.5H2C1.86739 8.5 1.74021 8.44732 1.64645 8.35355C1.55268 8.25979 1.5 8.13261 1.5 8C1.5 7.86739 1.55268 7.74021 1.64645 7.64645C1.74021 7.55268 1.86739 7.5 2 7.5H10.2931L6.64625 3.85375C6.55243 3.75993 6.49972 3.63268 6.49972 3.5C6.49972 3.36732 6.55243 3.24007 6.64625 3.14625C6.74007 3.05243 6.86732 2.99972 7 2.99972C7.13268 2.99972 7.25993 3.05243 7.35375 3.14625L11.8538 7.64625ZM13.5 2C13.3674 2 13.2402 2.05268 13.1464 2.14645C13.0527 2.24021 13 2.36739 13 2.5V13.5C13 13.6326 13.0527 13.7598 13.1464 13.8536C13.2402 13.9473 13.3674 14 13.5 14C13.6326 14 13.7598 13.9473 13.8536 13.8536C13.9473 13.7598 14 13.6326 14 13.5V2.5C14 2.36739 13.9473 2.24021 13.8536 2.14645C13.7598 2.05268 13.6326 2 13.5 2Z" />
</svg>
