<?xml version="1.0" encoding="utf-8"?>
<svg version="1.1" xmlns="http://www.w3.org/2000/svg" xmlns:xlink="http://www.w3.org/1999/xlink" x="0px" y="0px"
	 viewBox="0 0 30 30" style="enable-background:new 0 0 30 30;" xml:space="preserve">
<path d="M25.9,24.1c0.5,0.5,0.5,1.3,0,1.8C25.7,26.1,21.7,30,15,30c-5.8,0-10.1-3.5-12.5-6.2v3.7c0,0.7-0.6,1.2-1.2,1.2
	S0,28.2,0,27.5V20c0-0.7,0.6-1.2,1.2-1.2h7.5c0.7,0,1.2,0.6,1.2,1.2c0,0.7-0.6,1.2-1.2,1.2H3.7c1.9,2.4,5.9,6.2,11.3,6.2
	c5.6,0,9.1-3.4,9.1-3.4C24.6,23.6,25.4,23.6,25.9,24.1z M28.7,1.3c-0.7,0-1.2,0.6-1.2,1.2v3.7C25.1,3.5,20.8,0,15,0
	C8.3,0,4.3,4,4.1,4.1c-0.5,0.5-0.5,1.3,0,1.8c0.5,0.5,1.3,0.5,1.7,0c0,0,3.5-3.4,9.1-3.4c5.5,0,9.4,3.8,11.3,6.2h-5.1
	C20.6,8.8,20,9.3,20,10c0,0.7,0.6,1.2,1.2,1.2h7.5c0.7,0,1.2-0.6,1.2-1.2V2.5C30,1.8,29.4,1.3,28.7,1.3z"/>
</svg>
