<?xml version="1.0" encoding="utf-8"?>
<svg version="1.1" xmlns="http://www.w3.org/2000/svg" xmlns:xlink="http://www.w3.org/1999/xlink" x="0px" y="0px"
	 viewBox="0 0 30 30" style="enable-background:new 0 0 30 30;" xml:space="preserve">
<path d="M30,11.3c0,0.7-0.6,1.2-1.2,1.2s-1.2-0.6-1.2-1.2v-7L17.1,14.6c-0.5,0.5-1.3,0.5-1.8,0c-0.5-0.5-0.5-1.3,0-1.8L25.7,2.5h-7
	c-0.7,0-1.2-0.6-1.2-1.2S18.1,0,18.7,0h10C29.4,0,30,0.6,30,1.3V11.3z M23.7,15c-0.7,0-1.2,0.6-1.2,1.2v11.2h-20v-20h11.2
	c0.7,0,1.2-0.6,1.2-1.2S14.4,5,13.7,5H2.5C1.1,5,0,6.1,0,7.5v20C0,28.9,1.1,30,2.5,30h20c1.4,0,2.5-1.1,2.5-2.5V16.3
	C25,15.6,24.4,15,23.7,15z"/>
</svg>
