<?xml version="1.0" encoding="utf-8"?>
<svg version="1.1"
     xmlns="http://www.w3.org/2000/svg"
     xmlns:xlink="http://www.w3.org/1999/xlink" x="0px" y="0px" viewBox="0 0 14 14" style="enable-background:new 0 0 14 14;"
        xml:space="preserve">
<path d="M11.8125 2.1875H2.1875C1.95544 2.1875 1.73288 2.27969 1.56878 2.44378C1.40469 2.60788 1.3125 2.83044 1.3125 3.0625V10.9375C1.3125 11.1696 1.40469 11.3921 1.56878 11.5562C1.73288 11.7203 1.95544 11.8125 2.1875 11.8125H11.8125C12.0446 11.8125 12.2671 11.7203 12.4312 11.5562C12.5953 11.3921 12.6875 11.1696 12.6875 10.9375V3.0625C12.6875 2.83044 12.5953 2.60788 12.4312 2.44378C12.2671 2.27969 12.0446 2.1875 11.8125 2.1875ZM11.8125 10.9375H2.1875V3.0625H11.8125V10.9375ZM10.0625 5.25C10.0625 5.36603 10.0164 5.47731 9.93436 5.55936C9.85231 5.64141 9.74103 5.6875 9.625 5.6875H4.375C4.25897 5.6875 4.14769 5.64141 4.06564 5.55936C3.98359 5.47731 3.9375 5.36603 3.9375 5.25C3.9375 5.13397 3.98359 5.02269 4.06564 4.94064C4.14769 4.85859 4.25897 4.8125 4.375 4.8125H9.625C9.74103 4.8125 9.85231 4.85859 9.93436 4.94064C10.0164 5.02269 10.0625 5.13397 10.0625 5.25ZM10.0625 7C10.0625 7.11603 10.0164 7.22731 9.93436 7.30936C9.85231 7.39141 9.74103 7.4375 9.625 7.4375H4.375C4.25897 7.4375 4.14769 7.39141 4.06564 7.30936C3.98359 7.22731 3.9375 7.11603 3.9375 7C3.9375 6.88397 3.98359 6.77269 4.06564 6.69064C4.14769 6.60859 4.25897 6.5625 4.375 6.5625H9.625C9.74103 6.5625 9.85231 6.60859 9.93436 6.69064C10.0164 6.77269 10.0625 6.88397 10.0625 7ZM10.0625 8.75C10.0625 8.86603 10.0164 8.97731 9.93436 9.05936C9.85231 9.14141 9.74103 9.1875 9.625 9.1875H4.375C4.25897 9.1875 4.14769 9.14141 4.06564 9.05936C3.98359 8.97731 3.9375 8.86603 3.9375 8.75C3.9375 8.63397 3.98359 8.52269 4.06564 8.44064C4.14769 8.35859 4.25897 8.3125 4.375 8.3125H9.625C9.74103 8.3125 9.85231 8.35859 9.93436 8.44064C10.0164 8.52269 10.0625 8.63397 10.0625 8.75Z" />
</svg>
