<?xml version="1.0" encoding="utf-8"?>
<svg version="1.1" id="Layer_1" xmlns="http://www.w3.org/2000/svg" xmlns:xlink="http://www.w3.org/1999/xlink"
	 viewBox="0 0 80 80" style="enable-background:new 0 0 80 80;" xml:space="preserve">
<path d="M7.6,34h7.6v20H9.8c-0.7,0-1.5,0.4-1.8,0.7c-0.4,0.4-0.7,1.1-0.7,1.8S7.6,58,8,58.3c0.4,0.4,1.1,0.7,1.8,0.7
	h60.1c0.7,0,1.5-0.4,1.8-0.7c0.4-0.4,0.7-1.1,0.7-1.8s-0.4-1.5-0.7-1.8c-0.4-0.4-1.1-0.7-1.8-0.7h-5.1V34h7.6c0.4,0,1.1,0,1.5-0.4
	c0.4-0.4,0.7-0.7,0.7-1.5c0-0.4,0-1.1,0-1.5s-0.7-1.1-1.1-1.1l-32.4-20c-0.4-0.4-0.7-0.4-1.5-0.4c-0.4,0-1.1,0-1.5,0.4l-32,20
	c-0.4,0-0.7,0.4-1.1,1.1c0,0.4,0,1.1,0,1.5c0,0.4,0.4,1.1,0.7,1.5C6.5,34,6.9,34,7.6,34z M20,34h10.2v20H20V34z M45.1,34v20H34.9V34
	H45.1z M60,54H49.8V34H60V54z M40,14.3l23.7,14.5H16.3L40,14.3z M77.5,66.7c0,0.7-0.4,1.5-0.7,1.8c-0.4,0.4-1.1,0.7-1.8,0.7H5
	c-0.7,0-1.5-0.4-1.8-0.7c-0.4-0.4-0.7-1.1-0.7-1.8c0-0.7,0.4-1.5,0.7-1.8s1.1-0.7,1.8-0.7h70.3c0.7,0,1.5,0.4,1.8,0.7
	C77.1,65.2,77.5,66,77.5,66.7z"/>
</svg>
