<svg xmlns="http://www.w3.org/2000/svg" viewBox="0 0 23 22" height="22" width="23">
	<path d="M2.6,9.6h2.1v5.5H3.2c-0.2,0-0.4,0.1-0.5,0.2c-0.1,0.1-0.2,0.3-0.2,0.5c0,0.2,0.1,0.4,0.2,0.5
		c0.1,0.1,0.3,0.2,0.5,0.2h16.5c0.2,0,0.4-0.1,0.5-0.2c0.1-0.1,0.2-0.3,0.2-0.5c0-0.2-0.1-0.4-0.2-0.5c-0.1-0.1-0.3-0.2-0.5-0.2
		h-1.4V9.6h2.1c0.1,0,0.3,0,0.4-0.1c0.1-0.1,0.2-0.2,0.2-0.4c0-0.1,0-0.3,0-0.4s-0.2-0.3-0.3-0.3l-8.9-5.5c-0.1-0.1-0.2-0.1-0.4-0.1
		c-0.1,0-0.3,0-0.4,0.1L2.2,8.4C2.1,8.4,2,8.5,1.9,8.7C1.9,8.8,1.9,9,1.9,9.1c0,0.1,0.1,0.3,0.2,0.4C2.3,9.6,2.4,9.6,2.6,9.6z
		 M6,9.6h2.8v5.5H6V9.6z M12.9,9.6v5.5h-2.8V9.6H12.9z M17,15.1h-2.8V9.6H17V15.1z M11.5,4.2l6.5,4H5L11.5,4.2z M21.8,18.6
		c0,0.2-0.1,0.4-0.2,0.5c-0.1,0.1-0.3,0.2-0.5,0.2H1.9c-0.2,0-0.4-0.1-0.5-0.2c-0.1-0.1-0.2-0.3-0.2-0.5c0-0.2,0.1-0.4,0.2-0.5
		c0.1-0.1,0.3-0.2,0.5-0.2h19.3c0.2,0,0.4,0.1,0.5,0.2C21.7,18.2,21.8,18.4,21.8,18.6z"/>
</svg>
