<svg width="16" height="16" viewBox="0 0 16 16" fill="none" xmlns="http://www.w3.org/2000/svg">
<path d="M3.51074 7.0002C3.51074 6.41089 3.62681 5.82735 3.85233 5.2829C4.07785 4.73845 4.40839 4.24376 4.8251 3.82705C5.2418 3.41035 5.7365 3.0798 6.28095 2.85429C6.8254 2.62877 7.40893 2.5127 7.99824 2.5127C8.58755 2.5127 9.17108 2.62877 9.71553 2.85429C10.26 3.0798 10.7547 3.41035 11.1714 3.82705C11.5881 4.24376 11.9186 4.73845 12.1441 5.2829C12.3697 5.82735 12.4857 6.41089 12.4857 7.0002V7.0002C12.4857 9.2377 12.9545 10.5377 13.367 11.2502C13.4108 11.3261 13.4339 11.4121 13.434 11.4998C13.4341 11.5874 13.4111 11.6735 13.3674 11.7494C13.3238 11.8254 13.2609 11.8885 13.1851 11.9325C13.1094 11.9766 13.0234 11.9999 12.9357 12.0002H3.06074C2.97312 11.9999 2.88712 11.9766 2.81136 11.9325C2.73559 11.8885 2.67272 11.8254 2.62905 11.7494C2.58537 11.6735 2.56242 11.5874 2.5625 11.4998C2.56258 11.4121 2.58568 11.3261 2.62949 11.2502C3.04199 10.5377 3.51074 9.2377 3.51074 7.0002Z" stroke="#101828" stroke-width="1.2" stroke-linecap="round" stroke-linejoin="round"/>
<path d="M6 12V12.5C6 13.0304 6.21071 13.5391 6.58579 13.9142C6.96086 14.2893 7.46957 14.5 8 14.5C8.53043 14.5 9.03914 14.2893 9.41421 13.9142C9.78929 13.5391 10 13.0304 10 12.5V12" stroke="#101828" stroke-width="1.2" stroke-linecap="round" stroke-linejoin="round"/>
<path d="M11.4609 1.5C12.479 2.14263 13.3006 3.05292 13.8359 4.13125" stroke="#101828" stroke-width="1.2" stroke-linecap="round" stroke-linejoin="round"/>
<path d="M2.16406 4.13125C2.69939 3.05292 3.52103 2.14263 4.53906 1.5" stroke="#101828" stroke-width="1.2" stroke-linecap="round" stroke-linejoin="round"/>
</svg>
