<?xml version="1.0" encoding="utf-8"?>
<svg version="1.1" xmlns="http://www.w3.org/2000/svg" xmlns:xlink="http://www.w3.org/1999/xlink" x="0px" y="0px"
	 viewBox="0 0 30 30" style="enable-background:new 0 0 30 30;" xml:space="preserve">
<path d="M28.5,21.9c-0.8-1.4-2-5.3-2-10.4C26.5,5.2,21.4,0,15,0C8.6,0,3.5,5.2,3.5,11.5c0,5.1-1.2,9-2,10.4
	c-0.6,1.1-0.3,2.5,0.8,3.2c0.4,0.2,0.8,0.3,1.2,0.3h5.9c0.5,2.7,3,4.6,5.6,4.6c2.7,0,5.1-1.9,5.6-4.6h5.9c0.4,0,0.8-0.1,1.2-0.3
	C28.8,24.4,29.1,23,28.5,21.9z M15,27.7c-1.5,0-2.8-0.9-3.3-2.3H15h3.3C17.8,26.8,16.5,27.7,15,27.7z M15,23.1H3.5
	c1.1-1.9,2.3-6.3,2.3-11.5c0-5.1,4.1-9.2,9.2-9.2c5.1,0,9.2,4.1,9.2,9.2c0,5.2,1.2,9.6,2.3,11.5H15z"/>
</svg>
