<?xml version="1.0" encoding="utf-8"?>
<svg version="1.1" xmlns="http://www.w3.org/2000/svg" xmlns:xlink="http://www.w3.org/1999/xlink" x="0px" y="0px"
	 viewBox="0 0 30 30" style="enable-background:new 0 0 30 30;" xml:space="preserve">
<path d="M29.6,17.6c-0.1-0.2-0.2-0.5-0.3-0.7L23.7,4.2c-0.1-0.1-0.1-0.2-0.2-0.3c-1.7-1.7-4.4-1.7-6.1,0c-0.2,0.2-0.3,0.5-0.3,0.8V8
	H15h-2.1V4.7c0-0.3-0.1-0.6-0.3-0.8c-1.7-1.7-4.4-1.7-6.1,0C6.4,4,6.4,4.1,6.3,4.2L0.7,16.9c-0.1,0.2-0.2,0.5-0.3,0.7
	C0.1,18.3,0,19,0,19.8c0,3.5,3,6.4,6.5,6.4s6.4-2.8,6.4-6.4v-9.6H15h2.1v9.6c0,3.6,2.9,6.4,6.4,6.4s6.5-2.9,6.5-6.4
	C29.9,19,29.9,18.3,29.6,17.6z M6.4,24c-2.3,0-4.3-1.9-4.3-4.3c0-2.4,1.9-4.3,4.3-4.3c2.4,0,4.3,1.9,4.3,4.3
	C10.7,22.1,8.8,24,6.4,24z M10.7,14.9c-1.7-1.5-4.1-2-6.3-1.3l3.7-8.4c0.8-0.6,1.8-0.6,2.6-0.1V14.9z M19.3,5.1
	c0.8-0.5,1.8-0.5,2.6,0.1l3.7,8.4c-2.2-0.7-4.6-0.2-6.3,1.3V5.1z M23.6,24c-2.4,0-4.3-1.9-4.3-4.3c0-2.4,1.9-4.3,4.3-4.3
	c2.4,0,4.3,1.9,4.3,4.3C27.9,22.1,25.9,24,23.6,24z"/>
</svg>
