<svg width="16" height="16" viewBox="0 0 16 16" xmlns="http://www.w3.org/2000/svg">
  <path d="M14 3H10C9.61189 3 9.2291 3.09036 8.88197 3.26393C8.53483 3.4375 8.23287 3.68951 8 4C7.76713 3.68951 7.46517 3.4375 7.11803 3.26393C6.7709 3.09036 6.38811 3 6 3H2C1.73478 3 1.48043 3.10536 1.29289 3.29289C1.10536 3.48043 1 3.73478 1 4V12C1 12.2652 1.10536 12.5196 1.29289 12.7071C1.48043 12.8946 1.73478 13 2 13H6C6.39782 13 6.77936 13.158 7.06066 13.4393C7.34196 13.7206 7.5 14.1022 7.5 14.5C7.5 14.6326 7.55268 14.7598 7.64645 14.8536C7.74021 14.9473 7.86739 15 8 15C8.13261 15 8.25979 14.9473 8.35355 14.8536C8.44732 14.7598 8.5 14.6326 8.5 14.5C8.5 14.1022 8.65804 13.7206 8.93934 13.4393C9.22064 13.158 9.60218 13 10 13H14C14.2652 13 14.5196 12.8946 14.7071 12.7071C14.8946 12.5196 15 12.2652 15 12V4C15 3.73478 14.8946 3.48043 14.7071 3.29289C14.5196 3.10536 14.2652 3 14 3ZM6 12H2V4H6C6.39782 4 6.77936 4.15804 7.06066 4.43934C7.34196 4.72064 7.5 5.10218 7.5 5.5V12.5C7.06766 12.1747 6.54106 11.9991 6 12ZM14 12H10C9.45893 11.9991 8.93234 12.1747 8.5 12.5V5.5C8.5 5.10218 8.65804 4.72064 8.93934 4.43934C9.22064 4.15804 9.60218 4 10 4H14V12ZM10 5.5H12.5C12.6326 5.5 12.7598 5.55268 12.8536 5.64645C12.9473 5.74021 13 5.86739 13 6C13 6.13261 12.9473 6.25979 12.8536 6.35355C12.7598 6.44732 12.6326 6.5 12.5 6.5H10C9.86739 6.5 9.74021 6.44732 9.64645 6.35355C9.55268 6.25979 9.5 6.13261 9.5 6C9.5 5.86739 9.55268 5.74021 9.64645 5.64645C9.74021 5.55268 9.86739 5.5 10 5.5ZM13 8C13 8.13261 12.9473 8.25979 12.8536 8.35355C12.7598 8.44732 12.6326 8.5 12.5 8.5H10C9.86739 8.5 9.74021 8.44732 9.64645 8.35355C9.55268 8.25979 9.5 8.13261 9.5 8C9.5 7.86739 9.55268 7.74021 9.64645 7.64645C9.74021 7.55268 9.86739 7.5 10 7.5H12.5C12.6326 7.5 12.7598 7.55268 12.8536 7.64645C12.9473 7.74021 13 7.86739 13 8ZM13 10C13 10.1326 12.9473 10.2598 12.8536 10.3536C12.7598 10.4473 12.6326 10.5 12.5 10.5H10C9.86739 10.5 9.74021 10.4473 9.64645 10.3536C9.55268 10.2598 9.5 10.1326 9.5 10C9.5 9.86739 9.55268 9.74021 9.64645 9.64645C9.74021 9.55268 9.86739 9.5 10 9.5H12.5C12.6326 9.5 12.7598 9.55268 12.8536 9.64645C12.9473 9.74021 13 9.86739 13 10Z" />
</svg>
