<svg id="Layer_1" data-name="Layer 1" xmlns="http://www.w3.org/2000/svg" viewBox="0 0 11.38 9.62">
  <path d="M10.5,0H2.62c-.23,0-.45,.09-.62,.26-.16,.16-.26,.39-.26,.62v.88H.88c-.23,0-.45,.09-.62,.26-.16,.16-.26,.39-.26,.62v6.12c0,.23,.09,.45,.26,.62,.16,.16,.39,.26,.62,.26h7.88c.23,0,.45-.09,.62-.26s.26-.39,.26-.62v-.88h.88c.23,0,.45-.09,.62-.26,.16-.16,.26-.39,.26-.62V.88c0-.23-.09-.45-.26-.62-.16-.16-.39-.26-.62-.26Zm-1.75,2.62v.88H.88v-.88h7.88Zm0,6.12H.88V4.38h7.88v4.38Zm1.75-1.75h-.88V2.62c0-.23-.09-.45-.26-.62-.16-.16-.39-.26-.62-.26H2.62V.88h7.88V7Z" />
</svg>
