<svg xmlns="http://www.w3.org/2000/svg" width="16" height="16" fill="none"><path fill="#101828" d="M9 5.75a.75.75 0 1 1 1.5 0 .75.75 0 0 1-1.5 0ZM6.25 5a.75.75 0 1 0 0 1.5.75.75 0 0 0 0-1.5Zm7.25 4c.001.485-.062.969-.188 1.438l1.39.607A.5.5 0 0 1 14.5 12a.492.492 0 0 1-.2-.042l-1.339-.583a5.5 5.5 0 0 1-9.922 0l-1.339.583a.5.5 0 0 1-.4-.916l1.387-.604A5.485 5.485 0 0 1 2.5 9v-.5H1a.5.5 0 0 1 0-1h1.5V7a5.485 5.485 0 0 1 .188-1.438L1.3 4.958a.5.5 0 1 1 .4-.916l1.339.583a5.5 5.5 0 0 1 9.922 0L14.3 4.04a.5.5 0 0 1 .4.916l-1.387.61c.125.468.188.952.187 1.437v.5H15a.5.5 0 0 1 0 1h-1.5V9Zm-10-1.5h9V7a4.5 4.5 0 1 0-9 0v.5Zm4 5.971V8.5h-4V9a4.505 4.505 0 0 0 4 4.471ZM12.5 9v-.5h-4v4.971A4.505 4.505 0 0 0 12.5 9Z"/></svg>
