<?xml version="1.0" encoding="utf-8"?>
<svg version="1.1" xmlns="http://www.w3.org/2000/svg" xmlns:xlink="http://www.w3.org/1999/xlink" x="0px" y="0px"
	 viewBox="0 0 30 30" style="enable-background:new 0 0 30 30;" xml:space="preserve">
<path d="M29,25.4h-2v-14c0-1.1-0.9-2-2-2h-8v-6c0-1.1-0.9-2-2-2c-0.4,0-0.8,0.1-1.1,0.3l-10,6.7C3.3,8.8,3,9.4,3,10.1
	v15.3H1c-0.6,0-1,0.4-1,1s0.4,1,1,1h28c0.6,0,1-0.4,1-1S29.6,25.4,29,25.4z M25,11.4v14h-8v-14H25z M5,10.1l10-6.7v22H5V10.1z
	 M13,13.4v2c0,0.6-0.4,1-1,1s-1-0.4-1-1v-2c0-0.6,0.4-1,1-1S13,12.9,13,13.4z M9,13.4v2c0,0.6-0.4,1-1,1s-1-0.4-1-1v-2
	c0-0.6,0.4-1,1-1S9,12.9,9,13.4z M9,20.4v2c0,0.6-0.4,1-1,1s-1-0.4-1-1v-2c0-0.6,0.4-1,1-1S9,19.9,9,20.4z M13,20.4v2
	c0,0.6-0.4,1-1,1s-1-0.4-1-1v-2c0-0.6,0.4-1,1-1S13,19.9,13,20.4z"/>
</svg>
