<svg width="25" height="24" viewBox="0 0 25 24" xmlns="http://www.w3.org/2000/svg">
  <path d="M19.9814 3H17.7314V2.25C17.7314 2.05109 17.6524 1.86032 17.5118 1.71967C17.3711 1.57902 17.1804 1.5 16.9814 1.5C16.7825 1.5 16.5918 1.57902 16.4511 1.71967C16.3105 1.86032 16.2314 2.05109 16.2314 2.25V3H8.73145V2.25C8.73145 2.05109 8.65243 1.86032 8.51178 1.71967C8.37112 1.57902 8.18036 1.5 7.98145 1.5C7.78253 1.5 7.59177 1.57902 7.45112 1.71967C7.31046 1.86032 7.23145 2.05109 7.23145 2.25V3H4.98145C4.58362 3 4.20209 3.15804 3.92079 3.43934C3.63948 3.72064 3.48145 4.10218 3.48145 4.5V19.5C3.48145 19.8978 3.63948 20.2794 3.92079 20.5607C4.20209 20.842 4.58362 21 4.98145 21H19.9814C20.3793 21 20.7608 20.842 21.0421 20.5607C21.3234 20.2794 21.4814 19.8978 21.4814 19.5V4.5C21.4814 4.10218 21.3234 3.72064 21.0421 3.43934C20.7608 3.15804 20.3793 3 19.9814 3ZM7.23145 4.5V5.25C7.23145 5.44891 7.31046 5.63968 7.45112 5.78033C7.59177 5.92098 7.78253 6 7.98145 6C8.18036 6 8.37112 5.92098 8.51178 5.78033C8.65243 5.63968 8.73145 5.44891 8.73145 5.25V4.5H16.2314V5.25C16.2314 5.44891 16.3105 5.63968 16.4511 5.78033C16.5918 5.92098 16.7825 6 16.9814 6C17.1804 6 17.3711 5.92098 17.5118 5.78033C17.6524 5.63968 17.7314 5.44891 17.7314 5.25V4.5H19.9814V7.5H4.98145V4.5H7.23145ZM19.9814 19.5H4.98145V9H19.9814V19.5ZM16.3871 11.4694C16.4568 11.539 16.5121 11.6217 16.5499 11.7128C16.5876 11.8038 16.607 11.9014 16.607 12C16.607 12.0986 16.5876 12.1962 16.5499 12.2872C16.5121 12.3783 16.4568 12.461 16.3871 12.5306L11.8871 17.0306C11.8174 17.1004 11.7347 17.1557 11.6437 17.1934C11.5526 17.2312 11.455 17.2506 11.3564 17.2506C11.2579 17.2506 11.1603 17.2312 11.0692 17.1934C10.9782 17.1557 10.8955 17.1004 10.8258 17.0306L8.57582 14.7806C8.43509 14.6399 8.35603 14.449 8.35603 14.25C8.35603 14.051 8.43509 13.8601 8.57582 13.7194C8.71655 13.5786 8.90742 13.4996 9.10645 13.4996C9.30547 13.4996 9.49634 13.5786 9.63707 13.7194L11.3564 15.4397L15.3258 11.4694C15.3955 11.3996 15.4782 11.3443 15.5692 11.3066C15.6603 11.2688 15.7579 11.2494 15.8564 11.2494C15.955 11.2494 16.0526 11.2688 16.1437 11.3066C16.2347 11.3443 16.3174 11.3996 16.3871 11.4694Z" />
</svg>
