<?xml version="1.0" encoding="utf-8"?>
<svg version="1.1" xmlns="http://www.w3.org/2000/svg" xmlns:xlink="http://www.w3.org/1999/xlink" x="0px" y="0px"
	 viewBox="0 0 30 30" style="enable-background:new 0 0 30 30;" xml:space="preserve">
<path d="M26.5,3.5h-23C1.6,3.5,0,5,0,6.9v16.1c0,1.9,1.5,3.5,3.5,3.5h23c1.9,0,3.5-1.5,3.5-3.5V6.9
	C30,5,28.4,3.5,26.5,3.5z M2.3,10.4h25.3v2.3h-7c-1.1,0-2,0.8-2.3,1.8c-0.4,1.9-2.2,3.1-4.1,2.7c-1.3-0.3-2.4-1.3-2.7-2.7
	c-0.2-1.1-1.2-1.8-2.3-1.8h-7V10.4z M3.5,5.8h23c0.6,0,1.2,0.5,1.2,1.2v1.2H2.3V6.9C2.3,6.3,2.8,5.8,3.5,5.8z M26.5,24.2h-23
	c-0.6,0-1.2-0.5-1.2-1.2V15h7c0.6,3.1,3.7,5.1,6.8,4.5c2.3-0.5,4-2.2,4.5-4.5h7v8.1C27.7,23.7,27.2,24.2,26.5,24.2z"/>
</svg>
