<svg width="16" height="16" viewBox="0 0 16 16" xmlns="http://www.w3.org/2000/svg">
  <path d="M14 12.5H13.5V2.5C13.5 2.36739 13.4473 2.24021 13.3536 2.14645C13.2598 2.05268 13.1326 2 13 2H9.5C9.36739 2 9.24021 2.05268 9.14645 2.14645C9.05268 2.24021 9 2.36739 9 2.5V5H6C5.86739 5 5.74021 5.05268 5.64645 5.14645C5.55268 5.24021 5.5 5.36739 5.5 5.5V8H3C2.86739 8 2.74021 8.05268 2.64645 8.14645C2.55268 8.24021 2.5 8.36739 2.5 8.5V12.5H2C1.86739 12.5 1.74021 12.5527 1.64645 12.6464C1.55268 12.7402 1.5 12.8674 1.5 13C1.5 13.1326 1.55268 13.2598 1.64645 13.3536C1.74021 13.4473 1.86739 13.5 2 13.5H14C14.1326 13.5 14.2598 13.4473 14.3536 13.3536C14.4473 13.2598 14.5 13.1326 14.5 13C14.5 12.8674 14.4473 12.7402 14.3536 12.6464C14.2598 12.5527 14.1326 12.5 14 12.5ZM10 3H12.5V12.5H10V3ZM6.5 6H9V12.5H6.5V6ZM3.5 9H5.5V12.5H3.5V9Z" />
</svg>
