<svg width="16" height="16" viewBox="0 0 16 16" xmlns="http://www.w3.org/2000/svg">
  <path id="Vector" d="M14.487 11.7081C14.8396 10.9913 15.0153 10.2005 14.9995 9.40177C14.9836 8.60308 14.7766 7.81981 14.3958 7.11757C14.015 6.41532 13.4715 5.81454 12.8108 5.36554C12.15 4.91654 11.3913 4.63239 10.5982 4.53689C10.3352 3.92372 9.95207 3.36939 9.47148 2.90657C8.9909 2.44375 8.42254 2.0818 7.79989 1.84204C7.17725 1.60228 6.51292 1.48956 5.84604 1.51053C5.17916 1.53149 4.52322 1.68572 3.91687 1.96412C3.31052 2.24251 2.76602 2.63945 2.31545 3.13155C1.86488 3.62364 1.51736 4.20094 1.29336 4.82942C1.06936 5.45791 0.973411 6.12487 1.01117 6.79101C1.04893 7.45715 1.21962 8.10899 1.51321 8.70814L1.03446 10.3844C0.991737 10.5344 0.989865 10.693 1.02904 10.8439C1.06821 10.9949 1.147 11.1326 1.25726 11.2428C1.36752 11.3531 1.50524 11.4319 1.65616 11.4711C1.80709 11.5102 1.96575 11.5084 2.11571 11.4656L3.79196 10.9869C4.29778 11.2352 4.84187 11.3965 5.40133 11.4638C5.66802 12.0886 6.05923 12.6525 6.55109 13.1211C7.04295 13.5897 7.62515 13.9531 8.26214 14.1892C8.89913 14.4253 9.57756 14.5292 10.256 14.4944C10.9345 14.4596 11.5987 14.2869 12.2082 13.9869L13.8845 14.4656C14.0344 14.5084 14.1931 14.5102 14.344 14.4711C14.4949 14.4319 14.6326 14.3531 14.7429 14.2428C14.8532 14.1326 14.932 13.9949 14.9711 13.8439C15.0103 13.693 15.0084 13.5344 14.9657 13.3844L14.487 11.7081ZM3.84571 9.95189C3.79924 9.95189 3.75298 9.9582 3.70821 9.97064L2.05758 10.4425L2.52946 8.79189C2.56482 8.66614 2.54957 8.53154 2.48696 8.41689C2.02722 7.57285 1.88702 6.5914 2.09206 5.6524C2.29709 4.71339 2.83363 3.87972 3.60335 3.30414C4.37308 2.72855 5.32443 2.44961 6.2831 2.51843C7.24176 2.58725 8.14352 2.99921 8.82314 3.67883C9.50276 4.35845 9.91473 5.26021 9.98354 6.21887C10.0524 7.17754 9.77342 8.12889 9.19784 8.89862C8.62225 9.66834 7.78858 10.2049 6.84957 10.4099C5.91057 10.615 4.92913 10.4748 4.08508 10.015C4.0119 9.97409 3.92955 9.95237 3.84571 9.95189ZM13.4707 11.7919L13.9426 13.4425L12.292 12.9706C12.1662 12.9353 12.0316 12.9505 11.917 13.0131C10.9953 13.5146 9.91357 13.6342 8.9046 13.3462C7.89564 13.0581 7.04006 12.3856 6.52196 11.4731C7.20662 11.4018 7.86915 11.1898 8.46799 10.8504C9.06683 10.5109 9.58906 10.0514 10.0019 9.50054C10.4148 8.94972 10.7093 8.31953 10.8671 7.64949C11.0249 6.97946 11.0425 6.28405 10.9188 5.60689C11.518 5.74809 12.0764 6.02566 12.5508 6.41799C13.0251 6.81032 13.4024 7.30683 13.6535 7.86886C13.9045 8.43089 14.0225 9.04328 13.9982 9.65835C13.9738 10.2734 13.8079 10.8746 13.5132 11.415C13.4501 11.5302 13.4348 11.6656 13.4707 11.7919Z" />
</svg>
