<?xml version="1.0" encoding="utf-8"?>
<svg version="1.1" xmlns="http://www.w3.org/2000/svg" xmlns:xlink="http://www.w3.org/1999/xlink" x="0px" y="0px"
	 viewBox="0 0 30 30" style="enable-background:new 0 0 30 30;" xml:space="preserve">
<path d="M21.6,10.7c0.5,0.5,0.5,1.2,0,1.6l-8.1,8.1c-0.5,0.5-1.2,0.5-1.6,0L8.4,17c-0.5-0.5-0.5-1.2,0-1.6
	c0.5-0.5,1.2-0.5,1.6,0l2.6,2.6l7.3-7.3C20.4,10.3,21.1,10.3,21.6,10.7L21.6,10.7z M30,15c0,8.3-6.7,15-15,15S0,23.3,0,15
	S6.7,0,15,0C23.3,0,30,6.7,30,15z M27.7,15C27.7,8,22,2.3,15,2.3S2.3,8,2.3,15S8,27.7,15,27.7C22,27.7,27.7,22,27.7,15z"/>
</svg>
