<?xml version="1.0" encoding="utf-8"?>
<svg version="1.1" xmlns="http://www.w3.org/2000/svg" xmlns:xlink="http://www.w3.org/1999/xlink" x="0px" y="0px"
	 viewBox="0 0 30 30" style="enable-background:new 0 0 30 30;" xml:space="preserve">
<path d="M6.9,0c-3.8,0-6.8,3-6.8,6.8s3,6.8,6.8,6.8s6.8-3,6.8-6.8S10.6,0,6.9,0z M6.9,10.9c-2.3,0-4.1-1.8-4.1-4.1s1.8-4.1,4.1-4.1
	S11,4.6,11,6.8S9.1,10.9,6.9,10.9z M23.2,13.6c3.8,0,6.8-3,6.8-6.8S27,0,23.2,0s-6.8,3-6.8,6.8S19.5,13.6,23.2,13.6z M23.2,2.8
	c2.3,0,4.1,1.8,4.1,4.1s-1.8,4.1-4.1,4.1s-4.1-1.8-4.1-4.1S21,2.8,23.2,2.8z M6.9,16.4C3.1,16.3,0,19.3,0,23.1
	c-0.1,3.8,2.9,6.8,6.7,6.9c0.1,0,0.1,0,0.2,0c3.8-0.1,6.8-3.1,6.7-6.9C13.5,19.4,10.6,16.4,6.9,16.4z M6.9,27.2
	c-2.3,0-4.1-1.8-4.1-4.1s1.8-4.1,4.1-4.1s4.1,1.8,4.1,4.1S9.1,27.2,6.9,27.2z M30,23.2c0,0.8-0.6,1.4-1.4,1.4h-4.1v4.1
	c0,0.8-0.6,1.4-1.4,1.4s-1.4-0.6-1.4-1.4v-4.1h-4.1c-0.8,0-1.4-0.6-1.4-1.4s0.6-1.4,1.4-1.4h4.1v-4.1c0-0.8,0.6-1.4,1.4-1.4
	s1.4,0.6,1.4,1.4v4.1h4.1C29.4,21.8,30,22.4,30,23.2z"/>
</svg>
