<?xml version="1.0" encoding="utf-8"?>
<svg version="1.1" xmlns="http://www.w3.org/2000/svg" xmlns:xlink="http://www.w3.org/1999/xlink" x="0px" y="0px"
	 viewBox="0 0 30 30" style="enable-background:new 0 0 30 30;" xml:space="preserve">
<path d="M20.6,18.9c0,0.6-0.5,1.1-1.1,1.1h-8.9c-0.6,0-1.1-0.5-1.1-1.1s0.5-1.1,1.1-1.1h8.9C20.1,17.8,20.6,18.3,20.6,18.9z"/>
<path d="M20.6,14.4c0,0.6-0.5,1.1-1.1,1.1h-8.9c-0.6,0-1.1-0.5-1.1-1.1s0.5-1.1,1.1-1.1h8.9C20.1,13.3,20.6,13.8,20.6,14.4z"/>
<path d="M25,2.2h-5c-0.2-0.2-0.4-0.3-0.6-0.5c-2.7-2.5-7-2.2-9.4,0.5H5c-1.2,0-2.2,1-2.2,2.2v23.3c0,1.2,1,2.2,2.2,2.2h20
	c1.2,0,2.2-1,2.2-2.2V4.4C27.2,3.2,26.2,2.2,25,2.2z M15.1,2.3c2.4,0,4.4,1.9,4.4,4.4h-8.9C10.6,4.2,12.7,2.3,15.1,2.3z M25,27.8H5
	V4.5h3.7C8.4,5.2,8.3,5.9,8.3,6.7v1c0,0.6,0.5,1.1,1.1,1.1h11.2c0.6,0,1.1-0.5,1.1-1.1V6.6c0-0.7-0.1-1.5-0.4-2.2H25V27.8z"/>
</svg>
