<?xml version="1.0" encoding="utf-8"?>
<svg version="1.1"
	xmlns="http://www.w3.org/2000/svg"
	xmlns:xlink="http://www.w3.org/1999/xlink" x="0px" y="0px" viewBox="0 0 30 30" style="enable-background:new 0 0 30 30;" xml:space="preserve">
	<path d="M17.1,15L29.5,2.5c0.6-0.6,0.6-1.5,0-2.1c-0.6-0.6-1.5-0.6-2.1,0L15,12.9L2.5,0.4C2-0.1,1-0.1,0.4,0.4C-0.1,1-0.1,2,0.4,2.5
	L12.9,15L0.4,27.4c-0.6,0.6-0.6,1.5,0,2.1c0.6,0.6,1.5,0.6,2.1,0L15,17.1l12.5,12.5c0.6,0.6,1.5,0.6,2.1,0s0.6-1.5,0-2.1L17.1,15z" />
</svg>
