<?xml version="1.0" encoding="utf-8"?>
<svg version="1.1" xmlns="http://www.w3.org/2000/svg" xmlns:xlink="http://www.w3.org/1999/xlink" x="0px" y="0px"
	 viewBox="0 0 30 30" style="enable-background:new 0 0 30 30;" xml:space="preserve">
<path d="M30,14.3c0,2.4-0.8,4.7-2.2,6.6c-0.3,0.4-1,0.5-1.4,0.2c-0.4-0.3-0.5-1-0.2-1.4c1.2-1.6,1.8-3.5,1.8-5.4c0-5-4-9-9-9
	s-9,4-9,9c0,0.6-0.4,1-1,1s-1-0.4-1-1c0-1,0.1-2,0.4-3c-0.1,0-0.3,0-0.4,0c-3.3,0-6,2.7-6,6s2.7,6,6,6h3c0.6,0,1,0.4,1,1s-0.4,1-1,1
	H8c-4.4,0-8-3.6-8-8c0-2.4,1.1-4.7,3-6.2c1.7-1.4,4-2,6.2-1.7c2.7-5.4,9.3-7.6,14.8-4.9C27.6,6.3,30,10.1,30,14.3z M18.7,13.6
	c-0.4-0.4-1-0.4-1.4,0c0,0,0,0,0,0l-4,4c-0.4,0.4-0.4,1,0,1.4c0.4,0.4,1,0.4,1.4,0l2.3-2.3v7.6c0,0.6,0.4,1,1,1s1-0.4,1-1v-7.6
	l2.3,2.3c0.4,0.4,1,0.4,1.4,0c0.4-0.4,0.4-1,0-1.4L18.7,13.6L18.7,13.6z"/>
</svg>
