<?xml version="1.0" encoding="utf-8"?>
<svg version="1.1" xmlns="http://www.w3.org/2000/svg" xmlns:xlink="http://www.w3.org/1999/xlink" x="0px" y="0px"
	 viewBox="0 0 30 30" style="enable-background:new 0 0 30 30;" xml:space="preserve">
<path d="M7.6,10.3l-5.1,4.2l5.1,4.2c0.4,0.3,0.5,1,0.2,1.4c-0.3,0.4-1,0.5-1.4,0.2l0,0l-6-5c-0.4-0.4-0.5-1-0.1-1.4l6.1-5.1
	c0.4-0.4,1.1-0.3,1.4,0.1C8.1,9.3,8.1,9.9,7.6,10.3z"/>
<path d="M22.1,8.9c0.3-0.4,1-0.5,1.4-0.1l6.1,5.1c0.4,0.4,0.3,1-0.1,1.4l-6,5l0,0c-0.4,0.3-1.1,0.2-1.4-0.2s-0.2-1.1,0.2-1.4
	l5.1-4.2l-5.1-4.2C21.8,9.9,21.8,9.3,22.1,8.9z"/>
<path d="M19.2,2.6c-0.5-0.2-1,0.1-1.2,0.6l-8,22.2c-0.2,0.5,0.1,1,0.6,1.2s1-0.1,1.2-0.6l8-22.2C20,3.3,19.7,2.8,19.2,2.6z"/>
</svg>
