<svg id="Layer_1" data-name="Layer 1" xmlns="http://www.w3.org/2000/svg" viewBox="0 0 16.88 12.38">
  <path d="M12.38,3.49v-.39c0-1.76-2.66-3.09-6.19-3.09S0,1.33,0,3.09v2.81c0,1.47,1.85,2.64,4.5,2.99v.39c0,1.76,2.66,3.09,6.19,3.09s6.19-1.33,6.19-3.09v-2.81c0-1.46-1.79-2.62-4.5-2.98Zm3.38,2.98c0,.93-2.16,1.97-5.06,1.97-.26,0-.52,0-.78-.03,1.52-.55,2.47-1.45,2.47-2.51v-1.28c2.1,.31,3.38,1.16,3.38,1.85Zm-11.25,1.28v-1.67c.56,.07,1.12,.11,1.69,.11,.56,0,1.13-.04,1.69-.11v1.67c-.56,.08-1.12,.12-1.69,.12-.56,0-1.13-.04-1.69-.12Zm6.75-2.84v.99c0,.59-.87,1.22-2.25,1.61v-1.64c.91-.22,1.68-.55,2.25-.95ZM6.19,1.12c2.9,0,5.06,1.04,5.06,1.97s-2.16,1.97-5.06,1.97S1.12,4.02,1.12,3.09,3.29,1.12,6.19,1.12ZM1.12,5.91v-.99c.57,.41,1.34,.73,2.25,.95v1.64c-1.38-.38-2.25-1.02-2.25-1.61Zm4.5,3.38v-.29c.18,0,.37,.01,.56,.01,.27,0,.54,0,.8-.02,.29,.1,.59,.19,.89,.26v1.65c-1.38-.38-2.25-1.02-2.25-1.61Zm3.38,1.85v-1.68c.56,.08,1.12,.11,1.69,.11,.56,0,1.13-.04,1.69-.11v1.67c-1.12,.16-2.26,.16-3.38,0Zm4.5-.24v-1.64c.91-.22,1.68-.55,2.25-.95v.99c0,.59-.87,1.22-2.25,1.61Z" />
</svg>
