<?xml version="1.0" encoding="utf-8"?>
<svg version="1.1" xmlns="http://www.w3.org/2000/svg" xmlns:xlink="http://www.w3.org/1999/xlink" x="0px" y="0px"
	 viewBox="0 0 30 30" style="enable-background:new 0 0 30 30;" xml:space="preserve">
<path d="M25.2,4.6C23.4,1.6,21,0,18.5,0h-6.9C9,0,6.6,1.6,4.8,4.6C3.2,7.4,2.3,11.1,2.3,15s0.9,7.6,2.5,10.4c1.7,3,4.1,4.6,6.7,4.6
	h6.9c2.6,0,5-1.6,6.7-4.6c1.6-2.8,2.5-6.5,2.5-10.4S26.8,7.4,25.2,4.6z M25.4,13.8h-4.6c-0.1-2.4-0.6-4.7-1.4-6.9h4.4
	C24.6,8.9,25.2,11.2,25.4,13.8z M22.4,4.6h-4.1c-0.5-0.8-1.1-1.6-1.7-2.3h2C19.9,2.3,21.3,3.2,22.4,4.6z M4.6,15
	c0-6.9,3.2-12.7,6.9-12.7s6.9,5.8,6.9,12.7c0,6.9-3.2,12.7-6.9,12.7S4.6,21.9,4.6,15z M18.5,27.7h-1.9c0.7-0.7,1.2-1.5,1.7-2.3h4.1
	C21.3,26.8,19.9,27.7,18.5,27.7z M23.8,23.1h-4.4c0.8-2.2,1.3-4.6,1.4-6.9h4.6C25.2,18.8,24.6,21.1,23.8,23.1z"/>
</svg>
