<svg width="130" height="26" fill="none" xmlns="http://www.w3.org/2000/svg"><path d="M12.784 6.48c1.784 0 3.23-1.45 3.23-3.24 0-1.79-1.446-3.24-3.23-3.24a3.235 3.235 0 0 0-3.23 3.24c0 1.79 1.447 3.24 3.23 3.24zM12.784 25.65c1.784 0 3.23-1.45 3.23-3.24 0-1.79-1.446-3.24-3.23-3.24a3.235 3.235 0 0 0-3.23 3.24c0 1.79 1.447 3.24 3.23 3.24zM22.305 16.065c1.784 0 3.23-1.45 3.23-3.24 0-1.79-1.446-3.24-3.23-3.24a3.235 3.235 0 0 0-3.23 3.24c0 1.79 1.446 3.24 3.23 3.24zM3.23 16.065c1.783 0 3.23-1.45 3.23-3.24 0-1.79-1.447-3.24-3.23-3.24A3.235 3.235 0 0 0 0 12.825c0 1.79 1.446 3.24 3.23 3.24zM12.788 7.618 7.602 12.82l5.186 5.203 5.186-5.203-5.186-5.202zM18.605 6.986V1.417l5.55 5.57h-5.55zM6.93 6.986H1.379L6.93 1.417v5.57zM6.93 18.664v5.569l-5.551-5.57H6.93zM18.605 18.664h5.55l-5.55 5.569v-5.57zM46.09 17.044a9.24 9.24 0 0 1-.874.742 6.188 6.188 0 0 1-2.254 1.013 4.57 4.57 0 0 1-1.346.135 6.453 6.453 0 0 1-3.151-.8 6.477 6.477 0 0 1-2.366-2.238 6.16 6.16 0 0 1-.64-1.45 6.013 6.013 0 0 1 0-3.275c.144-.511.359-1 .64-1.45a5.87 5.87 0 0 1 1.009-1.25c.389-.363.818-.68 1.279-.945A5.927 5.927 0 0 1 39.9 6.92a6.957 6.957 0 0 1 1.683-.203c.44-.005.88.04 1.312.135.403.1.797.235 1.177.405.366.17.715.373 1.043.608.325.232.629.491.908.776l-1.648 1.755a3.493 3.493 0 0 0-1.245-.979 3.56 3.56 0 0 0-1.547-.337 3.695 3.695 0 0 0-2.59 1.08c-.346.342-.61.757-.775 1.215a4.201 4.201 0 0 0 0 3.004c.193.45.467.862.808 1.215a3.621 3.621 0 0 0 3.398 1.012c.258-.054.507-.145.74-.27.236-.115.46-.25.673-.405.206-.162.398-.343.572-.54l1.682 1.654zM51.34 12.791a5.243 5.243 0 0 1 .235-1.62c.143-.511.358-1 .639-1.45a5.87 5.87 0 0 1 1.01-1.25 6.96 6.96 0 0 1 1.278-.945 5.928 5.928 0 0 1 1.514-.607 6.45 6.45 0 0 1 3.398 0 6.387 6.387 0 0 1 2.826 1.586 6.058 6.058 0 0 1 1.648 2.7 6.013 6.013 0 0 1 0 3.274 5.6 5.6 0 0 1-.64 1.451 5.14 5.14 0 0 1-1.008 1.249 5.2 5.2 0 0 1-1.313.945 5.926 5.926 0 0 1-1.513.608 6.71 6.71 0 0 1-4.912-.608 6.488 6.488 0 0 1-2.288-2.194 6.152 6.152 0 0 1-.64-1.451 5.836 5.836 0 0 1-.235-1.688zm2.69.034c0 .51.103 1.016.303 1.485.206.444.478.854.808 1.215a3.555 3.555 0 0 0 2.59 1.08c.498 0 .991-.103 1.447-.303a3.505 3.505 0 0 0 1.178-.81c.345-.343.609-.758.773-1.216.37-.966.37-2.037 0-3.003a3.987 3.987 0 0 0-.773-1.181 3.695 3.695 0 0 0-2.59-1.08 3.695 3.695 0 0 0-2.591 1.08c-.345.341-.61.757-.774 1.214a3.16 3.16 0 0 0-.37 1.52zM70.281 6.986h2.725v9.35h4.879v2.328H70.28V6.986zM82.862 12.791a5.246 5.246 0 0 1 .236-1.62 5.6 5.6 0 0 1 .64-1.45 5.87 5.87 0 0 1 1.008-1.25A6.333 6.333 0 0 1 87.54 6.92a6.45 6.45 0 0 1 3.398 0c.53.132 1.04.336 1.514.607a7.2 7.2 0 0 1 1.312.945c.4.361.74.782 1.009 1.25.275.453.49.941.64 1.45a6.012 6.012 0 0 1 0 3.274c-.144.512-.36 1-.64 1.451a6.209 6.209 0 0 1-2.288 2.194 6.643 6.643 0 0 1-4.912.608 6.722 6.722 0 0 1-1.547-.608 6.49 6.49 0 0 1-2.288-2.194 6.155 6.155 0 0 1-.64-1.45 4.582 4.582 0 0 1-.235-1.655zm2.692 0c0 .511.102 1.016.303 1.486.176.46.452.874.807 1.215a3.67 3.67 0 0 0 4.037.81 2.739 2.739 0 0 0 1.144-.81c.345-.343.61-.758.774-1.216.37-.966.37-2.037 0-3.003a3.491 3.491 0 0 0-1.951-1.958 3.81 3.81 0 0 0-2.86 0 3.411 3.411 0 0 0-1.178.777c-.345.341-.609.757-.773 1.214a4.038 4.038 0 0 0-.303 1.486zM112.402 18.664h-2.355l-5.551-7.02v7.02h-2.725V6.986h2.355l5.551 6.987V6.986h2.725v11.678zM129.607 6.986l-4.492 7.257v4.42h-2.711V14.25l-4.471-7.263h3.159l2.661 4.783h.027l2.661-4.783h3.166z" fill="#101828"/><path d="m129.607 6.986-4.492 7.257v4.42h-2.711V14.25l-4.471-7.263h3.159l2.661 4.783h.027l2.661-4.783h3.166z" fill="#101828"/></svg>