<svg width="27" height="26" fill="none" xmlns="http://www.w3.org/2000/svg"><g clip-path="url(#a)"><path d="M13.606 26c7.18 0 13-5.82 13-13s-5.82-13-13-13-13 5.82-13 13 5.82 13 13 13z" fill="#00284B"/><path d="M13.607 8.924a2.097 2.097 0 1 0 0-4.194 2.097 2.097 0 0 0 0 4.194zM13.607 21.273a2.097 2.097 0 1 0 0-4.194 2.097 2.097 0 0 0 0 4.194zM19.78 15.097a2.097 2.097 0 1 0 0-4.194 2.097 2.097 0 0 0 0 4.194zM7.433 15.097a2.097 2.097 0 1 0 0-4.194 2.097 2.097 0 0 0 0 4.194zM16.962 13.003l-3.356-3.355-3.355 3.355 3.355 3.355 3.356-3.355zM17.38 9.226v-3.59l3.59 3.59h-3.59zM9.833 9.226h-3.59l3.59-3.59v3.59zM9.833 16.776v3.59l-3.59-3.59h3.59zM17.38 16.774h3.59l-3.59 3.59v-3.59z" fill="#fff"/></g><defs><clipPath id="a"><path fill="#fff" transform="translate(.606)" d="M0 0h26v26H0z"/></clipPath></defs></svg>