<svg xmlns="http://www.w3.org/2000/svg" viewBox="0 0 37 37" height="37" width="37">
	<path d="M29.9,13.7c0-0.5-0.1-1-0.4-1.5c0-0.1-0.1-0.1-0.1-0.2c0-0.1-0.1-0.1-0.2-0.2c-0.3-0.4-0.6-0.7-1-1L20.1,6l0,0
		c-0.5-0.3-1.1-0.4-1.6-0.4S17.4,5.7,16.9,6l0,0l-8.1,4.8l0,0c-0.4,0.2-0.8,0.6-1,1c-0.1,0.1-0.1,0.1-0.2,0.2c0,0.1-0.1,0.1-0.1,0.2
		c-0.2,0.5-0.4,1-0.4,1.5v9.5c0,0.6,0.2,1.2,0.4,1.7c0.3,0.5,0.7,0.9,1.2,1.2l0,0l8.1,4.8l0,0c0.4,0.2,0.8,0.4,1.2,0.4
		c0.1,0.1,0.3,0.1,0.5,0.1c0.2,0,0.3,0,0.5-0.1c0.4-0.1,0.8-0.2,1.2-0.4l0,0l8.1-4.8l0,0c0.5-0.3,0.9-0.7,1.2-1.2
		c0.3-0.5,0.4-1.1,0.4-1.7l-1,0h1V13.7z M17.5,29l-7.8-4.6l0,0c-0.2-0.1-0.4-0.3-0.5-0.5C9.1,23.7,9,23.4,9,23.2V14l8.5,5V29z
		M18.5,17.3l-8.5-5l7.8-4.6l0,0c0.2-0.1,0.4-0.2,0.7-0.2s0.5,0.1,0.7,0.2l7.8,4.6L18.5,17.3z M28,23.2c0,0.2-0.1,0.5-0.2,0.7
		c-0.1,0.2-0.3,0.4-0.5,0.5l0,0L19.5,29V19l8.5-5V23.2z"/>
</svg>
