<svg width="43" height="42" viewBox="0 0 43 42" fill="none" xmlns="http://www.w3.org/2000/svg">
<path d="M18.7922 8.63461C18.484 8.32715 18.1032 8.1023 17.6852 7.98078C17.2671 7.85927 16.8251 7.84502 16.4001 7.93935C15.9751 8.03367 15.5806 8.23354 15.2532 8.52049C14.9258 8.80745 14.6759 9.17226 14.5266 9.58125L5.91498 33.2686C5.77351 33.6592 5.72781 34.0781 5.78173 34.49C5.83564 34.9019 5.98759 35.2949 6.22481 35.636C6.46204 35.977 6.77762 36.2562 7.14507 36.45C7.51252 36.6439 7.92111 36.7467 8.33654 36.75C8.64241 36.7479 8.94557 36.6924 9.23232 36.5859L32.918 27.9727C33.3271 27.8236 33.6921 27.5738 33.9792 27.2465C34.2664 26.9191 34.4664 26.5247 34.5609 26.0997C34.6554 25.6746 34.6413 25.2326 34.5199 24.8144C34.3985 24.3963 34.1737 24.0154 33.8663 23.707L18.7922 8.63461ZM17.4256 30.8175L11.6834 25.0753L13.8425 19.1346L23.3663 28.6584L17.4256 30.8175ZM8.40217 34.0988L10.699 27.7971L14.7104 31.8084L8.40217 34.0988ZM26.0947 27.6675L14.8334 16.4062L16.9662 10.5213L31.9665 25.5216L26.0947 27.6675ZM26.7509 11.8125C26.7756 10.9252 26.9904 10.0535 27.3809 9.25641C28.2504 7.51898 29.8911 6.5625 32.0009 6.5625C33.1001 6.5625 33.8056 6.1868 34.2404 5.37961C34.4693 4.92802 34.6007 4.43332 34.6259 3.92766C34.6272 3.57956 34.7668 3.24624 35.0138 3.00102C35.2609 2.7558 35.5952 2.61877 35.9433 2.62008C36.2914 2.62138 36.6248 2.76092 36.87 3.00798C37.1152 3.25505 37.2522 3.5894 37.2509 3.9375C37.2509 6.04734 35.8531 9.1875 32.0009 9.1875C30.9017 9.1875 30.1962 9.5632 29.7615 10.3704C29.5325 10.822 29.4012 11.3167 29.3759 11.8223C29.3753 11.9947 29.3407 12.1652 29.2741 12.3242C29.2076 12.4832 29.1103 12.6276 28.988 12.749C28.8657 12.8704 28.7206 12.9665 28.5611 13.0319C28.4017 13.0973 28.2309 13.1306 28.0585 13.1299C27.8861 13.1293 27.7156 13.0947 27.5566 13.0281C27.3976 12.9616 27.2533 12.8644 27.1319 12.742C27.0104 12.6197 26.9143 12.4746 26.8489 12.3151C26.7836 12.1557 26.7503 11.9849 26.7509 11.8125ZM22.8134 6.5625V2.625C22.8134 2.2769 22.9517 1.94306 23.1978 1.69692C23.444 1.45078 23.7778 1.3125 24.1259 1.3125C24.474 1.3125 24.8079 1.45078 25.054 1.69692C25.3001 1.94306 25.4384 2.2769 25.4384 2.625V6.5625C25.4384 6.9106 25.3001 7.24444 25.054 7.49058C24.8079 7.73672 24.474 7.875 24.1259 7.875C23.7778 7.875 23.444 7.73672 23.1978 7.49058C22.9517 7.24444 22.8134 6.9106 22.8134 6.5625ZM39.492 20.0714C39.6138 20.1933 39.7105 20.3381 39.7764 20.4974C39.8423 20.6567 39.8761 20.8274 39.8761 20.9998C39.876 21.1721 39.842 21.3428 39.7759 21.502C39.7099 21.6613 39.6131 21.8059 39.4912 21.9278C39.3692 22.0496 39.2245 22.1462 39.0652 22.2121C38.9059 22.278 38.7352 22.3119 38.5628 22.3118C38.3905 22.3118 38.2198 22.2777 38.0605 22.2117C37.9013 22.1457 37.7567 22.0489 37.6348 21.927L35.0098 19.302C34.7635 19.0557 34.6252 18.7216 34.6252 18.3734C34.6252 18.0251 34.7635 17.691 35.0098 17.4448C35.2561 17.1985 35.5901 17.0601 35.9384 17.0601C36.2867 17.0601 36.6207 17.1985 36.867 17.4448L39.492 20.0714ZM40.291 13.0577L36.3535 14.3702C36.0232 14.4803 35.6628 14.4547 35.3514 14.299C35.04 14.1433 34.8033 13.8703 34.6932 13.5401C34.5831 13.2098 34.6087 12.8494 34.7644 12.538C34.9201 12.2266 35.1931 11.9899 35.5233 11.8798L39.4608 10.5673C39.7911 10.4572 40.1516 10.4828 40.4629 10.6385C40.7743 10.7942 41.0111 11.0672 41.1211 11.3974C41.2312 11.7277 41.2056 12.0881 41.0499 12.3995C40.8942 12.7109 40.6212 12.9476 40.291 13.0577Z" fill="black"/>
</svg>
