<?xml version="1.0" encoding="utf-8"?>
<svg version="1.1" xmlns="http://www.w3.org/2000/svg" xmlns:xlink="http://www.w3.org/1999/xlink" x="0px" y="0px"
	 viewBox="0 0 30 30" style="enable-background:new 0 0 30 30;" xml:space="preserve">
<path d="M23.8,5H1.2C0.6,5,0,5.6,0,6.2v22.5C0,29.4,0.6,30,1.2,30h22.5c0.7,0,1.2-0.6,1.2-1.2V6.2C25,5.6,24.4,5,23.8,5
	z M22.5,27.5h-20v-20h20V27.5z M30,1.2v22.5c0,0.7-0.6,1.2-1.2,1.2s-1.2-0.6-1.2-1.2V2.5H6.2C5.6,2.5,5,1.9,5,1.2S5.6,0,6.2,0h22.5
	C29.4,0,30,0.6,30,1.2z"/>
</svg>
