<?xml version="1.0" encoding="utf-8"?>
<svg version="1.1" xmlns="http://www.w3.org/2000/svg" xmlns:xlink="http://www.w3.org/1999/xlink" x="0px" y="0px"
	 viewBox="0 0 30 30" style="enable-background:new 0 0 30 30;" xml:space="preserve">
<path d="M29.8,10.6c-0.5-1-1.6-1.4-2.6-0.9l-5.7,2.7l-4.8-8c0,0-0.5-1-1.7-1s-1.7,1-1.7,1l-4.8,8L2.8,9.7c-1-0.5-2.1-0.1-2.6,0.9
	c-0.2,0.5-0.3,1-0.1,1.5l4.5,13.7c0.2,0.8,1.1,1.2,1.8,0.9c0.1,0,0.2-0.1,0.3-0.1c0,0,3-1.7,8.3-1.7s8.3,1.7,8.3,1.7
	c0.1,0,0.2,0.1,0.3,0.1c0.7,0.3,1.6-0.1,1.8-0.9l4.5-13.7C30.1,11.6,30,11.1,29.8,10.6z M23.2,23.3c-1.6-0.6-4.4-1.4-8.2-1.4
	s-6.6,0.8-8.2,1.4l-3.3-10L8,15.5c0.9,0.4,2,0.1,2.5-0.7L15,7.3l4.5,7.5c0.5,0.8,1.6,1.1,2.5,0.7l4.5-2.2L23.2,23.3z"/>
</svg>
