<svg width="14" height="14" viewBox="0 0 14 14" fill="none" xmlns="http://www.w3.org/2000/svg">
<path d="M7 0.5C5.71442 0.5 4.45771 0.881218 3.38879 1.59545C2.31987 2.30968 1.48675 3.32484 0.994782 4.51256C0.502813 5.70028 0.374091 7.00721 0.624895 8.26809C0.875699 9.52896 1.49476 10.6872 2.40381 11.5962C3.31285 12.5052 4.47104 13.1243 5.73191 13.3751C6.99279 13.6259 8.29972 13.4972 9.48744 13.0052C10.6752 12.5132 11.6903 11.6801 12.4046 10.6112C13.1188 9.54229 13.5 8.28558 13.5 7C13.4982 5.27665 12.8128 3.62441 11.5942 2.40582C10.3756 1.18722 8.72335 0.50182 7 0.5ZM5.35187 9.5H8.64812C8.3125 10.6462 7.75 11.6794 7 12.4931C6.25 11.6794 5.6875 10.6462 5.35187 9.5ZM5.125 8.5C4.95917 7.50688 4.95917 6.49312 5.125 5.5H8.875C9.04083 6.49312 9.04083 7.50688 8.875 8.5H5.125ZM1.5 7C1.49956 6.49277 1.56961 5.98795 1.70812 5.5H4.11187C3.96271 6.49444 3.96271 7.50556 4.11187 8.5H1.70812C1.56961 8.01205 1.49956 7.50723 1.5 7ZM8.64812 4.5H5.35187C5.6875 3.35375 6.25 2.32063 7 1.50688C7.75 2.32063 8.3125 3.35375 8.64812 4.5ZM9.88812 5.5H12.2919C12.5694 6.48075 12.5694 7.51925 12.2919 8.5H9.88812C10.0373 7.50556 10.0373 6.49444 9.88812 5.5ZM11.8981 4.5H9.68375C9.42858 3.49594 9.00007 2.54415 8.4175 1.6875C9.16178 1.88751 9.85596 2.24108 10.4554 2.72546C11.0549 3.20984 11.5463 3.81431 11.8981 4.5ZM5.5825 1.6875C4.99993 2.54415 4.57141 3.49594 4.31625 4.5H2.10187C2.4537 3.81431 2.94514 3.20984 3.54459 2.72546C4.14403 2.24108 4.83822 1.88751 5.5825 1.6875ZM2.10187 9.5H4.31625C4.57141 10.5041 4.99993 11.4558 5.5825 12.3125C4.83822 12.1125 4.14403 11.7589 3.54459 11.2745C2.94514 10.7902 2.4537 10.1857 2.10187 9.5ZM8.4175 12.3125C9.00007 11.4558 9.42858 10.5041 9.68375 9.5H11.8981C11.5463 10.1857 11.0549 10.7902 10.4554 11.2745C9.85596 11.7589 9.16178 12.1125 8.4175 12.3125Z" fill="#101828"/>
</svg>
