<?xml version="1.0" encoding="utf-8"?>
<!-- Generator: Adobe Illustrator 28.0.0, SVG Export Plug-In . SVG Version: 6.00 Build 0)  -->
<svg version="1.1" id="Layer_1" xmlns="http://www.w3.org/2000/svg" xmlns:xlink="http://www.w3.org/1999/xlink" x="0px" y="0px"
	 viewBox="0 0 80 80" style="enable-background:new 0 0 80 80;" xml:space="preserve">
<style type="text/css">
	.st0{fill:#010101;}
</style>
<path class="st0" d="M67.5,12.5h-55C11.2,12.5,9.9,13,9,14c-0.9,0.9-1.5,2.2-1.5,3.5v45C7.5,63.8,8,65.1,9,66
	c0.9,0.9,2.2,1.5,3.5,1.5h55c1.3,0,2.6-0.5,3.5-1.5c0.9-0.9,1.5-2.2,1.5-3.5v-45c0-1.3-0.5-2.6-1.5-3.5C70.1,13,68.8,12.5,67.5,12.5
	z M67.5,17.5V30h-55V17.5H67.5z M12.5,35H30v27.5H12.5V35z M67.5,62.5H35V35h32.5V62.5z"/>
</svg>
