<?xml version="1.0" encoding="utf-8"?>
<svg version="1.1" xmlns="http://www.w3.org/2000/svg" xmlns:xlink="http://www.w3.org/1999/xlink" x="0px" y="0px"
	 viewBox="0 0 30 30" style="enable-background:new 0 0 30 30;" xml:space="preserve">
<circle cx="10.5" cy="16" r="1.5"/>
<circle cx="19.5" cy="16" r="1.5"/>
<path d="M29.9,20.4L26.3,5.7c-0.2-0.7-0.9-1.3-1.7-1.4l-4.5-0.7c-1-0.2-2,0.5-2.3,1.5l-0.4,1.6c-0.8-0.1-1.6-0.1-2.4-0.1
	s-1.6,0-2.4,0.1l-0.4-1.6c-0.3-1-1.3-1.7-2.3-1.5L5.4,4.3C4.6,4.4,3.9,5,3.7,5.7L0.1,20.4c-0.3,0.9,0.2,1.9,1.1,2.3l8.4,3.7l0.1,0
	c1,0.4,2.2-0.2,2.6-1.2l1-2.7c0.6,0.1,1.1,0.1,1.7,0.1s1,0,1.6-0.1l1,2.7c0.4,1,1.6,1.6,2.6,1.2l0.1,0l8.4-3.7
	C29.7,22.3,30.2,21.3,29.9,20.4z M19.6,24.5l-0.8-2.3c0.8-0.1,1.7-0.3,2.5-0.5c0.5-0.2,0.8-0.7,0.7-1.3c-0.2-0.5-0.7-0.8-1.2-0.7
	c-1.9,0.5-3.8,0.9-5.8,0.9c-1.9,0-3.9-0.4-5.8-0.9c-0.5-0.1-1,0.2-1.2,0.7c-0.1,0.6,0.2,1.1,0.7,1.3c0.8,0.2,1.7,0.4,2.5,0.5
	l-0.8,2.3L2,20.8L5.7,6.2l4.5-0.7l0.4,1.4C10,7,8.7,7.3,8.7,7.3c-0.4,0.1-0.7,0.5-0.7,1c0,0.6,0.4,1,1,1c0.1,0,0.4-0.1,0.4-0.1
	c1.8-0.5,3.8-0.7,5.7-0.7s3.9,0.2,5.7,0.7c0,0,0.3,0.1,0.4,0.1c0.6,0,1-0.4,1-1c0-0.5-0.3-0.8-0.7-1c0,0-1.4-0.3-2-0.4l0.4-1.4
	l4.5,0.7L28,20.8L19.6,24.5z"/>
</svg>
