<?xml version="1.0" encoding="utf-8"?>
<svg version="1.1" xmlns="http://www.w3.org/2000/svg" xmlns:xlink="http://www.w3.org/1999/xlink" x="0px" y="0px"
	 viewBox="0 0 30 30" style="enable-background:new 0 0 30 30;" xml:space="preserve">
<path d="M15,17.9c-1.6,0-2.9-1.3-2.9-2.9s1.3-2.9,2.9-2.9s2.9,1.3,2.9,2.9S16.6,17.9,15,17.9z M17.9,2.9
	C17.9,1.3,16.6,0,15,0s-2.9,1.3-2.9,2.9s1.3,2.9,2.9,2.9S17.9,4.4,17.9,2.9z M17.9,27.1c0-1.6-1.3-2.9-2.9-2.9s-2.9,1.3-2.9,2.9
	c0,1.6,1.3,2.9,2.9,2.9S17.9,28.7,17.9,27.1z"/>
</svg>
