<?xml version="1.0" encoding="utf-8"?>
<svg version="1.1" xmlns="http://www.w3.org/2000/svg" xmlns:xlink="http://www.w3.org/1999/xlink" x="0px" y="0px"
	 viewBox="0 0 30 30" style="enable-background:new 0 0 30 30;" xml:space="preserve">
<path d="M17.9,15.2c0,1.6-1.3,2.9-2.9,2.9s-2.9-1.3-2.9-2.9c0-1.6,1.3-2.9,2.9-2.9S17.9,13.6,17.9,15.2z M2.9,12.3
	c-1.6,0-2.9,1.3-2.9,2.9C0,16.7,1.3,18,2.9,18s2.9-1.3,2.9-2.9C5.7,13.6,4.4,12.3,2.9,12.3z M27.1,12.3c-1.6,0-2.9,1.3-2.9,2.9
	c0,1.6,1.3,2.9,2.9,2.9c1.6,0,2.9-1.3,2.9-2.9C30,13.6,28.7,12.3,27.1,12.3z"/>
</svg>
