<?xml version="1.0" encoding="utf-8"?>
<svg version="1.1" xmlns="http://www.w3.org/2000/svg" xmlns:xlink="http://www.w3.org/1999/xlink" x="0px" y="0px"
	 viewBox="0 0 30 30" style="enable-background:new 0 0 30 30;" xml:space="preserve">
<path d="M28.8,17.4c-0.6,0-1.2,0.6-1.2,1.2v8.8H15H2.4v-8.8c0-0.6-0.6-1.2-1.2-1.2c-0.6,0-1.2,0.5-1.2,1.2v8.8
	c0,1.4,1.1,2.5,2.5,2.6H15h12.5c1.4-0.1,2.5-1.2,2.5-2.6v-8.8C30,17.9,29.4,17.4,28.8,17.4z"/>
<path d="M14.1,19.6c0.5,0.5,1.3,0.5,1.8,0l6.2-6.2c0.5-0.5,0.5-1.3,0-1.8s-1.3-0.5-1.8,0l-4.1,4.1V1.2C16.2,0.6,15.7,0,15,0
	s-1.2,0.6-1.2,1.2v14.5l-4.1-4.1c-0.5-0.5-1.3-0.5-1.8,0s-0.5,1.3,0,1.8L14.1,19.6L14.1,19.6z"/>
</svg>
