<svg width="16" height="16" viewBox="0 0 16 16" xmlns="http://www.w3.org/2000/svg">
<path d="M14.2075 4.58547L11.4144 1.79297C11.3215 1.70009 11.2113 1.62641 11.0899 1.57614C10.9686 1.52587 10.8385 1.5 10.7072 1.5C10.5759 1.5 10.4458 1.52587 10.3245 1.57614C10.2031 1.62641 10.0929 1.70009 10 1.79297L2.29313 9.49985C2.19987 9.59237 2.12593 9.70251 2.0756 9.82386C2.02528 9.94521 1.99959 10.0754 2.00001 10.2067V12.9998C2.00001 13.2651 2.10536 13.5194 2.2929 13.707C2.48043 13.8945 2.73479 13.9998 3.00001 13.9998H13.5C13.6326 13.9998 13.7598 13.9472 13.8536 13.8534C13.9473 13.7596 14 13.6325 14 13.4998C14 13.3672 13.9473 13.2401 13.8536 13.1463C13.7598 13.0525 13.6326 12.9998 13.5 12.9998H7.20751L14.2075 5.99985C14.3004 5.90699 14.3741 5.79674 14.4243 5.6754C14.4746 5.55406 14.5005 5.424 14.5005 5.29266C14.5005 5.16132 14.4746 5.03127 14.4243 4.90992C14.3741 4.78858 14.3004 4.67834 14.2075 4.58547ZM8.50001 4.70672L9.54313 5.74985L4.25001 11.043L3.20688 9.99985L8.50001 4.70672ZM3.00001 12.9998V11.2067L4.79313 12.9998H3.00001ZM6.00001 12.793L4.9575 11.7498L10.25 6.45672L11.2931 7.49985L6.00001 12.793ZM12 6.79297L9.20751 3.99985L10.7075 2.49985L13.5 5.29297L12 6.79297Z" />
</svg>
