<?xml version="1.0" encoding="utf-8"?>
<svg version="1.1" xmlns="http://www.w3.org/2000/svg" xmlns:xlink="http://www.w3.org/1999/xlink" x="0px" y="0px"
	 viewBox="0 0 26 25" style="enable-background:new 0 0 26 25;" xml:space="preserve">
<style type="text/css">
	.st0{fill:#A4BCFD;}
	.st1{fill:#FFFFFF;}
</style>
<path class="st0" d="M13.1,25c6.9,0,12.5-5.6,12.5-12.5C25.6,5.6,20,0,13.1,0C6.2,0,0.6,5.6,0.6,12.5C0.6,19.4,6.2,25,13.1,25z"/>
<polygon class="st1" points="13.5,21.9 19.4,13.8 13.5,17.2 13.5,17.2 7.6,13.8 13.5,21.9 13.5,21.9 13.5,21.9 13.5,21.9 "/>
<polygon class="st1" points="13.5,3.1 13.5,3.1 13.5,3.1 13.5,3.1 13.5,3.1 7.6,12.7 13.5,16.1 13.5,16.1 13.5,16.1 13.5,16.1 
	13.5,16.1 19.4,12.7 "/>
</svg>
