<svg width="34" height="35" viewBox="0 0 34 35" fill="none" xmlns="http://www.w3.org/2000/svg">
<circle cx="17" cy="17.3582" r="17" fill="#FFAC33"/>
<path d="M23.875 15.625C24.2397 15.625 24.5894 15.4801 24.8473 15.2223C25.1051 14.9644 25.25 14.6147 25.25 14.25V10.125C25.25 9.76033 25.1051 9.41059 24.8473 9.15273C24.5894 8.89487 24.2397 8.75 23.875 8.75H19.75C19.3853 8.75 19.0356 8.89487 18.7777 9.15273C18.5199 9.41059 18.375 9.76033 18.375 10.125V14.25C18.375 14.6147 18.5199 14.9644 18.7777 15.2223C19.0356 15.4801 19.3853 15.625 19.75 15.625H21.125V18.4438C20.4644 18.5785 19.858 18.9045 19.3812 19.3812C18.9045 19.858 18.5785 20.4644 18.4438 21.125H15.625V19.75C15.625 19.3853 15.4801 19.0356 15.2223 18.7777C14.9644 18.5199 14.6147 18.375 14.25 18.375H12.875V15.5562C13.7097 15.3859 14.4513 14.9117 14.9562 14.2255C15.4611 13.5394 15.6932 12.6903 15.6076 11.8427C15.522 10.9952 15.1247 10.2096 14.4928 9.63829C13.8609 9.06701 13.0394 8.7507 12.1875 8.7507C11.3356 8.7507 10.5141 9.06701 9.88222 9.63829C9.25031 10.2096 8.85303 10.9952 8.76741 11.8427C8.68179 12.6903 8.91393 13.5394 9.41881 14.2255C9.92369 14.9117 10.6654 15.3859 11.5 15.5562V18.375H10.125C9.76034 18.375 9.4106 18.5199 9.15274 18.7777C8.89487 19.0356 8.75001 19.3853 8.75001 19.75V23.875C8.75001 24.2397 8.89487 24.5894 9.15274 24.8473C9.4106 25.1051 9.76034 25.25 10.125 25.25H14.25C14.6147 25.25 14.9644 25.1051 15.2223 24.8473C15.4801 24.5894 15.625 24.2397 15.625 23.875V22.5H18.4438C18.5681 23.1084 18.8549 23.6717 19.2738 24.1302C19.6926 24.5886 20.2278 24.925 20.8224 25.1037C21.4171 25.2824 22.0491 25.2967 22.6513 25.145C23.2534 24.9933 23.8032 24.6814 24.2423 24.2423C24.6814 23.8032 24.9933 23.2534 25.145 22.6513C25.2967 22.0491 25.2824 21.4171 25.1037 20.8224C24.925 20.2277 24.5886 19.6926 24.1302 19.2737C23.6717 18.8549 23.1084 18.5681 22.5 18.4438V15.625H23.875ZM10.125 12.1875C10.125 11.7796 10.246 11.3808 10.4726 11.0416C10.6992 10.7025 11.0214 10.4381 11.3982 10.282C11.7751 10.1259 12.1898 10.085 12.5899 10.1646C12.99 10.2442 13.3575 10.4406 13.6459 10.7291C13.9344 11.0175 14.1308 11.385 14.2104 11.7851C14.29 12.1852 14.2491 12.5999 14.093 12.9768C13.9369 13.3537 13.6725 13.6758 13.3334 13.9024C12.9942 14.129 12.5954 14.25 12.1875 14.25C11.6405 14.25 11.1159 14.0327 10.7291 13.6459C10.3423 13.2591 10.125 12.7345 10.125 12.1875ZM14.25 23.875H10.125V19.75H14.25V23.875ZM23.875 21.8125C23.875 22.2204 23.754 22.6192 23.5274 22.9584C23.3008 23.2975 22.9787 23.5619 22.6018 23.718C22.2249 23.8741 21.8102 23.915 21.4101 23.8354C21.01 23.7558 20.6425 23.5594 20.3541 23.2709C20.0657 22.9825 19.8692 22.615 19.7896 22.2149C19.7101 21.8148 19.7509 21.4001 19.907 21.0232C20.0631 20.6463 20.3275 20.3242 20.6666 20.0976C21.0058 19.871 21.4046 19.75 21.8125 19.75C22.3595 19.75 22.8841 19.9673 23.2709 20.3541C23.6577 20.7409 23.875 21.2655 23.875 21.8125ZM19.75 10.125H23.875V14.25H19.75V10.125Z" fill="white"/>
</svg>
