<svg width="34" height="35" viewBox="0 0 34 35" fill="none" xmlns="http://www.w3.org/2000/svg">
<circle cx="17" cy="17.3582" r="17" fill="#9C59F2"/>
<path d="M13.2854 13.001H19.343C19.4846 13.7381 19.8788 14.3931 20.4492 14.839C21.0195 15.2848 21.7253 15.4898 22.4298 15.4142C23.1343 15.3386 23.7873 14.9878 24.2622 14.4297C24.7371 13.8717 25 13.1462 25 12.3939C25 11.6416 24.7371 10.9161 24.2622 10.358C23.7873 9.79998 23.1343 9.44915 22.4298 9.37353C21.7253 9.29792 21.0195 9.50292 20.4492 9.94879C19.8788 10.3947 19.4846 11.0496 19.343 11.7867H13.2854C12.4518 11.7867 11.6524 12.1385 11.0629 12.7648C10.4735 13.391 10.1424 14.2404 10.1424 15.126C10.1424 16.0116 10.4735 16.861 11.0629 17.4872C11.6524 18.1135 12.4518 18.4653 13.2854 18.4653H19.5716C20.1021 18.4653 20.6108 18.6892 20.9859 19.0877C21.361 19.4862 21.5718 20.0267 21.5718 20.5903C21.5718 21.1539 21.361 21.6944 20.9859 22.0929C20.6108 22.4914 20.1021 22.7153 19.5716 22.7153H14.657C14.5154 21.9782 14.1212 21.3232 13.5508 20.8774C12.9805 20.4315 12.2747 20.2265 11.5702 20.3021C10.8657 20.3777 10.2127 20.7285 9.73779 21.2866C9.26292 21.8446 9 22.5701 9 23.3224C9 24.0747 9.26292 24.8002 9.73779 25.3583C10.2127 25.9163 10.8657 26.2672 11.5702 26.3428C12.2747 26.4184 12.9805 26.2134 13.5508 25.7675C14.1212 25.3216 14.5154 24.6667 14.657 23.9296H19.5716C20.4052 23.9296 21.2047 23.5778 21.7941 22.9515C22.3836 22.3253 22.7147 21.4759 22.7147 20.5903C22.7147 19.7047 22.3836 18.8553 21.7941 18.2291C21.2047 17.6028 20.4052 17.251 19.5716 17.251H13.2854C12.755 17.251 12.2462 17.0271 11.8711 16.6286C11.496 16.2301 11.2853 15.6896 11.2853 15.126C11.2853 14.5624 11.496 14.0219 11.8711 13.6234C12.2462 13.2249 12.755 13.001 13.2854 13.001ZM22.1432 10.5724C22.4823 10.5724 22.8138 10.6793 23.0957 10.8794C23.3776 11.0796 23.5974 11.364 23.7271 11.6968C23.8569 12.0297 23.8909 12.3959 23.8247 12.7492C23.7585 13.1025 23.5953 13.4271 23.3555 13.6818C23.1157 13.9365 22.8103 14.11 22.4777 14.1803C22.1451 14.2506 21.8004 14.2145 21.4872 14.0767C21.1739 13.9388 20.9061 13.7053 20.7178 13.4058C20.5294 13.1063 20.4288 12.7541 20.4288 12.3939C20.4288 11.9108 20.6094 11.4475 20.931 11.1059C21.2525 10.7643 21.6885 10.5724 22.1432 10.5724ZM11.8568 25.1439C11.5177 25.1439 11.1862 25.037 10.9043 24.8369C10.6224 24.6368 10.4026 24.3523 10.2729 24.0195C10.1431 23.6866 10.1091 23.3204 10.1753 22.9671C10.2415 22.6138 10.4047 22.2892 10.6445 22.0345C10.8843 21.7798 11.1897 21.6063 11.5223 21.536C11.8549 21.4657 12.1996 21.5018 12.5128 21.6397C12.8261 21.7775 13.0939 22.011 13.2822 22.3105C13.4706 22.61 13.5712 22.9622 13.5712 23.3224C13.5712 23.8055 13.3906 24.2688 13.069 24.6104C12.7475 24.952 12.3115 25.1439 11.8568 25.1439Z" fill="white"/>
</svg>
