<svg width="34" height="35" viewBox="0 0 34 35" fill="none" xmlns="http://www.w3.org/2000/svg">
<circle cx="17" cy="17.3582" r="17" fill="#FF3E9B"/>
<path d="M18.9286 19.0724H20.1429V20.2867H18.9286V19.0724ZM23.7857 17.8582H25V19.0724H23.7857V17.8582ZM15.2857 11.7867H16.5V13.001H15.2857V11.7867ZM16.5 21.501H14.0714V17.8582C14.0711 17.5362 13.943 17.2276 13.7154 16.9999C13.4877 16.7723 13.1791 16.6442 12.8571 16.6439H9.21429C8.89235 16.6442 8.58371 16.7723 8.35606 16.9999C8.12842 17.2276 8.00037 17.5362 8 17.8582V21.501C8.00037 21.8229 8.12842 22.1316 8.35606 22.3592C8.58371 22.5869 8.89235 22.7149 9.21429 22.7153H12.8571V25.1439C12.8575 25.4658 12.9856 25.7744 13.2132 26.0021C13.4409 26.2297 13.7495 26.3578 14.0714 26.3582H16.5C16.8219 26.3578 17.1306 26.2297 17.3582 26.0021C17.5859 25.7744 17.7139 25.4658 17.7143 25.1439V22.7153C17.7139 22.3934 17.5859 22.0847 17.3582 21.8571C17.1306 21.6294 16.8219 21.5014 16.5 21.501ZM9.21429 21.501V17.8582H12.8571V21.501H9.21429ZM14.0714 25.1439V22.7153H16.5V25.1439H14.0714ZM23.7857 26.3582H21.3571C21.0352 26.3578 20.7265 26.2298 20.4989 26.0021C20.2712 25.7745 20.1432 25.4658 20.1429 25.1439V22.7153C20.1432 22.3934 20.2712 22.0847 20.4989 21.857C20.7265 21.6294 21.0352 21.5013 21.3571 21.501H23.7857C24.1077 21.5013 24.4163 21.6294 24.644 21.857C24.8716 22.0847 24.9997 22.3934 25 22.7153V25.1439C24.9997 25.4658 24.8716 25.7745 24.644 26.0021C24.4163 26.2298 24.1077 26.3578 23.7857 26.3582ZM21.3571 22.7153V25.1439H23.7857V22.7153H21.3571ZM23.7857 9.35815H20.1429C19.8209 9.35852 19.5123 9.48658 19.2846 9.71422C19.057 9.94186 18.9289 10.2505 18.9286 10.5724V14.2153H17.7143C17.3924 14.2157 17.0837 14.3437 16.8561 14.5714C16.6284 14.799 16.5004 15.1076 16.5 15.4296V16.6439C16.5004 16.9658 16.6284 17.2744 16.8561 17.5021C17.0837 17.7297 17.3924 17.8578 17.7143 17.8582H18.9286C19.2505 17.8578 19.5592 17.7297 19.7868 17.5021C20.0144 17.2744 20.1425 16.9658 20.1429 16.6439V15.4296H23.7857C24.1076 15.4292 24.4163 15.3012 24.6439 15.0735C24.8716 14.8459 24.9996 14.5372 25 14.2153V10.5724C24.9996 10.2505 24.8716 9.94186 24.6439 9.71422C24.4163 9.48658 24.1076 9.35852 23.7857 9.35815ZM17.7143 16.6439V15.4296H18.9286V16.6439H17.7143ZM20.1429 14.2153V10.5724H23.7857V14.2153H20.1429ZM11.6429 14.2153H9.21429C8.89234 14.215 8.58368 14.0869 8.35603 13.8593C8.12838 13.6316 8.00034 13.323 8 13.001V10.5724C8.00034 10.2505 8.12838 9.94183 8.35603 9.71418C8.58368 9.48653 8.89234 9.35849 9.21429 9.35815H11.6429C11.9648 9.35849 12.2735 9.48653 12.5011 9.71418C12.7288 9.94183 12.8568 10.2505 12.8571 10.5724V13.001C12.8568 13.323 12.7288 13.6316 12.5011 13.8593C12.2735 14.0869 11.9648 14.215 11.6429 14.2153ZM9.21429 10.5724V13.001H11.6429V10.5724H9.21429Z" fill="white"/>
</svg>
