<svg width="35" height="34" viewBox="0 0 35 34" fill="none" xmlns="http://www.w3.org/2000/svg">
<circle cx="17.2225" cy="17" r="17" fill="#448AFF"/>
<path d="M8.44339 12.4241C8.37339 12.3544 8.31785 12.2716 8.27995 12.1804C8.24205 12.0891 8.22253 11.9913 8.22253 11.8925C8.22253 11.7938 8.24205 11.6959 8.27995 11.6047C8.31785 11.5135 8.37339 11.4307 8.44339 11.361C8.51556 11.2907 10.2027 9.6416 13.4738 9.6416C15.2003 9.6416 16.4957 10.505 17.6392 11.2672C18.6983 11.9741 19.6993 12.6416 20.9722 12.6416C21.9999 12.6569 23.0176 12.438 23.9481 12.0013C24.309 11.8348 24.6444 11.6179 24.9444 11.3572C25.0144 11.2879 25.0972 11.2329 25.1884 11.1956C25.2795 11.1583 25.3771 11.1392 25.4756 11.1396C25.5741 11.14 25.6715 11.1598 25.7623 11.1979C25.8532 11.2359 25.9356 11.2915 26.005 11.3614C26.0744 11.4314 26.1293 11.5143 26.1666 11.6054C26.2039 11.6966 26.2229 11.7942 26.2225 11.8927C26.2221 11.9912 26.2024 12.0887 26.1643 12.1795C26.1263 12.2704 26.0707 12.3529 26.0008 12.4222C25.9305 12.4925 24.2433 14.1416 20.9722 14.1416C19.2457 14.1416 17.9504 13.2782 16.8069 12.516C15.7477 11.8091 14.7467 11.1416 13.4738 11.1416C12.4461 11.1263 11.4284 11.3452 10.4979 11.7819C10.1371 11.9484 9.80162 12.1653 9.5016 12.426C9.36082 12.5657 9.17043 12.644 8.97211 12.6436C8.77378 12.6432 8.58367 12.5643 8.44339 12.4241ZM24.9444 16.6072C24.6444 16.8679 24.309 17.0848 23.9481 17.2513C23.0176 17.688 21.9999 17.9069 20.9722 17.8916C19.6993 17.8916 18.6983 17.2241 17.6392 16.5172C16.4957 15.755 15.2003 14.8916 13.4738 14.8916C10.2027 14.8916 8.51556 16.5407 8.44527 16.611C8.30407 16.7511 8.2243 16.9416 8.22351 17.1405C8.22272 17.3394 8.30097 17.5305 8.44105 17.6718C8.58113 17.813 8.77156 17.8928 8.97045 17.8936C9.16934 17.8944 9.3604 17.8161 9.5016 17.676C9.80162 17.4153 10.1371 17.1984 10.4979 17.0319C11.4284 16.5952 12.4461 16.3763 13.4738 16.3916C14.7467 16.3916 15.7477 17.0591 16.8069 17.766C17.9504 18.5282 19.2438 19.3916 20.9722 19.3916C24.2433 19.3916 25.9305 17.7425 26.0008 17.6722C26.0707 17.6029 26.1263 17.5204 26.1643 17.4295C26.2024 17.3387 26.2221 17.2412 26.2225 17.1427C26.2229 17.0442 26.2039 16.9466 26.1666 16.8554C26.1293 16.7643 26.0744 16.6814 26.005 16.6114C25.9356 16.5415 25.8532 16.4859 25.7623 16.4479C25.6715 16.4098 25.5741 16.39 25.4756 16.3896C25.3771 16.3892 25.2795 16.4083 25.1884 16.4456C25.0972 16.4829 25.0144 16.5379 24.9444 16.6072ZM24.9444 21.8572C24.6444 22.1179 24.309 22.3348 23.9481 22.5013C23.0176 22.938 21.9999 23.1569 20.9722 23.1416C19.6993 23.1416 18.6983 22.4741 17.6392 21.7672C16.4957 21.005 15.2003 20.1416 13.4738 20.1416C10.2027 20.1416 8.51556 21.7907 8.44527 21.861C8.30407 22.0011 8.2243 22.1916 8.22351 22.3905C8.22272 22.5894 8.30097 22.7805 8.44105 22.9218C8.58113 23.063 8.77156 23.1428 8.97045 23.1436C9.16934 23.1444 9.3604 23.0661 9.5016 22.926C9.80162 22.6653 10.1371 22.4484 10.4979 22.2819C11.4284 21.8452 12.4461 21.6263 13.4738 21.6416C14.7467 21.6416 15.7477 22.3091 16.8069 23.016C17.9504 23.7782 19.2438 24.6416 20.9722 24.6416C24.2433 24.6416 25.9305 22.9925 26.0008 22.9222C26.142 22.7821 26.2217 22.5916 26.2225 22.3927C26.2233 22.1938 26.1451 22.0027 26.005 21.8614C25.8649 21.7202 25.6745 21.6404 25.4756 21.6396C25.2767 21.6388 25.0856 21.7171 24.9444 21.8572Z" fill="white"/>
</svg>
