<svg version="1.1" xmlns="http://www.w3.org/2000/svg" xmlns:xlink="http://www.w3.org/1999/xlink" x="0px" y="0px"
	 viewBox="0 0 11.7 5.8" style="enable-background:new 0 0 11.7 5.8;" xml:space="preserve">
<path d="M10.6,2c0.4-0.3,0.7-0.7,1-1c0.2-0.3,0.2-0.6-0.1-0.8c-0.3-0.2-0.6-0.2-0.8,0.1C9.8,1.3,8.2,2.6,5.9,2.6
	c-2.4,0-3.9-1.3-4.8-2.4C0.9,0,0.5-0.1,0.2,0.1C0,0.3-0.1,0.7,0.1,1c0.3,0.3,0.6,0.7,0.9,1l-1,1.7C-0.1,4,0,4.4,0.3,4.5
	c0.1,0.1,0.2,0.1,0.3,0.1c0.2,0,0.4-0.1,0.5-0.3l0.9-1.6c0.5,0.3,1,0.6,1.7,0.8L3.4,5.1C3.4,5.5,3.6,5.8,3.9,5.8c0,0,0.1,0,0.1,0
	c0.3,0,0.5-0.2,0.6-0.5l0.3-1.6c0.3,0,0.6,0.1,1,0.1c0.3,0,0.6,0,0.9-0.1l0.3,1.6c0.1,0.3,0.3,0.5,0.6,0.5c0,0,0.1,0,0.1,0
	c0.3-0.1,0.5-0.4,0.5-0.7L8,3.5C8.6,3.3,9.2,3,9.7,2.7l0.9,1.6c0.1,0.2,0.3,0.3,0.5,0.3c0.1,0,0.2,0,0.3-0.1
	c0.3-0.2,0.4-0.5,0.2-0.8L10.6,2z"/>
</svg>
