<?xml version="1.0" encoding="utf-8"?>
<svg version="1.1" xmlns="http://www.w3.org/2000/svg" xmlns:xlink="http://www.w3.org/1999/xlink" x="0px" y="0px"
	 viewBox="0 0 30 30" style="enable-background:new 0 0 30 30;" xml:space="preserve">
<g>
	<path d="M29.9,14.5c-0.1-0.2-1.1-2.4-3.5-4.8C23.3,6.7,19.4,5,15,5S6.7,6.7,3.6,9.8c-2.4,2.4-3.4,4.6-3.5,4.8
		c-0.1,0.2-0.1,0.6,0,0.8c0.1,0.2,1.1,2.4,3.5,4.8c3.2,3.1,7.1,4.8,11.4,4.8s8.3-1.7,11.4-4.8c2.4-2.4,3.4-4.6,3.5-4.8
		C30,15.1,30,14.7,29.9,14.5z M24.9,18.7c-2.8,2.8-6.2,4.2-9.9,4.2s-7.2-1.4-9.9-4.2C4,17.6,3,16.3,2.2,14.9
		c0.8-1.4,1.7-2.7,2.9-3.8C7.8,8.4,11.2,7,15,7s7.2,1.4,9.9,4.2c1.2,1.1,2.1,2.4,2.9,3.8C27,16.3,26,17.6,24.9,18.7z"/>
	<path d="M15,9c-3.3,0-6,2.7-6,6s2.7,6,6,6s6-2.7,6-6S18.3,9,15,9z M15,18.9c-2.2,0-4-1.8-4-4s1.8-4,4-4s4,1.8,4,4
		S17.2,18.9,15,18.9z"/>
</g>
</svg>
