<?xml version="1.0" encoding="utf-8"?>
<svg version="1.1"
	xmlns="http://www.w3.org/2000/svg"
	xmlns:xlink="http://www.w3.org/1999/xlink" x="0px" y="0px" viewBox="0 0 16 16" style="enable-background:new 0 0 16 16;" xml:space="preserve">
	<path d="M13.2,5.1L9.8,1.6c0-0.1-0.2-0.1-0.3-0.1h-6c-0.5,0-1,0.4-1,1v10.9c0,0.6,0.4,1,1,1h8.9c0.6,0,1-0.4,1-1v-8
	C13.4,5.3,13.4,5.2,13.2,5.1z M9.9,3.2l1.8,1.8H9.9V3.2L9.9,3.2z M12.4,13.4H3.5V2.5h5.5v3C8.9,5.7,9.2,6,9.5,6h3V13.4z M10.5,8.4
	c0,0.3-0.2,0.5-0.5,0.5H6c-0.3,0-0.5-0.2-0.5-0.5c0-0.3,0.2-0.5,0.5-0.5h4C10.2,7.9,10.5,8.2,10.5,8.4z M10.5,10.4
	c0,0.3-0.2,0.5-0.5,0.5H6c-0.3,0-0.5-0.2-0.5-0.5S5.7,9.9,6,9.9h4C10.2,9.9,10.5,10.1,10.5,10.4z"/>
</svg>
