<?xml version="1.0" encoding="utf-8"?>
<svg version="1.1" xmlns="http://www.w3.org/2000/svg" xmlns:xlink="http://www.w3.org/1999/xlink" x="0px" y="0px"
	 viewBox="0 0 30 30" style="enable-background:new 0 0 30 30;" xml:space="preserve">
<path d="M27.4,8.4l-8.1-8.1C19.1,0.1,18.8,0,18.5,0H4.6C3.3,0,2.3,1,2.3,2.3v25.4c0,1.3,1,2.3,2.3,2.3h20.8
	c1.3,0,2.3-1,2.3-2.3V9.2C27.7,8.9,27.6,8.6,27.4,8.4z M19.6,3.9l4.1,4.1h-4.1V3.9L19.6,3.9z M25.4,27.7H4.6V2.3h12.7v6.9
	c0,0.6,0.5,1.2,1.2,1.2h6.9V27.7z M19.3,18.8c0.5,0.5,0.5,1.2,0,1.6l-3.5,3.5c-0.5,0.5-1.2,0.5-1.6,0l-3.5-3.5
	c-0.5-0.5-0.5-1.2,0-1.6c0.5-0.5,1.2-0.5,1.6,0l0,0l1.5,1.5v-6.4c0-0.6,0.5-1.2,1.2-1.2c0.6,0,1.2,0.5,1.2,1.2v6.4l1.5-1.5
	C18.1,18.3,18.8,18.3,19.3,18.8L19.3,18.8z"/>
</svg>
