<?xml version="1.0" encoding="utf-8"?>
<svg version="1.1" id="Layer_1" xmlns="http://www.w3.org/2000/svg" xmlns:xlink="http://www.w3.org/1999/xlink"
	 viewBox="0 0 80 80" style="enable-background:new 0 0 80 80;" xml:space="preserve">
<path d="M49.2,8.2c0,0-0.5-0.4-0.8-0.5c-0.3-0.2-0.6-0.2-1-0.2H17.5C16.2,7.5,14.9,8,14,9c-0.9,0.9-1.5,2.2-1.5,3.5
	v54.9c0,1.3,0.5,2.6,1.5,3.5c0.9,0.9,2.2,1.5,3.5,1.5h45c1.3,0,2.6-0.5,3.5-1.5s1.5-2.2,1.5-3.5v-40c0-0.3-0.1-0.6-0.2-1
	c-0.1-0.3-0.3-0.6-0.5-0.8L49.2,8.2z M50,16l9,9h-9C50,25,50,16,50,16z M62.5,67.5h-45V12.5H45v15c0,0.7,0.3,1.3,0.7,1.8
	c0.5,0.5,1.1,0.7,1.8,0.7h14.9L62.5,67.5L62.5,67.5z M50,47.5c0,0.7-0.3,1.3-0.7,1.8c-0.5,0.5-1.1,0.7-1.8,0.7h-5v5
	c0,0.7-0.3,1.3-0.7,1.8c-0.5,0.5-1.1,0.7-1.8,0.7s-1.3-0.3-1.8-0.7c-0.5-0.5-0.7-1.1-0.7-1.8v-5h-5c-0.7,0-1.3-0.3-1.8-0.7
	c-0.5-0.5-0.7-1.1-0.7-1.8s0.3-1.3,0.7-1.8c0.5-0.5,1.1-0.7,1.8-0.7h5v-5c0-0.7,0.3-1.3,0.7-1.8c0.5-0.5,1.1-0.7,1.8-0.7
	s1.3,0.3,1.8,0.7c0.5,0.5,0.7,1.1,0.7,1.8v5h5c0.7,0,1.3,0.3,1.8,0.7C49.7,46.2,50,46.8,50,47.5z"/>
</svg>
