<svg id="Layer_1" data-name="Layer 1" xmlns="http://www.w3.org/2000/svg" viewBox="0 0 9.62 11.38">
  <path d="M9.5,3.19L6.43,.13s-.09-.07-.14-.09C6.24,.01,6.18,0,6.12,0H.88C.64,0,.42,.09,.26,.26c-.16,.16-.26,.39-.26,.62V10.5c0,.23,.09,.45,.26,.62,.16,.16,.39,.26,.62,.26h7.88c.23,0,.45-.09,.62-.26s.26-.39,.26-.62V3.5c0-.06-.01-.11-.03-.17-.02-.05-.05-.1-.09-.14Zm-2.93-1.7l1.57,1.57h-1.57V1.49Zm2.19,9.01H.88V.88H5.69V3.5c0,.12,.05,.23,.13,.31,.08,.08,.19,.13,.31,.13h2.62v6.56Zm-2.19-3.5c0,.12-.05,.23-.13,.31-.08,.08-.19,.13-.31,.13h-.88v.88c0,.12-.05,.23-.13,.31-.08,.08-.19,.13-.31,.13s-.23-.05-.31-.13c-.08-.08-.13-.19-.13-.31v-.88h-.88c-.12,0-.23-.05-.31-.13-.08-.08-.13-.19-.13-.31s.05-.23,.13-.31c.08-.08,.19-.13,.31-.13h.88v-.88c0-.12,.05-.23,.13-.31s.19-.13,.31-.13,.23,.05,.31,.13,.13,.19,.13,.31v.88h.88c.12,0,.23,.05,.31,.13,.08,.08,.13,.19,.13,.31Z" />
</svg>
