<?xml version="1.0" encoding="utf-8"?>
<svg version="1.1" xmlns="http://www.w3.org/2000/svg" xmlns:xlink="http://www.w3.org/1999/xlink" x="0px" y="0px"
	 viewBox="0 0 30 30" style="enable-background:new 0 0 30 30;" xml:space="preserve">
<path d="M1,2.7C0.7,2.9,0.6,3.3,0.6,3.6v25.2c0,0.7,0.5,1.2,1.2,1.2S3,29.5,3,28.8v-6.6c4-3.2,7.5-1.5,11.5,0.5
	c2.5,1.2,5.1,2.5,8,2.5c2.1,0,4.3-0.7,6.6-2.7c0.3-0.2,0.4-0.6,0.4-0.9v-18c0-0.7-0.5-1.2-1.2-1.2c-0.3,0-0.6,0.1-0.8,0.3
	c-4.2,3.6-7.8,1.9-11.9-0.2C11.3,0.4,6.4-2,1,2.7z M27,21c-4,3.2-7.5,1.5-11.5-0.5c-3.8-1.9-7.9-3.9-12.5-1.3V4.2
	C7,1,10.5,2.7,14.5,4.7c3.8,1.9,7.9,3.9,12.5,1.3V21L27,21z"/>
</svg>
