<?xml version="1.0" encoding="utf-8"?>
<svg version="1.1" xmlns="http://www.w3.org/2000/svg" xmlns:xlink="http://www.w3.org/1999/xlink" x="0px" y="0px"
	 viewBox="0 0 30 30" style="enable-background:new 0 0 30 30;" xml:space="preserve">
<path d="M27.8,6.1h-9.6l-3.9-2.9c-0.4-0.3-0.9-0.4-1.3-0.4H6.7c-1.2,0-2.2,1-2.2,2.2v2.2H2.2C1,7.2,0,8.2,0,9.4V25
	c0,1.2,1,2.2,2.2,2.2h21.2c1.2,0,2.1-0.9,2.1-2.1v-2.3h2.3c1.2,0,2.1-0.9,2.1-2.1V8.3C30,7.1,29,6.1,27.8,6.1z M23.3,25H2.2V9.4h6.3
	l3.9,2.9c0.4,0.3,0.9,0.4,1.3,0.4h9.6V25z M27.8,20.6h-2.2v-7.8c0-1.2-1-2.2-2.2-2.2h-9.6L9.9,7.7C9.5,7.4,9,7.2,8.5,7.2H6.7V5H13
	l3.9,2.9c0.4,0.3,0.9,0.4,1.3,0.4h9.6V20.6z"/>
</svg>
