<svg width="12" height="11" viewBox="0 0 12 11" fill="none" xmlns="http://www.w3.org/2000/svg">
<path d="M11.6875 3.1709V4.0459C11.6875 4.16193 11.6414 4.27321 11.5594 4.35526C11.4773 4.4373 11.366 4.4834 11.25 4.4834C11.134 4.4834 11.0227 4.4373 10.9406 4.35526C10.8586 4.27321 10.8125 4.16193 10.8125 4.0459V3.1709H6.14602C5.95677 3.17043 5.7727 3.10907 5.62102 2.9959L4.10398 1.8584H1.1875V9.2959H5.125C5.24103 9.2959 5.35231 9.34199 5.43436 9.42404C5.51641 9.50609 5.5625 9.61737 5.5625 9.7334C5.5625 9.84943 5.51641 9.96071 5.43436 10.0428C5.35231 10.1248 5.24103 10.1709 5.125 10.1709H1.1875C0.955436 10.1709 0.732876 10.0787 0.568782 9.91462C0.404687 9.75052 0.3125 9.52796 0.3125 9.2959V1.8584C0.3125 1.62633 0.404687 1.40377 0.568782 1.23968C0.732876 1.07559 0.955436 0.983398 1.1875 0.983398H4.10398C4.29323 0.983868 4.4773 1.04523 4.62898 1.1584L6.14602 2.2959H10.8125C11.0446 2.2959 11.2671 2.38809 11.4312 2.55218C11.5953 2.71627 11.6875 2.93883 11.6875 3.1709ZM11.6875 7.5459V9.7334C11.6875 9.84943 11.6414 9.96071 11.5594 10.0428C11.4773 10.1248 11.366 10.1709 11.25 10.1709H7.3125C7.19647 10.1709 7.08519 10.1248 7.00314 10.0428C6.92109 9.96071 6.875 9.84943 6.875 9.7334V7.5459C6.875 7.42987 6.92109 7.31859 7.00314 7.23654C7.08519 7.15449 7.19647 7.1084 7.3125 7.1084H7.75V6.88965C7.75 6.48354 7.91133 6.09406 8.19849 5.80689C8.48566 5.51973 8.87514 5.3584 9.28125 5.3584C9.68736 5.3584 10.0768 5.51973 10.364 5.80689C10.6512 6.09406 10.8125 6.48354 10.8125 6.88965V7.1084H11.25C11.366 7.1084 11.4773 7.15449 11.5594 7.23654C11.6414 7.31859 11.6875 7.42987 11.6875 7.5459ZM8.625 7.1084H9.9375V6.88965C9.9375 6.7156 9.86836 6.54868 9.74529 6.42561C9.62222 6.30254 9.4553 6.2334 9.28125 6.2334C9.1072 6.2334 8.94028 6.30254 8.81721 6.42561C8.69414 6.54868 8.625 6.7156 8.625 6.88965V7.1084ZM10.8125 7.9834H7.75V9.2959H10.8125V7.9834Z" fill="#101828"/>
</svg>
