<?xml version="1.0" encoding="UTF-8"?>
<svg id="Layer_1" data-name="Layer 1" xmlns="http://www.w3.org/2000/svg" viewBox="0 0 19.2 17.33">
  <path d="M15.23,14.48c1.24,0,2.25-1.01,2.25-2.25s-1.01-2.25-2.25-2.25-2.25,1.01-2.25,2.25,1.01,2.25,2.25,2.25Z" style="fill: none; stroke: #101828; stroke-linecap: round; stroke-linejoin: round; stroke-width: 1.2px;"/>
  <path d="M12.32,16.73c.17-.65,.54-1.22,1.07-1.63,.53-.41,1.17-.63,1.84-.63s1.31,.22,1.84,.63c.53,.41,.9,.98,1.07,1.63" style="fill: none; stroke: #101828; stroke-linecap: round; stroke-linejoin: round; stroke-width: 1.2px;"/>
  <path d="M.6,3.6V1.35c0-.2,.08-.39,.22-.53,.14-.14,.33-.22,.53-.22H6.29c.1,0,.19,.02,.28,.06,.09,.04,.17,.09,.24,.16l2.78,2.78" style="fill: none; stroke: #101828; stroke-linecap: round; stroke-linejoin: round; stroke-width: 1.2px;"/>
  <path d="M8.91,15.6H1.29c-.09,0-.18-.02-.27-.05-.08-.03-.16-.09-.23-.15-.06-.06-.12-.14-.15-.23-.03-.08-.05-.17-.05-.27V3.6H17.85c.2,0,.39,.08,.53,.22,.14,.14,.22,.33,.22,.53v3" style="fill: none; stroke: #101828; stroke-linecap: round; stroke-linejoin: round; stroke-width: 1.2px;"/>
</svg>
