<?xml version="1.0" encoding="utf-8"?>
<svg version="1.1" xmlns="http://www.w3.org/2000/svg" xmlns:xlink="http://www.w3.org/1999/xlink" x="0px" y="0px"
	 viewBox="0 0 30 30" style="enable-background:new 0 0 30 30;" xml:space="preserve">
<path d="M18.2,20.4h-6.4c-0.6,0-1.1,0.5-1.1,1.1s0.5,1.1,1.1,1.1h6.4c0.6,0,1.1-0.5,1.1-1.1C19.3,20.9,18.8,20.4,18.2,20.4z"/>
<path d="M23.5,14H6.4c-0.6,0-1.1,0.5-1.1,1.1s0.5,1.1,1.1,1.1h17.1c0.6,0,1.1-0.5,1.1-1.1C24.6,14.5,24.1,14,23.5,14z"/>
<path d="M28.9,7.6H1.1C0.5,7.6,0,8.1,0,8.7s0.5,1.1,1.1,1.1h27.8c0.6,0,1.1-0.5,1.1-1.1C30,8.1,29.5,7.6,28.9,7.6z"/>
</svg>
