<?xml version="1.0" encoding="utf-8"?>
<svg version="1.1" id="Layer_1" xmlns="http://www.w3.org/2000/svg" xmlns:xlink="http://www.w3.org/1999/xlink"
	 viewBox="0 0 80 80" style="enable-background:new 0 0 80 80;" xml:space="preserve">
<path d="M40,25c-3,0-5.9,0.9-8.3,2.5c-2.5,1.6-4.4,4-5.5,6.7C25,37,24.7,40,25.3,42.9c0.6,2.9,2,5.6,4.1,7.7
	c2.1,2.1,4.8,3.5,7.7,4.1c2.9,0.6,5.9,0.3,8.7-0.9c2.7-1.1,5.1-3.1,6.7-5.5C54.1,45.9,55,43,55,40c0-4-1.6-7.8-4.4-10.6
	C47.8,26.6,44,25,40,25z M40,50c-2,0-3.9-0.6-5.6-1.7c-1.6-1.1-2.9-2.7-3.7-4.5C30,42,29.8,40,30.2,38c0.4-1.9,1.3-3.7,2.7-5.1
	c1.4-1.4,3.2-2.4,5.1-2.7c1.9-0.4,4-0.2,5.8,0.6c1.8,0.8,3.4,2,4.5,3.7C49.4,36.1,50,38,50,40c0,2.7-1.1,5.2-2.9,7.1
	C45.2,48.9,42.7,50,40,50z M74.4,33.5c-0.1-0.4-0.2-0.7-0.4-1c-0.2-0.3-0.5-0.5-0.8-0.7l-9.3-5.3l0-10.5c0-0.4-0.1-0.7-0.2-1
	c-0.2-0.3-0.4-0.6-0.7-0.9c-3.4-2.9-7.3-5.1-11.5-6.5c-0.3-0.1-0.7-0.2-1-0.1c-0.3,0-0.7,0.1-1,0.3L40,13.1l-9.4-5.3
	c-0.3-0.2-0.6-0.3-1-0.3c-0.3,0-0.7,0-1,0.1c-4.2,1.4-8.1,3.6-11.5,6.5c-0.3,0.2-0.5,0.5-0.7,0.9c-0.2,0.3-0.2,0.7-0.2,1l0,10.5
	l-9.3,5.3c-0.3,0.2-0.6,0.4-0.8,0.7c-0.2,0.3-0.4,0.6-0.4,1c-0.9,4.3-0.9,8.7,0,13c0.1,0.4,0.2,0.7,0.4,1c0.2,0.3,0.5,0.5,0.8,0.7
	l9.3,5.3l0,10.5c0,0.4,0.1,0.7,0.2,1c0.2,0.3,0.4,0.6,0.7,0.9c3.4,2.9,7.3,5.1,11.5,6.5c0.3,0.1,0.7,0.2,1,0.1c0.3,0,0.7-0.1,1-0.3
	l9.4-5.3l9.4,5.3c0.4,0.2,0.8,0.3,1.2,0.3c0.3,0,0.5,0,0.8-0.1c4.2-1.4,8.1-3.6,11.5-6.5c0.3-0.2,0.5-0.5,0.7-0.9
	c0.2-0.3,0.2-0.7,0.2-1l0-10.5l9.3-5.3c0.3-0.2,0.6-0.4,0.8-0.7c0.2-0.3,0.4-0.6,0.4-1C75.2,42.2,75.2,37.8,74.4,33.5z M69.7,44.4
	l-8.9,5.1c-0.4,0.2-0.7,0.5-0.9,0.9c-0.2,0.3-0.4,0.6-0.6,1c-0.2,0.4-0.4,0.8-0.4,1.3l0,10.1c-2.4,1.9-5.1,3.4-7.9,4.5l-9-5
	c-0.4-0.2-0.8-0.3-1.2-0.3h-0.1c-0.4,0-0.8,0-1.1,0c-0.4,0-0.9,0.1-1.3,0.3l-9,5c-2.9-1.1-5.5-2.6-7.9-4.4l0-10.1
	c0-0.5-0.1-0.9-0.4-1.3c-0.2-0.3-0.4-0.6-0.6-1c-0.2-0.4-0.5-0.7-0.9-1l-8.9-5.1c-0.5-2.9-0.5-5.9,0-8.8l8.9-5.1
	c0.4-0.2,0.7-0.5,0.9-0.9c0.2-0.3,0.4-0.6,0.6-1c0.2-0.4,0.4-0.8,0.4-1.3l0-10.1c2.4-1.9,5.1-3.4,7.9-4.5l9,5
	c0.4,0.2,0.8,0.3,1.3,0.3c0.4,0,0.8,0,1.1,0c0.4,0,0.9-0.1,1.3-0.3l9-5c2.9,1.1,5.5,2.6,7.9,4.4l0,10.1c0,0.5,0.1,0.9,0.4,1.3
	c0.2,0.3,0.4,0.6,0.6,1c0.2,0.4,0.5,0.7,0.9,1l8.9,5.1C70.1,38.5,70.1,41.5,69.7,44.4L69.7,44.4z"/>
</svg>
