<svg width="12" height="12" viewBox="0 0 12 12" xmlns="http://www.w3.org/2000/svg">
  <path
    d="M5.9999 3.3749C5.48073 3.3749 4.97321 3.52886 4.54153 3.8173C4.10985 4.10573 3.7734 4.5157 3.57472 4.99536C3.37604 5.47502 3.32406 6.00281 3.42534 6.51201C3.52663 7.02121 3.77663 7.48895 4.14375 7.85606C4.51086 8.22317 4.97859 8.47318 5.48779 8.57446C5.99699 8.67575 6.52479 8.62377 7.00445 8.42509C7.4841 8.22641 7.89407 7.88995 8.18251 7.45827C8.47095 7.0266 8.6249 6.51908 8.6249 5.9999C8.62418 5.30393 8.34739 4.63667 7.85526 4.14455C7.36313 3.65242 6.69587 3.37563 5.9999 3.3749ZM5.9999 7.7499C5.65379 7.7499 5.31544 7.64727 5.02766 7.45497C4.73987 7.26268 4.51557 6.98937 4.38311 6.6696C4.25066 6.34983 4.216 5.99796 4.28353 5.65849C4.35105 5.31903 4.51772 5.00721 4.76247 4.76247C5.00721 4.51772 5.31903 4.35105 5.65849 4.28353C5.99796 4.216 6.34983 4.25066 6.6696 4.38311C6.98937 4.51557 7.26268 4.73987 7.45497 5.02766C7.64727 5.31544 7.7499 5.65379 7.7499 5.9999C7.7499 6.46403 7.56553 6.90915 7.23734 7.23734C6.90915 7.56553 6.46403 7.7499 5.9999 7.7499ZM10.8124 6.11803C10.8146 6.03928 10.8146 5.96053 10.8124 5.88178L11.6283 4.8624C11.6711 4.80888 11.7007 4.74606 11.7148 4.679C11.7289 4.61193 11.727 4.54251 11.7093 4.47631C11.5755 3.97351 11.3754 3.49076 11.1143 3.04076C11.0801 2.98187 11.0326 2.93178 10.9757 2.89447C10.9187 2.85716 10.8538 2.83366 10.7862 2.82584L9.48897 2.68147C9.43501 2.62459 9.38032 2.5699 9.3249 2.5174L9.17178 1.21693C9.1639 1.14924 9.14032 1.08432 9.10291 1.02735C9.0655 0.970381 9.0153 0.92294 8.95631 0.888809C8.50614 0.628139 8.02343 0.42825 7.52076 0.294356C7.45452 0.276745 7.38507 0.274944 7.31801 0.289097C7.25094 0.303251 7.18814 0.332964 7.13467 0.37584L6.11803 1.1874C6.03928 1.1874 5.96053 1.1874 5.88178 1.1874L4.8624 0.373106C4.80888 0.330323 4.74606 0.30071 4.679 0.286651C4.61193 0.272593 4.54251 0.274483 4.47631 0.292168C3.97359 0.426168 3.49087 0.626245 3.04076 0.887168C2.98187 0.921362 2.93178 0.968831 2.89447 1.0258C2.85716 1.08276 2.83366 1.14765 2.82584 1.21529L2.68147 2.51467C2.62459 2.56899 2.5699 2.62368 2.5174 2.67873L1.21693 2.82803C1.14924 2.8359 1.08432 2.85949 1.02735 2.8969C0.970381 2.9343 0.92294 2.98451 0.888809 3.0435C0.628139 3.49366 0.42825 3.97638 0.294356 4.47904C0.276745 4.54528 0.274944 4.61473 0.289097 4.6818C0.303251 4.74886 0.332964 4.81166 0.37584 4.86514L1.1874 5.88178C1.1874 5.96053 1.1874 6.03928 1.1874 6.11803L0.373106 7.1374C0.330323 7.19093 0.30071 7.25375 0.286651 7.32081C0.272593 7.38787 0.274483 7.4573 0.292168 7.5235C0.425928 8.02629 0.626019 8.50905 0.887168 8.95904C0.921362 9.01793 0.968831 9.06803 1.0258 9.10534C1.08276 9.14265 1.14765 9.16615 1.21529 9.17397L2.51248 9.31834C2.5668 9.37522 2.62149 9.4299 2.67654 9.4824L2.82803 10.7829C2.8359 10.8506 2.85949 10.9155 2.8969 10.9725C2.9343 11.0294 2.98451 11.0769 3.0435 11.111C3.49366 11.3717 3.97638 11.5716 4.47904 11.7055C4.54528 11.7231 4.61473 11.7249 4.6818 11.7107C4.74886 11.6966 4.81166 11.6668 4.86514 11.624L5.88178 10.8124C5.96053 10.8146 6.03928 10.8146 6.11803 10.8124L7.1374 11.6283C7.19093 11.6711 7.25375 11.7007 7.32081 11.7148C7.38787 11.7289 7.4573 11.727 7.5235 11.7093C8.02629 11.5755 8.50905 11.3754 8.95904 11.1143C9.01793 11.0801 9.06803 11.0326 9.10534 10.9757C9.14265 10.9187 9.16615 10.8538 9.17397 10.7862L9.31834 9.48897C9.37522 9.43501 9.4299 9.38032 9.4824 9.3249L10.7829 9.17178C10.8506 9.1639 10.9155 9.14032 10.9725 9.10291C11.0294 9.0655 11.0769 9.0153 11.111 8.95631C11.3717 8.50614 11.5716 8.02343 11.7055 7.52076C11.7231 7.45452 11.7249 7.38507 11.7107 7.31801C11.6966 7.25094 11.6668 7.18814 11.624 7.13467L10.8124 6.11803ZM9.93193 5.76256C9.94123 5.92065 9.94123 6.07915 9.93193 6.23725C9.92542 6.34548 9.95933 6.45228 10.0271 6.53693L10.8031 7.50654C10.7141 7.78953 10.6 8.06405 10.4624 8.32686L9.22647 8.46686C9.11883 8.4788 9.01945 8.53025 8.94756 8.61123C8.84229 8.72962 8.73017 8.84174 8.61178 8.94701C8.53079 9.01891 8.47935 9.11829 8.4674 9.22592L8.33014 10.4608C8.06736 10.5985 7.79284 10.7125 7.50982 10.8015L6.53967 10.0254C6.46204 9.96342 6.3656 9.92967 6.26623 9.92975H6.23998C6.08189 9.93904 5.92339 9.93904 5.76529 9.92975C5.65706 9.92323 5.55026 9.95714 5.46561 10.0249L4.49326 10.8015C4.21027 10.7124 3.93576 10.5984 3.67295 10.4608L3.53295 9.22647C3.521 9.11883 3.46956 9.01945 3.38857 8.94756C3.27018 8.84229 3.15806 8.73017 3.05279 8.61178C2.9809 8.53079 2.88152 8.47935 2.77389 8.4674L1.53904 8.32959C1.40134 8.06682 1.28732 7.79229 1.19834 7.50928L1.97436 6.53912C2.04212 6.45447 2.07603 6.34767 2.06951 6.23943C2.06022 6.08134 2.06022 5.92284 2.06951 5.76475C2.07603 5.65651 2.04212 5.54971 1.97436 5.46506L1.19834 4.49326C1.28739 4.21027 1.4014 3.93576 1.53904 3.67295L2.77334 3.53295C2.88097 3.521 2.98035 3.46956 3.05225 3.38857C3.15751 3.27018 3.26963 3.15806 3.38803 3.05279C3.46934 2.98085 3.52099 2.88125 3.53295 2.77334L3.67022 1.53904C3.93299 1.40134 4.20751 1.28732 4.49053 1.19834L5.46068 1.97436C5.54534 2.04212 5.65214 2.07603 5.76037 2.06951C5.91846 2.06022 6.07697 2.06022 6.23506 2.06951C6.3433 2.07603 6.45009 2.04212 6.53475 1.97436L7.50654 1.19834C7.78953 1.28739 8.06405 1.4014 8.32686 1.53904L8.46686 2.77334C8.4788 2.88097 8.53025 2.98035 8.61123 3.05225C8.72962 3.15751 8.84174 3.26963 8.94701 3.38803C9.01891 3.46901 9.11829 3.52046 9.22592 3.5324L10.4608 3.66967C10.5985 3.93244 10.7125 4.20697 10.8015 4.48998L10.0254 5.46014C9.95704 5.5455 9.92309 5.6534 9.93029 5.76256H9.93193Z" />
</svg>
