<svg width="23" height="22" viewBox="0 0 23 22" xmlns="http://www.w3.org/2000/svg">
  <path d="M11.1112 6.87506C10.2954 6.87506 9.49787 7.11699 8.81952 7.57025C8.14117 8.02351 7.61246 8.66775 7.30024 9.4215C6.98803 10.1752 6.90634 11.0046 7.06551 11.8048C7.22467 12.605 7.61754 13.34 8.19443 13.9169C8.77132 14.4938 9.50633 14.8866 10.3065 15.0458C11.1067 15.205 11.9361 15.1233 12.6898 14.8111C13.4436 14.4989 14.0878 13.9701 14.5411 13.2918C14.9943 12.6134 15.2362 11.8159 15.2362 11.0001C15.2351 9.9064 14.8001 8.85785 14.0268 8.08451C13.2535 7.31116 12.2049 6.8762 11.1112 6.87506ZM11.1112 13.7501C10.5673 13.7501 10.0357 13.5888 9.58343 13.2866C9.13119 12.9844 8.77872 12.5549 8.57058 12.0524C8.36244 11.5499 8.30798 10.997 8.41409 10.4636C8.5202 9.93012 8.78211 9.44012 9.1667 9.05552C9.5513 8.67093 10.0413 8.40901 10.5747 8.30291C11.1082 8.1968 11.6611 8.25126 12.1636 8.4594C12.6661 8.66754 13.0956 9.02001 13.3978 9.47225C13.7 9.92448 13.8612 10.4562 13.8612 11.0001C13.8612 11.7294 13.5715 12.4289 13.0558 12.9446C12.5401 13.4603 11.8406 13.7501 11.1112 13.7501ZM20.5592 9.21342C20.5401 9.11661 20.5003 9.02506 20.4426 8.94498C20.3849 8.86491 20.3107 8.79819 20.2249 8.74936L17.6614 7.28842L17.6511 4.39921C17.6508 4.2997 17.6289 4.20145 17.5869 4.11124C17.5449 4.02103 17.4838 3.94101 17.4079 3.87671C16.478 3.09012 15.4071 2.48732 14.2523 2.10038C14.1613 2.06959 14.0649 2.0582 13.9693 2.06694C13.8737 2.07567 13.781 2.10433 13.6971 2.15108L11.1112 3.59655L8.52281 2.1485C8.43889 2.10149 8.34605 2.07261 8.25027 2.06373C8.1545 2.05485 8.05792 2.06616 7.96679 2.09694C6.81278 2.48672 5.74315 3.09181 4.81461 3.88014C4.73878 3.94435 4.67778 4.02424 4.63579 4.11429C4.59381 4.20434 4.57184 4.30243 4.5714 4.40178L4.55851 7.29358L1.995 8.75452C1.90923 8.80334 1.83499 8.87006 1.7773 8.95014C1.71962 9.03021 1.67985 9.12177 1.6607 9.21858C1.42609 10.3975 1.42609 11.6112 1.6607 12.7901C1.67985 12.887 1.71962 12.9785 1.7773 13.0586C1.83499 13.1387 1.90923 13.2054 1.995 13.2542L4.55851 14.7151L4.56883 17.6044C4.56914 17.7039 4.59104 17.8021 4.63303 17.8923C4.67502 17.9825 4.73609 18.0626 4.81203 18.1269C5.74193 18.9134 6.81279 19.5162 7.96765 19.9032C8.0586 19.934 8.15498 19.9454 8.2506 19.9366C8.34622 19.9279 8.43894 19.8992 8.52281 19.8525L11.1112 18.4036L13.6997 19.8516C13.8021 19.9087 13.9176 19.9383 14.0348 19.9376C14.1099 19.9375 14.1845 19.9254 14.2557 19.9015C15.4096 19.5122 16.4792 18.9077 17.4079 18.12C17.4837 18.0558 17.5447 17.9759 17.5867 17.8858C17.6287 17.7958 17.6507 17.6977 17.6511 17.5983L17.664 14.7065L20.2275 13.2456C20.3133 13.1968 20.3875 13.1301 20.4452 13.05C20.5029 12.9699 20.5426 12.8784 20.5618 12.7815C20.7951 11.6035 20.7942 10.3911 20.5592 9.21342ZM19.2702 12.2135L16.8149 13.61C16.7073 13.6712 16.6183 13.7602 16.5571 13.8678C16.5073 13.9537 16.4548 14.0448 16.4016 14.1308C16.3334 14.2391 16.297 14.3645 16.2967 14.4926L16.2838 17.264C15.6239 17.7823 14.8887 18.1967 14.1036 18.493L11.6269 17.1128C11.5241 17.0559 11.4084 17.0263 11.2909 17.0269H11.2745C11.1705 17.0269 11.0657 17.0269 10.9617 17.0269C10.8387 17.0238 10.7171 17.0534 10.6094 17.1128L8.13093 18.4964C7.34419 18.2024 6.60694 17.79 5.94468 17.2735L5.93523 14.5063C5.93481 14.378 5.89849 14.2524 5.83039 14.1437C5.77711 14.0577 5.72469 13.9718 5.6757 13.8807C5.61496 13.7715 5.5259 13.6806 5.41789 13.6177L2.96008 12.2178C2.83289 11.4133 2.83289 10.5937 2.96008 9.78921L5.41101 8.39014C5.51859 8.32897 5.60766 8.2399 5.66883 8.13233C5.71867 8.04639 5.77109 7.9553 5.82437 7.86936C5.89258 7.76099 5.92891 7.63561 5.92922 7.50757L5.94211 4.73608C6.60205 4.21783 7.33727 3.80342 8.12234 3.50717L10.5956 4.88733C10.7033 4.947 10.8249 4.97668 10.948 4.97327C11.052 4.97327 11.1568 4.97327 11.2608 4.97327C11.3838 4.97634 11.5054 4.94668 11.6131 4.88733L14.0916 3.50374C14.8783 3.79771 15.6156 4.21009 16.2778 4.72663L16.2873 7.49381C16.2877 7.62211 16.324 7.74774 16.3921 7.85647C16.4454 7.94241 16.4978 8.02835 16.5468 8.11944C16.6075 8.22868 16.6966 8.31952 16.8046 8.38241L19.2624 9.78233C19.3913 10.5875 19.3928 11.4079 19.2667 12.2135H19.2702Z" />
</svg>
