<svg xmlns="http://www.w3.org/2000/svg" width="16" height="16"><g clip-path="url(#a)"><path d="M13.02 4.73a3.738 3.738 0 0 0-.337-2.98.5.5 0 0 0-.433-.25 3.734 3.734 0 0 0-3 1.5h-1.5a3.734 3.734 0 0 0-3-1.5.5.5 0 0 0-.433.25 3.736 3.736 0 0 0-.336 2.98A3.634 3.634 0 0 0 3.5 6.5V7a3.504 3.504 0 0 0 3.027 3.467A2.487 2.487 0 0 0 6 12v.5H4.5A1.5 1.5 0 0 1 3 11 2.5 2.5 0 0 0 .5 8.5a.5.5 0 0 0 0 1A1.5 1.5 0 0 1 2 11a2.5 2.5 0 0 0 2.5 2.5H6v1a.5.5 0 0 0 1 0V12a1.5 1.5 0 0 1 3 0v2.5a.5.5 0 0 0 1 0V12c0-.556-.185-1.095-.527-1.533A3.504 3.504 0 0 0 13.5 7v-.5a3.634 3.634 0 0 0-.48-1.77ZM12.5 7A2.5 2.5 0 0 1 10 9.5H7A2.5 2.5 0 0 1 4.5 7v-.5c.006-.5.156-.988.431-1.405A.5.5 0 0 0 5 4.615a2.738 2.738 0 0 1 .05-2.1A2.742 2.742 0 0 1 7.07 3.77.5.5 0 0 0 7.488 4H9.51a.5.5 0 0 0 .42-.23 2.742 2.742 0 0 1 2.02-1.254A2.739 2.739 0 0 1 12 4.614a.506.506 0 0 0 .063.479c.278.417.43.906.437 1.407V7Z"/></g><defs><clipPath id="a"><path d="M0 0h16v16H0z"/></clipPath></defs></svg>
