<svg width="45" height="45" viewBox="0 0 45 45" fill="none" xmlns="http://www.w3.org/2000/svg">
<g clip-path="url(#clip0_15703_744)">
<rect x="0.166016" y="0.21875" width="44" height="44" rx="22" fill="#E4E7EC"/>
</g>
<path d="M31 21.5C31 21.6879 30.9254 21.868 30.7925 22.0009C30.6597 22.1337 30.4795 22.2083 30.2917 22.2083H23.2083V29.2917C23.2083 29.4795 23.1337 29.6597 23.0009 29.7925C22.868 29.9254 22.6879 30 22.5 30C22.3121 30 22.132 29.9254 21.9991 29.7925C21.8663 29.6597 21.7917 29.4795 21.7917 29.2917V22.2083H14.7083C14.5205 22.2083 14.3403 22.1337 14.2075 22.0009C14.0746 21.868 14 21.6879 14 21.5C14 21.3121 14.0746 21.132 14.2075 20.9991C14.3403 20.8663 14.5205 20.7917 14.7083 20.7917H21.7917V13.7083C21.7917 13.5205 21.8663 13.3403 21.9991 13.2075C22.132 13.0746 22.3121 13 22.5 13C22.6879 13 22.868 13.0746 23.0009 13.2075C23.1337 13.3403 23.2083 13.5205 23.2083 13.7083V20.7917H30.2917C30.4795 20.7917 30.6597 20.8663 30.7925 20.9991C30.9254 21.132 31 21.3121 31 21.5Z" fill="#475467"/>
<defs>
<clipPath id="clip0_15703_744">
<rect x="0.166016" y="0.21875" width="44" height="44" rx="22" fill="white"/>
</clipPath>
</defs>
</svg>
