<svg width="16" height="16" viewBox="0 0 16 16" fill="none" xmlns="http://www.w3.org/2000/svg">
<path d="M2.5 3.5V11" stroke="#101828" stroke-width="1.2" stroke-linecap="round" stroke-linejoin="round"/>
<path d="M9 7.25H2.5" stroke="#101828" stroke-width="1.2" stroke-linecap="round" stroke-linejoin="round"/>
<path d="M9 3.5V11" stroke="#101828" stroke-width="1.2" stroke-linecap="round" stroke-linejoin="round"/>
<path d="M12 6.75H15L13.25 9.25C13.5378 9.25002 13.8211 9.32101 14.0749 9.45669C14.3287 9.59236 14.5451 9.78852 14.705 10.0278C14.8649 10.2671 14.9633 10.5421 14.9915 10.8285C15.0197 11.1149 14.9768 11.4038 14.8667 11.6697C14.7565 11.9356 14.5825 12.1702 14.3601 12.3528C14.1376 12.5353 13.8736 12.6602 13.5913 12.7164C13.3091 12.7725 13.0173 12.7582 12.7419 12.6747C12.4665 12.5911 12.216 12.441 12.0125 12.2375" stroke="#101828" stroke-width="1.2" stroke-linecap="round" stroke-linejoin="round"/>
</svg>
