<?xml version="1.0" encoding="utf-8"?>
<svg version="1.1" xmlns="http://www.w3.org/2000/svg" xmlns:xlink="http://www.w3.org/1999/xlink" x="0px" y="0px"
	 viewBox="0 0 30 30" style="enable-background:new 0 0 30 30;" xml:space="preserve">
<path d="M27,15.7c1.9-2.1,3-4.3,3-6.4c0-3.5-2.8-6.4-6.3-6.4c-1.7,0-3.3,0.6-4.5,1.8c-1.2-1.2-2.8-1.8-4.5-1.8
	c-3.5,0-6.3,2.9-6.3,6.4c0,1.2,0.3,2.5,1,3.8c-0.5,0.2-0.9,0.5-1.3,0.9l-2.9,2.7H3.4c-2.8,0-3.4,1.4-3.4,2.7v4.6
	c0,1.7,1.1,2.6,3.4,2.6h11.9l7.9-2.1l4.9-2.1c0.9-0.5,2.4-1.9,1.7-4.1C29.3,16.6,28.1,15.9,27,15.7z M4.5,23.6H3.4
	c-0.2,0-0.3,0-0.4,0l0-3.9c0.1,0,0.2,0,0.4,0h1.1V23.6z M26.8,19.7l-4.4,1.9l-7.4,2H7.4v-4.7l2.8-2.7c0.3-0.3,0.6-0.4,1-0.4h6.2
	c0.3,0.1,0.6,0.4,0.6,1c0,0.7-0.4,0.9-0.7,1l-3.6,0c0,0-1.5,0-1.5,1.5s1.5,1.5,1.5,1.5l4.2,0l8.5-2.1c0.4,0,0.4,0.2,0.5,0.4
	C27,19.3,27.1,19.5,26.8,19.7z M21.8,16.7c-0.4,0.1-0.7,0.1-0.7,0.1c0-2.6-1.9-4-3-4l-5.4-0.1c-0.9-1.3-1.3-2.4-1.3-3.4
	c0-1.9,1.6-3.5,3.4-3.5c1.4,0,2.6,0.8,3.1,2C18.1,8.6,19,9,19.7,8.7c0.4-0.1,0.7-0.4,0.8-0.8c0.5-1.3,1.8-2.1,3.1-2
	c1.8,0,3.4,1.6,3.4,3.4C27,11.5,25.2,14.1,21.8,16.7z"/>
</svg>
