<?xml version="1.0" encoding="utf-8"?>
<svg version="1.1" id="Layer_1" xmlns="http://www.w3.org/2000/svg" xmlns:xlink="http://www.w3.org/1999/xlink"
	 viewBox="0 0 80 80" style="enable-background:new 0 0 80 80;" xml:space="preserve">
<path d="M37.4,69.3c-0.4,2.1-2.5,1.8-2.9,1.8l-10.2-2.5l-0.7-0.4L16,63.1c-0.7-0.7-1.9-1.7-0.7-3.3s2.5-1.1,3.3-0.7
	l7.3,4.7l9.5,2.5C35.6,66.4,37.9,67.2,37.4,69.3z M79.2,39.4c-0.2,0.8-0.9,1.7-2.9,2.9L69.1,46L52,63.1c-0.4,0.4-0.6,0.6-1.1,0.7
	c-0.5,0.1-1,0.1-1.5,0l-20-5.1c-0.4,0-0.7-0.4-0.7-0.4L11.3,46l-7.6-3.6c-1.1-0.7-2.2-1.5-2.5-2.9c-0.4-1.5-0.4-2.9,0.4-4l7.6-15.7
	c0.7-1.1,1.5-2.2,2.9-2.5c1.1-0.4,2.5-0.4,3.6,0.4l6.9,3.3l16.7-4.7c0.4,0,1.1,0,1.5,0l16.7,4.7l6.9-3.3c1.2-0.6,2.5-0.7,3.6-0.4
	c1.1,0.4,2.2,1.1,2.9,2.5l7.6,15.7C78.9,36.1,79.7,37.6,79.2,39.4z M64.3,43.4L56,26.3h-9.8L32.3,39.4c4,2.5,10.2,3.3,15.6-2.5
	c0.7-0.4,1.1-0.7,1.8-0.7c0.7,0,1.1,0,1.8,0.4l10.9,8.7L64.3,43.4z M5.8,37.6l5.5,2.9l7.6-15.7l-5.5-2.9L5.8,37.6z M58.9,48.9
	l-8.7-6.9C44,47,36.3,47.8,29.8,43.4c-0.8-0.7-2.6-1.6-2.9-3.7c-0.3-2.2,1.4-3.2,2.2-3.9l0,0l14.2-13.5l-2.9-0.7l-16,4.4L15.6,43
	L30.9,54l18.2,4.4L58.9,48.9z M74.2,37.6l-7.6-15.7l-5.5,2.9l7.6,15.7L74.2,37.6z"/>
</svg>
