<svg xmlns="http://www.w3.org/2000/svg" viewBox="0 0 23 22" height="22" width="23">
<path d="M10.8,18c0,0.1-0.1,0.3-0.2,0.4c-0.1,0.1-0.3,0.1-0.4,0.1c-0.1,0-0.1,0-0.2,0l-2.8-0.7
	c-0.1,0-0.1-0.1-0.2-0.1l-2.1-1.4c-0.2-0.1-0.3-0.3-0.3-0.4c0-0.2,0-0.4,0.1-0.5c0.1-0.2,0.3-0.3,0.4-0.3c0.2,0,0.4,0,0.5,0.1l2,1.3
	l2.6,0.7c0.1,0,0.2,0.1,0.2,0.1c0.1,0.1,0.1,0.1,0.2,0.2c0,0.1,0.1,0.2,0.1,0.3C10.8,17.9,10.8,18,10.8,18z M22.2,9.8
	c-0.1,0.2-0.1,0.3-0.3,0.5c-0.1,0.1-0.3,0.2-0.4,0.3l-2,1l-4.7,4.7c-0.1,0.1-0.2,0.1-0.3,0.2c-0.1,0-0.2,0-0.4,0l-5.5-1.4
	c-0.1,0-0.2-0.1-0.2-0.1l-4.8-3.4l-2.1-1c-0.3-0.2-0.6-0.4-0.7-0.8C0.7,9.4,0.7,9,0.9,8.7L3,4.4c0.2-0.3,0.4-0.6,0.8-0.7
	c0.3-0.1,0.7-0.1,1,0.1l1.9,0.9l4.6-1.3c0.1,0,0.3,0,0.4,0l4.6,1.3l1.9-0.9c0.3-0.2,0.7-0.2,1-0.1c0.3,0.1,0.6,0.4,0.8,0.7l2.1,4.3
	c0.1,0.2,0.1,0.3,0.1,0.5C22.3,9.4,22.3,9.6,22.2,9.8z M18.2,10.9l-2.3-4.7h-2.7L9.4,9.8c1.1,0.7,2.8,0.9,4.3-0.7
	C13.9,9,14,8.9,14.2,8.9c0.2,0,0.3,0,0.5,0.1l3,2.4L18.2,10.9z M2.1,9.3l1.5,0.8l2.1-4.3L4.2,5L2.1,9.3z M16.7,12.4l-2.4-1.9
	c-1.7,1.4-3.8,1.6-5.6,0.4c-0.2-0.1-0.3-0.3-0.4-0.4s-0.2-0.4-0.2-0.6c0-0.2,0-0.4,0.1-0.6C8.2,9.1,8.3,9,8.5,8.8c0,0,0,0,0,0
	l3.9-3.7l-0.8-0.2L7.2,6.1l-2.4,4.7l4.2,3l5,1.2L16.7,12.4z M20.9,9.3L18.8,5l-1.5,0.8l2.1,4.3L20.9,9.3z"/>
</svg>
