<?xml version="1.0" encoding="utf-8"?>
<svg version="1.1" xmlns="http://www.w3.org/2000/svg" xmlns:xlink="http://www.w3.org/1999/xlink" x="0px" y="0px"
	 viewBox="0 0 30 30" style="enable-background:new 0 0 30 30;" xml:space="preserve">
<path d="M27.7,10.6l-2.5-4.3c-1.1-1.9-3.4-2.5-5.3-1.4c-0.5,0.3-0.9,0.7-1.3,1.2l-2.1-3.7c-1.1-1.9-3.4-2.5-5.3-1.4
	c-0.6,0.3-1,0.8-1.4,1.3C8.2,0.8,5.8,0.9,4.3,2.5C3.2,3.7,3,5.6,3.8,7l0.5,0.8C2.2,8,0.6,9.9,0.7,12c0,0.6,0.2,1.1,0.5,1.6l5.3,9.1
	c1.6,2.8,4.3,4.9,7.4,5.7c6.5,1.7,13.2-2.1,15-8.6C29.7,16.7,29.3,13.4,27.7,10.6z M26.7,19.3c-1.4,5.3-6.9,8.5-12.2,7.1
	c-2.6-0.7-4.7-2.4-6.1-4.7l-5.3-9.1c-0.5-0.8-0.2-1.8,0.6-2.3s1.8-0.2,2.3,0.6l3.1,5.3c0.3,0.5,1,0.7,1.5,0.4
	c0.4-0.2,0.6-0.7,0.6-1.1c0-0.1-0.1-0.3-0.2-0.4L5.8,5.9C5.3,5.1,5.6,4.1,6.4,3.6c0.8-0.5,1.8-0.2,2.3,0.6l4.7,8.2
	c0.3,0.5,1,0.7,1.5,0.3c0.5-0.3,0.7-0.9,0.4-1.5l-3.6-6.2c-0.5-0.8-0.2-1.8,0.6-2.3c0.8-0.5,1.8-0.2,2.3,0.6l4.8,8.2
	c-2.5,2.1-3.1,5.6-1.5,8.5c0.3,0.5,1,0.7,1.5,0.4c0.5-0.3,0.7-1,0.4-1.5c-1.2-2.1-0.5-4.8,1.6-6.1c0.5-0.3,0.7-1,0.4-1.5
	c0,0,0,0,0,0L20.4,9c-0.4-0.8-0.1-1.8,0.7-2.3c0.8-0.4,1.8-0.2,2.2,0.6l2.5,4.3C27.1,14,27.4,16.7,26.7,19.3L26.7,19.3z M22.7,0.8
	c0.2-0.6,0.8-0.9,1.4-0.8c2.2,0.6,4,2,5.1,3.8c0.3,0.5,0.1,1.2-0.4,1.5c-0.5,0.3-1.2,0.1-1.5-0.4c-0.8-1.4-2.1-2.4-3.8-2.8
	C22.9,2,22.5,1.4,22.7,0.8C22.7,0.8,22.7,0.8,22.7,0.8z M8.3,29.6c-0.4,0.5-1.1,0.6-1.6,0.2c0,0,0,0,0,0C5.3,28.6,4,27,2.8,25
	c-0.3-0.5-0.1-1.2,0.4-1.5c0.5-0.3,1.2-0.1,1.5,0.4c0,0,0,0,0,0c1,1.8,2.1,3.1,3.4,4.1C8.6,28.4,8.7,29.1,8.3,29.6z"/>
</svg>
