<svg width="25" height="24" viewBox="0 0 25 24" xmlns="http://www.w3.org/2000/svg">
  <path d="M18.9727 7.09125V3.75C18.9727 3.35218 18.8146 2.97064 18.5333 2.68934C18.252 2.40804 17.8705 2.25 17.4727 2.25H6.97266C6.57483 2.25 6.1933 2.40804 5.912 2.68934C5.63069 2.97064 5.47266 3.35218 5.47266 3.75V7.125C5.47316 7.35778 5.5276 7.58727 5.6317 7.79548C5.73581 8.00368 5.88674 8.18493 6.07266 8.325L10.973 12L6.07266 15.675C5.88674 15.8151 5.73581 15.9963 5.6317 16.2045C5.5276 16.4127 5.47316 16.6422 5.47266 16.875V20.25C5.47266 20.6478 5.63069 21.0294 5.912 21.3107C6.1933 21.592 6.57483 21.75 6.97266 21.75H17.4727C17.8705 21.75 18.252 21.592 18.5333 21.3107C18.8146 21.0294 18.9727 20.6478 18.9727 20.25V16.9088C18.9721 16.6769 18.9181 16.4482 18.8149 16.2406C18.7116 16.033 18.5619 15.8519 18.3773 15.7116L13.4667 12L18.3773 8.2875C18.562 8.14742 18.7118 7.96658 18.8151 7.75908C18.9183 7.55158 18.9723 7.32303 18.9727 7.09125ZM6.97266 3.75H17.4727V7.09125L16.9317 7.5H7.47234L6.97266 7.125V3.75ZM12.2227 11.0625L9.47297 9H14.948L12.2227 11.0625ZM17.4727 20.25H6.97266V16.875L11.4727 13.5V15.75C11.4727 15.9489 11.5517 16.1397 11.6923 16.2803C11.833 16.421 12.0237 16.5 12.2227 16.5C12.4216 16.5 12.6123 16.421 12.753 16.2803C12.8936 16.1397 12.9727 15.9489 12.9727 15.75V13.5075L17.4727 16.9088V20.25Z" />
</svg>
