<svg id="Layer_1" data-name="Layer 1" xmlns="http://www.w3.org/2000/svg" viewBox="0 0 13.12 10.94">
  <path d="M12.69,10.06h-.88V5.01c0-.12-.03-.24-.07-.35-.05-.11-.12-.21-.21-.29L7.15,.23s0,0,0,0c-.16-.15-.37-.23-.59-.23s-.43,.08-.59,.23h0S1.6,4.36,1.6,4.36c-.09,.08-.16,.18-.21,.29-.05,.11-.07,.23-.07,.35v5.06H.44c-.12,0-.23,.05-.31,.13-.08,.08-.13,.19-.13,.31s.05,.23,.13,.31c.08,.08,.19,.13,.31,.13H12.69c.12,0,.23-.05,.31-.13,.08-.08,.13-.19,.13-.31s-.05-.23-.13-.31-.19-.13-.31-.13ZM2.19,5.01h0S6.56,.87,6.56,.87l4.37,4.13h0v5.06h-2.63v-2.62c0-.23-.09-.45-.26-.62s-.39-.26-.62-.26h-1.75c-.23,0-.45,.09-.62,.26-.16,.16-.26,.39-.26,.62v2.62H2.19V5.01Zm5.25,5.06h-1.75v-2.62h1.75v2.62Z" />
</svg>
