<?xml version="1.0" encoding="utf-8"?>
<svg version="1.1" xmlns="http://www.w3.org/2000/svg" xmlns:xlink="http://www.w3.org/1999/xlink" x="0px" y="0px"
	 viewBox="0 0 30 30" style="enable-background:new 0 0 30 30;" xml:space="preserve">
<path d="M27.7,2.3H2.3C1,2.3,0,3.3,0,4.6v20.8c0,1.3,1,2.3,2.3,2.3h25.4c1.3,0,2.3-1,2.3-2.3V4.6
	C30,3.3,29,2.3,27.7,2.3z M27.7,4.6v14.8l-3.8-3.8c-0.9-0.9-2.4-0.9-3.3,0c0,0,0,0,0,0l-2.9,2.9l-6.3-6.3c-0.9-0.9-2.4-0.9-3.3,0
	l-5.9,5.9V4.6H27.7z M2.3,21.3l7.5-7.5l11.5,11.5h-19V21.3z M27.7,25.4h-3.1l-5.2-5.2l2.9-2.9l5.4,5.4V25.4z M17.3,11
	c0-1,0.8-1.7,1.7-1.7s1.7,0.8,1.7,1.7S20,12.7,19,12.7S17.3,11.9,17.3,11z"/>
</svg>
