<svg width="14" height="14" viewBox="0 0 14 14" fill="none" xmlns="http://www.w3.org/2000/svg">
<path d="M7.22253 4C6.62919 4 6.04917 4.17595 5.55582 4.50559C5.06248 4.83524 4.67796 5.30377 4.4509 5.85195C4.22383 6.40013 4.16442 7.00333 4.28018 7.58527C4.39593 8.16721 4.68166 8.70176 5.10121 9.12132C5.52077 9.54088 6.05532 9.8266 6.63726 9.94236C7.21921 10.0581 7.82241 9.9987 8.37058 9.77164C8.91876 9.54458 9.3873 9.16006 9.71694 8.66671C10.0466 8.17336 10.2225 7.59334 10.2225 7C10.2217 6.2046 9.90537 5.44202 9.34294 4.87959C8.78051 4.31716 8.01793 4.00083 7.22253 4ZM7.22253 9C6.82697 9 6.44029 8.8827 6.11139 8.66294C5.7825 8.44318 5.52615 8.13082 5.37477 7.76537C5.2234 7.39991 5.18379 6.99778 5.26096 6.60982C5.33813 6.22186 5.52862 5.86549 5.80832 5.58579C6.08803 5.30608 6.44439 5.1156 6.83235 5.03843C7.22032 4.96126 7.62245 5.00087 7.9879 5.15224C8.35335 5.30362 8.66571 5.55996 8.88547 5.88886C9.10524 6.21776 9.22253 6.60444 9.22253 7C9.22253 7.53043 9.01182 8.03914 8.63675 8.41421C8.26167 8.78929 7.75297 9 7.22253 9ZM10.2225 0.5H4.22253C3.29458 0.500993 2.40492 0.87006 1.74876 1.52622C1.09259 2.18238 0.723527 3.07205 0.722534 4V10C0.723527 10.928 1.09259 11.8176 1.74876 12.4738C2.40492 13.1299 3.29458 13.499 4.22253 13.5H10.2225C11.1505 13.499 12.0401 13.1299 12.6963 12.4738C13.3525 11.8176 13.7215 10.928 13.7225 10V4C13.7215 3.07205 13.3525 2.18238 12.6963 1.52622C12.0401 0.87006 11.1505 0.500993 10.2225 0.5ZM12.7225 10C12.7225 10.663 12.4591 11.2989 11.9903 11.7678C11.5215 12.2366 10.8856 12.5 10.2225 12.5H4.22253C3.55949 12.5 2.92361 12.2366 2.45477 11.7678C1.98593 11.2989 1.72253 10.663 1.72253 10V4C1.72253 3.33696 1.98593 2.70107 2.45477 2.23223C2.92361 1.76339 3.55949 1.5 4.22253 1.5H10.2225C10.8856 1.5 11.5215 1.76339 11.9903 2.23223C12.4591 2.70107 12.7225 3.33696 12.7225 4V10ZM11.2225 3.75C11.2225 3.89834 11.1785 4.04334 11.0961 4.16668C11.0137 4.29001 10.8966 4.38614 10.7595 4.44291C10.6225 4.49968 10.4717 4.51453 10.3262 4.48559C10.1807 4.45665 10.0471 4.38522 9.9422 4.28033C9.83732 4.17544 9.76588 4.0418 9.73695 3.89632C9.70801 3.75083 9.72286 3.60003 9.77962 3.46299C9.83639 3.32594 9.93252 3.20881 10.0559 3.1264C10.1792 3.04399 10.3242 3 10.4725 3C10.6714 3 10.8622 3.07902 11.0029 3.21967C11.1435 3.36032 11.2225 3.55109 11.2225 3.75Z" fill="#101828"/>
</svg>
