<svg xmlns="http://www.w3.org/2000/svg" viewBox="0 0 16 16" height="16" width="16">
	<path d="M14.8,8.5c-0.3-0.9-0.8-1.6-1.5-2.3c-0.7-0.6-1.5-1-2.4-1.2c-0.2-0.9-0.6-1.7-1.2-2.4C9.1,2,8.4,1.5,7.5,1.2
		S5.7,0.9,4.8,1.1S3.1,1.8,2.5,2.5C1.8,3.1,1.4,3.9,1.1,4.8S1,6.6,1.2,7.5S2,9.1,2.7,9.7c0.7,0.6,1.5,1,2.4,1.2
		c0.2,0.9,0.6,1.7,1.2,2.4c0.6,0.7,1.4,1.2,2.3,1.5c0.9,0.3,1.8,0.3,2.7,0.1c0.9-0.2,1.7-0.7,2.3-1.3c0.6-0.6,1.1-1.5,1.3-2.3
		C15.1,10.3,15,9.4,14.8,8.5z M8.5,6.3C9,6.1,9.5,6,10,6c0,0.5-0.1,1-0.3,1.5L8.5,6.3z M9.2,8.4C9,8.7,8.7,9,8.4,9.2L6.8,7.6
		C7,7.3,7.3,7,7.6,6.8L9.2,8.4z M5,9.9C4.1,9.7,3.4,9.2,2.8,8.5S2,6.9,2,6c0-1,0.4-1.9,1-2.6S4.5,2.1,5.5,2c1-0.1,1.9,0.1,2.8,0.7
		C9.1,3.2,9.6,4.1,9.9,5C8.6,5,7.4,5.6,6.5,6.5C5.6,7.4,5,8.6,5,9.9z M6.3,8.5l1.2,1.2C7,9.9,6.5,10,6,10C6,9.5,6.1,9,6.3,8.5z
		M14,10.5c-0.1,1-0.6,1.9-1.3,2.5c-0.7,0.6-1.7,1-2.6,1c-0.9,0-1.7-0.3-2.4-0.8c-0.7-0.5-1.2-1.3-1.4-2.2c1.3,0,2.5-0.6,3.4-1.5
		C10.4,8.6,11,7.4,11,6.1c0.9,0.2,1.8,0.8,2.3,1.6C13.9,8.6,14.1,9.5,14,10.5z"/>
</svg>
