<svg width="27" height="26" viewBox="0 0 27 26" xmlns="http://www.w3.org/2000/svg">
<path d="M22.1602 4.0625H4.28516C3.85418 4.0625 3.44085 4.2337 3.13611 4.53845C2.83136 4.8432 2.66016 5.25652 2.66016 5.6875V20.3125C2.66016 20.7435 2.83136 21.1568 3.13611 21.4615C3.44085 21.7663 3.85418 21.9375 4.28516 21.9375H22.1602C22.5911 21.9375 23.0045 21.7663 23.3092 21.4615C23.614 21.1568 23.7852 20.7435 23.7852 20.3125V5.6875C23.7852 5.25652 23.614 4.8432 23.3092 4.53845C23.0045 4.2337 22.5911 4.0625 22.1602 4.0625ZM22.1602 5.6875V9.75H4.28516V5.6875H22.1602ZM4.28516 11.375H9.97266V20.3125H4.28516V11.375ZM22.1602 20.3125H11.5977V11.375H22.1602V20.3125Z" />
</svg>
