<svg width="23" height="22" viewBox="0 0 23 22" xmlns="http://www.w3.org/2000/svg">
  <path d="M18.6738 3.4375H3.54877C3.18409 3.4375 2.83436 3.58237 2.5765 3.84023C2.31863 4.09809 2.17377 4.44783 2.17377 4.8125V17.1875C2.17377 17.5522 2.31863 17.9019 2.5765 18.1598C2.83436 18.4176 3.18409 18.5625 3.54877 18.5625H18.6738C19.0384 18.5625 19.3882 18.4176 19.646 18.1598C19.9039 17.9019 20.0488 17.5522 20.0488 17.1875V4.8125C20.0488 4.44783 19.9039 4.09809 19.646 3.84023C19.3882 3.58237 19.0384 3.4375 18.6738 3.4375ZM18.6738 4.8125V8.25H3.54877V4.8125H18.6738ZM3.54877 9.625H8.36127V17.1875H3.54877V9.625ZM18.6738 17.1875H9.73627V9.625H18.6738V17.1875Z" />
</svg>
