<?xml version="1.0" encoding="utf-8"?>
<svg version="1.1" xmlns="http://www.w3.org/2000/svg" xmlns:xlink="http://www.w3.org/1999/xlink" x="0px" y="0px"
	 viewBox="0 0 30 30" style="enable-background:new 0 0 30 30;" xml:space="preserve">
<style type="text/css">
	.st0{fill:#FF3E9B;}
	.st1{fill:#FFFFFF;}
</style>
<circle class="st0" cx="15" cy="15" r="15"/>
<path class="st1" d="M16.7,16.5h1.1v1.1h-1.1V16.5z M21,15.4h1.1v1.1H21V15.4z M13.5,10.1h1.1v1.1h-1.1V10.1z M14.6,18.7h-2.1v-3.2
	c0-0.6-0.5-1.1-1.1-1.1H8.1c-0.6,0-1.1,0.5-1.1,1.1v3.2c0,0.6,0.5,1.1,1.1,1.1h3.2v2.1c0,0.6,0.5,1.1,1.1,1.1h2.1
	c0.6,0,1.1-0.5,1.1-1.1v-2.1C15.6,19.1,15.2,18.7,14.6,18.7z M8.1,18.7v-3.2h3.2v3.2C11.3,18.7,8.1,18.7,8.1,18.7z M12.4,21.9v-2.1
	h2.1v2.1H12.4z M21,22.9h-2.1c-0.6,0-1.1-0.5-1.1-1.1v-2.1c0-0.6,0.5-1.1,1.1-1.1H21c0.6,0,1.1,0.5,1.1,1.1v2.1
	C22.1,22.5,21.6,22.9,21,22.9z M18.8,19.7v2.1H21v-2.1H18.8z M21,7.9h-3.2c-0.6,0-1.1,0.5-1.1,1.1v3.2h-1.1c-0.6,0-1.1,0.5-1.1,1.1
	v1.1c0,0.6,0.5,1.1,1.1,1.1h1.1c0.6,0,1.1-0.5,1.1-1.1v-1.1H21c0.6,0,1.1-0.5,1.1-1.1V9C22.1,8.4,21.6,7.9,21,7.9L21,7.9z
	 M15.6,14.4v-1.1h1.1v1.1H15.6z M17.8,12.2V9H21v3.2L17.8,12.2L17.8,12.2z M10.3,12.2H8.1c-0.6,0-1.1-0.5-1.1-1.1V9
	c0-0.6,0.5-1.1,1.1-1.1h2.1c0.6,0,1.1,0.5,1.1,1.1v2.1C11.3,11.7,10.9,12.2,10.3,12.2z M8.1,9v2.1h2.1V9L8.1,9L8.1,9z"/>
</svg>
