<?xml version="1.0" encoding="utf-8"?>
<svg version="1.1" xmlns="http://www.w3.org/2000/svg" xmlns:xlink="http://www.w3.org/1999/xlink" x="0px" y="0px"
	 viewBox="0 0 30 30" style="enable-background:new 0 0 30 30;" xml:space="preserve">
<path d="M15,0C6.8,0,0,6.7,0,15s6.7,15,15,15s15-6.7,15-15C30,6.7,23.3,0,15,0z M20.7,19c1.7-2.4,1.7-5.6,0-8l4.1-4.1
	c3.9,4.7,3.9,11.5,0,16.2C24.8,23.1,20.7,19,20.7,19z M10.4,15c0-2.5,2.1-4.6,4.6-4.6s4.6,2.1,4.6,4.6s-2.1,4.6-4.6,4.6
	S10.4,17.5,10.4,15z M23.2,5.2L19,9.4c-2.4-1.7-5.6-1.7-8,0L6.9,5.2C11.6,1.3,18.5,1.3,23.2,5.2z M5.3,6.9L9.4,11
	c-1.7,2.4-1.7,5.6,0,8l-4.1,4.1C1.4,18.4,1.4,11.6,5.3,6.9z M6.9,24.8l4.1-4.1c2.4,1.7,5.6,1.7,8,0l4.1,4.1
	C18.5,28.7,11.6,28.7,6.9,24.8z"/>
</svg>
