<?xml version="1.0" encoding="utf-8"?>
<svg version="1.1" xmlns="http://www.w3.org/2000/svg" xmlns:xlink="http://www.w3.org/1999/xlink" x="0px" y="0px"
	 viewBox="0 0 30 30" style="enable-background:new 0 0 30 30;" xml:space="preserve">
<path d="M30,15.3c0,0.7-0.6,1.2-1.2,1.2H1.2C0.6,16.5,0,16,0,15.3S0.6,14,1.2,14h27.5C29.4,14,30,14.6,30,15.3z
	 M1.2,6.5h27.5C29.4,6.5,30,6,30,5.3S29.4,4,28.7,4H1.2C0.6,4,0,4.6,0,5.3S0.6,6.5,1.2,6.5z M28.7,24H1.2C0.6,24,0,24.6,0,25.3
	s0.6,1.2,1.2,1.2h27.5c0.7,0,1.2-0.6,1.2-1.2S29.4,24,28.7,24z"/>
</svg>
