<svg width="16" height="16" viewBox="0 0 16 16" xmlns="http://www.w3.org/2000/svg">
  <path d="M14 8.00003C14 8.13264 13.9474 8.25982 13.8536 8.35359C13.7598 8.44736 13.6326 8.50003 13.5 8.50003H8.00003C7.86743 8.50003 7.74025 8.44736 7.64648 8.35359C7.55271 8.25982 7.50003 8.13264 7.50003 8.00003C7.50003 7.86743 7.55271 7.74025 7.64648 7.64648C7.74025 7.55271 7.86743 7.50003 8.00003 7.50003H13.5C13.6326 7.50003 13.7598 7.55271 13.8536 7.64648C13.9474 7.74025 14 7.86743 14 8.00003ZM8.00003 4.50003H13.5C13.6326 4.50003 13.7598 4.44736 13.8536 4.35359C13.9474 4.25982 14 4.13264 14 4.00003C14 3.86743 13.9474 3.74025 13.8536 3.64648C13.7598 3.55271 13.6326 3.50003 13.5 3.50003H8.00003C7.86743 3.50003 7.74025 3.55271 7.64648 3.64648C7.55271 3.74025 7.50003 3.86743 7.50003 4.00003C7.50003 4.13264 7.55271 4.25982 7.64648 4.35359C7.74025 4.44736 7.86743 4.50003 8.00003 4.50003ZM13.5 11.5H8.00003C7.86743 11.5 7.74025 11.5527 7.64648 11.6465C7.55271 11.7402 7.50003 11.8674 7.50003 12C7.50003 12.1326 7.55271 12.2598 7.64648 12.3536C7.74025 12.4474 7.86743 12.5 8.00003 12.5H13.5C13.6326 12.5 13.7598 12.4474 13.8536 12.3536C13.9474 12.2598 14 12.1326 14 12C14 11.8674 13.9474 11.7402 13.8536 11.6465C13.7598 11.5527 13.6326 11.5 13.5 11.5ZM5.14628 2.64628L3.50003 4.29316L2.85378 3.64628C2.75996 3.55246 2.63272 3.49976 2.50003 3.49976C2.36735 3.49976 2.2401 3.55246 2.14628 3.64628C2.05246 3.7401 1.99976 3.86735 1.99976 4.00003C1.99976 4.13272 2.05246 4.25996 2.14628 4.35378L3.14628 5.35378C3.19272 5.40027 3.24786 5.43715 3.30856 5.46231C3.36926 5.48748 3.43433 5.50043 3.50003 5.50043C3.56574 5.50043 3.63081 5.48748 3.6915 5.46231C3.7522 5.43715 3.80735 5.40027 3.85378 5.35378L5.85378 3.35378C5.9476 3.25996 6.00031 3.13272 6.00031 3.00003C6.00031 2.86735 5.9476 2.7401 5.85378 2.64628C5.75996 2.55246 5.63272 2.49976 5.50003 2.49976C5.36735 2.49976 5.2401 2.55246 5.14628 2.64628ZM5.14628 6.64628L3.50003 8.29316L2.85378 7.64628C2.75996 7.55246 2.63272 7.49976 2.50003 7.49976C2.36735 7.49976 2.2401 7.55246 2.14628 7.64628C2.05246 7.7401 1.99976 7.86735 1.99976 8.00003C1.99976 8.06573 2.0127 8.13079 2.03784 8.19148C2.06298 8.25218 2.09983 8.30733 2.14628 8.35378L3.14628 9.35378C3.19272 9.40027 3.24786 9.43715 3.30856 9.46231C3.36926 9.48748 3.43433 9.50043 3.50003 9.50043C3.56574 9.50043 3.63081 9.48748 3.6915 9.46231C3.7522 9.43715 3.80735 9.40027 3.85378 9.35378L5.85378 7.35378C5.9476 7.25996 6.00031 7.13272 6.00031 7.00003C6.00031 6.86735 5.9476 6.7401 5.85378 6.64628C5.75996 6.55246 5.63272 6.49976 5.50003 6.49976C5.36735 6.49976 5.2401 6.55246 5.14628 6.64628ZM5.14628 10.6463L3.50003 12.2932L2.85378 11.6463C2.80733 11.5998 2.75218 11.563 2.69148 11.5378C2.63079 11.5127 2.56573 11.4998 2.50003 11.4998C2.43434 11.4998 2.36928 11.5127 2.30859 11.5378C2.24789 11.563 2.19274 11.5998 2.14628 11.6463C2.09983 11.6927 2.06298 11.7479 2.03784 11.8086C2.0127 11.8693 1.99976 11.9343 1.99976 12C1.99976 12.0657 2.0127 12.1308 2.03784 12.1915C2.06298 12.2522 2.09983 12.3073 2.14628 12.3538L3.14628 13.3538C3.19272 13.4003 3.24786 13.4372 3.30856 13.4623C3.36926 13.4875 3.43433 13.5004 3.50003 13.5004C3.56574 13.5004 3.63081 13.4875 3.6915 13.4623C3.7522 13.4372 3.80735 13.4003 3.85378 13.3538L5.85378 11.3538C5.9476 11.26 6.00031 11.1327 6.00031 11C6.00031 10.8674 5.9476 10.7401 5.85378 10.6463C5.75996 10.5525 5.63272 10.4998 5.50003 10.4998C5.36735 10.4998 5.2401 10.5525 5.14628 10.6463Z" />
</svg>
