<?xml version="1.0" encoding="utf-8"?>
<svg version="1.1" xmlns="http://www.w3.org/2000/svg" xmlns:xlink="http://www.w3.org/1999/xlink" x="0px" y="0px"
	 viewBox="0 0 30 30" style="enable-background:new 0 0 30 30;" xml:space="preserve">
<path d="M18.7,17.2c-0.5-1.6-2-2.8-3.7-2.8c-1.7,0-3.2,1.2-3.7,2.8c-0.6,2,0.5,4.2,2.6,4.8v2.4c0,0.6,0.5,1.1,1.1,1.1
	c0.6,0,1.1-0.5,1.1-1.1V22C18.2,21.4,19.3,19.2,18.7,17.2z M15,20c-0.9,0-1.7-0.7-1.7-1.7s0.8-1.7,1.7-1.7c0.9,0,1.7,0.7,1.7,1.7
	S15.9,20,15,20z"/>
<path d="M26.1,10h-4.4V6.7C21.7,3,18.7,0,15,0c-3.7,0-6.7,3-6.7,6.7V10H3.8c-1.2,0-2.2,1-2.2,2.2v15.6c0,1.2,1,2.2,2.2,2.2h22.2
	c1.2,0,2.2-1,2.2-2.2V12.2C28.3,11,27.3,10,26.1,10z M10.6,6.8c0-2.4,2-4.5,4.4-4.5s4.4,2,4.4,4.4V10h-8.8V6.8z M26.1,27.8H3.8V12.2
	h22.2V27.8z"/>
</svg>
