<?xml version="1.0" encoding="utf-8"?>
<svg version="1.1" xmlns="http://www.w3.org/2000/svg" xmlns:xlink="http://www.w3.org/1999/xlink" x="0px" y="0px"
	 viewBox="0 0 30 30" style="enable-background:new 0 0 30 30;" xml:space="preserve">
<path d="M29.7,28l-7.2-7.2c4.5-5.4,3.8-13.4-1.6-17.9S7.4-0.8,2.9,4.6S-0.8,18,4.6,22.4c4.7,3.9,11.5,3.9,16.2,0l7.2,7.2
	c0.5,0.5,1.1,0.5,1.6,0S30.1,28.5,29.7,28L29.7,28z M2.3,12.7C2.3,7,7,2.3,12.7,2.3S23.1,7,23.1,12.7s-4.6,10.4-10.4,10.4
	C7,23.1,2.3,18.4,2.3,12.7z"/>
</svg>
