<?xml version="1.0" encoding="utf-8"?>
<svg version="1.1" xmlns="http://www.w3.org/2000/svg" xmlns:xlink="http://www.w3.org/1999/xlink" x="0px" y="0px"
	 viewBox="0 0 30 30" style="enable-background:new 0 0 30 30;" xml:space="preserve">
<path d="M26,11c0-6.1-4.9-11-11-11C8.9,0,4,4.9,4,11c0,3.3,1.5,6.4,4,8.5V29c0,0.6,0.4,1,1,1c0.2,0,0.3,0,0.4-0.1l5.6-2.8l5.6,2.8
	C20.7,30,20.8,30,21,30c0.6,0,1-0.4,1-1v-9.5C24.5,17.4,26,14.3,26,11z M6,11c0-5,4-9,9-9s9,4,9,9s-4,9-9,9C10,20,6,16,6,11z
	 M20,27.4l-4.6-2.3c-0.3-0.1-0.6-0.1-0.9,0L10,27.4v-6.6c3.1,1.6,6.9,1.6,10,0V27.4z M15,18c3.9,0,7-3.1,7-7s-3.1-7-7-7s-7,3.1-7,7
	C8,14.9,11.1,18,15,18z M15,6c2.8,0,5,2.2,5,5s-2.2,5-5,5s-5-2.2-5-5S12.2,6,15,6z"/>
</svg>
