<?xml version="1.0" encoding="utf-8"?>
<svg version="1.1" xmlns="http://www.w3.org/2000/svg" xmlns:xlink="http://www.w3.org/1999/xlink" x="0px" y="0px"
	 viewBox="0 0 30 30" style="enable-background:new 0 0 30 30;" xml:space="preserve">
<path d="M15,4.8c-3.5,0-6.3,2.8-6.3,6.3s2.8,6.3,6.3,6.3s6.4-2.8,6.4-6.3S18.5,4.8,15,4.8z M15,14.5c-1.9,0-3.5-1.5-3.5-3.4
	c0-1.9,1.6-3.4,3.5-3.4c1.9,0,3.5,1.5,3.5,3.4C18.5,13,17,14.5,15,14.5z"/>
<path d="M15,0C9,0,3.9,5,3.9,11.1c0,3.2,1.4,6.3,3.9,8.4v9c0,0.8,0.6,1.5,1.5,1.5c0.2,0,5.8-2.8,5.8-2.8s5.5,2.8,5.8,2.8
	c0.9,0,1.5-0.7,1.5-1.5v-9c2.5-2.1,3.9-5.2,3.9-8.4C26.2,5,21.2,0,15,0z M19.4,26.2l-3.7-1.9c-0.2-0.1-0.4-0.1-0.7-0.1
	c-0.2,0-0.5,0.1-0.6,0.1l-3.7,1.9v-4.8c1.4,0.6,2.9,0.9,4.3,0.9c1.5,0,3-0.3,4.4-0.9V26.2z M15,19.3c-4.5,0-8.2-3.6-8.2-8.2
	c0-4.5,3.8-8.2,8.2-8.2s8.2,3.7,8.2,8.2C23.3,15.7,19.5,19.3,15,19.3z"/>
</svg>
