<svg width="12" height="12" viewBox="0 0 12 12" fill="none" xmlns="http://www.w3.org/2000/svg">
<path d="M11.035 0.625H1.41002C1.17796 0.625 0.955395 0.717187 0.791301 0.881282C0.627207 1.04538 0.53502 1.26794 0.53502 1.5V10.25C0.53401 10.4169 0.581212 10.5805 0.670951 10.7211C0.760689 10.8618 0.889146 10.9736 1.04088 11.043C1.1565 11.0968 1.28247 11.1248 1.41002 11.125C1.61543 11.1245 1.81402 11.0513 1.97057 10.9183C1.97318 10.9166 1.97556 10.9146 1.97768 10.9123L3.73424 9.375H11.035C11.2671 9.375 11.4896 9.28281 11.6537 9.11872C11.8178 8.95462 11.91 8.73206 11.91 8.5V1.5C11.91 1.26794 11.8178 1.04538 11.6537 0.881282C11.4896 0.717187 11.2671 0.625 11.035 0.625ZM11.035 8.5H3.73424C3.52819 8.4999 3.32871 8.57253 3.17096 8.70508L3.16439 8.71109L1.41002 10.25V1.5H11.035V8.5Z" fill="#2962FF"/>
</svg>
