<?xml version="1.0" encoding="utf-8"?>
<svg version="1.1" xmlns="http://www.w3.org/2000/svg" xmlns:xlink="http://www.w3.org/1999/xlink" x="0px" y="0px"
	 viewBox="0 0 30 30" style="enable-background:new 0 0 30 30;" xml:space="preserve">
<style type="text/css">
	.st0{fill:#E27625;}
	.st1{fill:#D5BFB2;}
	.st2{fill:#233447;}
	.st3{fill:#CC6228;}
	.st4{fill:#E27525;}
	.st5{fill:#F5841F;}
	.st6{fill:#763E1A;}
	.st7{fill:#C0AC9D;}
	.st8{fill:#161616;}
</style>
<path class="st0" d="M13.5,9.8l-2-5.1c0-0.1-0.1-0.2-0.2-0.2L2,1C1.9,1,1.7,1,1.6,1.2s0,0.4,0.1,0.5L13,10.3
	c0.1,0.1,0.1,0.1,0.2,0.1c0.1,0,0.2,0,0.2-0.1C13.5,10.2,13.6,10,13.5,9.8z"/>
<path class="st0" d="M9.3,25.5l-3-4.7c-0.1-0.1-0.2-0.2-0.3-0.2l-5.3,0.1c-0.1,0-0.2,0.1-0.3,0.2s-0.1,0.2-0.1,0.3l1.8,6.3
	c0.1,0.2,0.2,0.4,0.5,0.3C2.7,27.8,9,26,9,26c0.1,0,0.2-0.1,0.3-0.2C9.3,25.7,9.3,25.6,9.3,25.5z"/>
<path class="st0" d="M9.7,20.9c-0.1-0.1-0.2-0.1-0.4-0.1c-0.1,0.1-0.2,0.2-0.2,0.3l-0.6,4.5c0,0.1,0,0.3,0.2,0.3
	C8.8,26,8.9,26,8.9,26C9,26,9,26,9.1,26l3.9-1.9c0.1-0.1,0.2-0.2,0.2-0.3c0-0.1,0-0.3-0.1-0.3L9.7,20.9z"/>
<path class="st0" d="M13.2,8.9c-0.1-0.1-0.3,0-0.4,0.1l-4.4,3.9c0,0,0,0-0.1,0.1l-1.8,2.7c-0.1,0.1-0.1,0.3,0,0.4s0.2,0.2,0.3,0.2
	l6.4,0.3l0,0c0.1,0,0.2,0,0.3-0.1s0.1-0.2,0.1-0.3l-0.2-6.9C13.4,9.1,13.3,9,13.2,8.9z"/>
<path class="st1" d="M12.6,23.5l-3.7,1.9V26l3.4,1.7l0.9-3.9L12.6,23.5z"/>
<path class="st2" d="M12,17.4c-0.1-0.2-0.3-0.3-0.5-0.2l-2.3,1C9.1,18.3,9,18.4,9,18.6s0.1,0.3,0.3,0.3l3.2,1h0.1
	c0.1,0,0.2,0,0.3-0.1s0.1-0.3,0.1-0.4L12,17.4z"/>
<path class="st3" d="M9.8,20.8c-0.1-0.1-0.2-0.1-0.3-0.1l-3.6,0.1c-0.1,0-0.3,0.1-0.3,0.2c-0.1,0.1-0.1,0.3,0,0.4l3,4.6
	c0.1,0,0.2,0,0.3,0C9,26,9,26,9,26c0.2,0,0.3-0.2,0.3-0.3l0.6-4.6C9.9,21,9.9,20.9,9.8,20.8z"/>
<path class="st3" d="M13.5,16c-0.1-0.1-0.2-0.1-0.3-0.1l-6.4-0.3c-0.2,0-0.3,0.1-0.4,0.2c-0.1,0.1,0,0.3,0.1,0.4l2.6,2.7
	C9.2,19,9.4,19,9.5,19l1.9-0.9l0.8,1.7c0.1,0.1,0.2,0.2,0.3,0.2l0,0c0.2,0,0.3-0.1,0.3-0.3l0.6-3.3C13.6,16.2,13.6,16.1,13.5,16z"/>
<path class="st4" d="M9.7,18.3l-2.6-2.7c-0.1-0.1-0.3-0.1-0.5,0c-0.1,0.1-0.2,0.3-0.1,0.5l2.7,5.3c0.1,0.1,0.2,0.2,0.3,0.2h0.1
	c0.2,0,0.3-0.2,0.3-0.4l-0.1-2.6C9.8,18.4,9.7,18.4,9.7,18.3z"/>
<path class="st4" d="M13.3,15.8c-0.2,0-0.3,0.1-0.4,0.3l-0.6,3.3v0.1l0.7,3.9c0,0.2,0.2,0.3,0.4,0.3l0,0c0.2,0,0.3-0.2,0.3-0.4
	l0.2-5.2L13.6,16C13.6,16,13.4,15.8,13.3,15.8z"/>
<path class="st5" d="M12.7,19.2l-3.2-1c-0.1,0-0.2,0-0.3,0.1c-0.1,0-0.2,0.1-0.2,0.3l0.1,2.6c0,0.1,0.1,0.2,0.1,0.3l3.3,2.6
	c0.1,0.1,0.1,0.1,0.2,0.1c0.1,0,0.1,0,0.2-0.1l0.6-0.4c0.1-0.1,0.2-0.2,0.2-0.4L13,19.4C13,19.3,12.9,19.2,12.7,19.2z"/>
<path class="st6" d="M2.1,1.1C2,1,1.9,1,1.8,1S1.6,1.1,1.6,1.2L0.1,5.6c0,0.1,0,0.1,0,0.2L1,10.2l-0.4,0.3c0,0-0.2,0.1-0.2,0.3
	s0.1,0.3,0.1,0.3L1,11.5l-0.3,0.3c0,0-0.1,0.1-0.1,0.3c0,0.2,0.1,0.3,0.1,0.3l0.6,0.5L1.1,13c0,0-0.1,0.1-0.1,0.3
	c0,0.2,0.1,0.3,0.1,0.3l1.3,1.6c0.1,0.1,0.2,0.1,0.3,0.1h0.1l6-1.7c0,0,0.1,0,0.1-0.1l4.3-3.6c0.1-0.1,0.1-0.2,0.1-0.3
	s-0.1-0.2-0.1-0.3L2.1,1.1z"/>
<path class="st5" d="M7.2,15.9l1.7-2.6C9,13.2,9,13,8.9,12.9c-0.1-0.1-0.3-0.2-0.4-0.1l-6,1.7c0,0-0.3,0.1-0.3,0.2l-2,6.2
	c0,0.1,0,0.2,0.1,0.3c0.1,0.1,0.2,0.2,0.3,0.2h5.3l3.6,0.1l0,0c0.1,0,0.2-0.1,0.3-0.2s0.1-0.2,0-0.4L7.2,15.9z"/>
<path class="st0" d="M16.6,10.3c0,0.1,0.1,0.1,0.2,0.1s0.1,0,0.2-0.1l11.3-8.6c0.1-0.1,0.2-0.3,0.1-0.5S28.1,1,28,1l-9.3,3.5
	c-0.1,0-0.2,0.1-0.2,0.2l-2,5.1C16.4,10,16.5,10.2,16.6,10.3z"/>
<path class="st0" d="M20.7,25.8c0.1,0.1,0.2,0.2,0.3,0.2c0,0,6.3,1.8,6.4,1.8c0.3,0.1,0.4-0.1,0.5-0.3l1.8-6.3c0-0.1,0-0.2-0.1-0.3
	c-0.1-0.1-0.2-0.2-0.3-0.2L24,20.6c-0.1,0-0.2,0.1-0.3,0.2l-3,4.7C20.7,25.6,20.7,25.7,20.7,25.8z"/>
<path class="st0" d="M16.9,23.5c-0.1,0-0.1,0.2-0.1,0.3c0,0.1,0.1,0.2,0.2,0.3l3.9,1.9c0.1,0,0.1,0,0.2,0c0,0,0.1,0,0.2-0.1
	c0.2,0,0.2-0.2,0.2-0.3l-0.6-4.5c0-0.1-0.1-0.2-0.2-0.3c-0.2,0-0.3,0-0.4,0.1L16.9,23.5z"/>
<path class="st0" d="M16.6,9.3l-0.2,6.9c0,0.1,0,0.2,0.1,0.3s0.2,0.1,0.3,0.1l0,0l6.4-0.3c0.1,0,0.2-0.1,0.3-0.2s0.1-0.3,0-0.4
	L21.7,13c-0.1-0.1-0.1-0.1-0.1-0.1L17.2,9c-0.1-0.1-0.3-0.2-0.4-0.1S16.6,9.1,16.6,9.3z"/>
<path class="st1" d="M16.8,23.8l0.9,3.9l3.4-1.7v-0.6l-3.7-1.9L16.8,23.8z"/>
<path class="st2" d="M17,19.4c0,0.1,0,0.3,0.1,0.4s0.2,0.1,0.3,0.1h0.1l3.2-1c0.2,0,0.3-0.1,0.3-0.3s-0.1-0.3-0.2-0.4l-2.3-1
	c-0.2-0.1-0.4,0-0.5,0.2L17,19.4z"/>
<path class="st3" d="M20.1,21.1l0.6,4.6c0,0.1,0.1,0.3,0.3,0.3c0,0,0,0,0.1,0c0.1,0,0.2,0,0.3,0l3-4.6c0.1-0.1,0.1-0.3,0-0.4
	c0-0.1-0.2-0.2-0.3-0.2l-3.6-0.1c-0.1,0-0.2,0-0.3,0.1C20.1,20.9,20.1,21,20.1,21.1z"/>
<path class="st3" d="M16.6,16.4l0.6,3.3c0,0.2,0.1,0.3,0.3,0.3l0,0c0.1,0,0.2-0.1,0.3-0.2l0.8-1.7l1.9,0.9c0.1,0,0.3,0,0.4-0.1
	l2.6-2.7c0.1-0.1,0.2-0.3,0.1-0.4c-0.1-0.1-0.2-0.2-0.4-0.2l-6.4,0.3c-0.1,0-0.2,0-0.3,0.1S16.4,16.2,16.6,16.4z"/>
<path class="st4" d="M20.2,18.6l-0.1,2.6c0,0.2,0.1,0.4,0.3,0.4h0.1c0.1,0,0.2-0.1,0.3-0.2l2.7-5.3c0.1-0.2,0-0.4-0.1-0.5
	c-0.2-0.1-0.4-0.1-0.5,0l-2.6,2.7C20.3,18.4,20.2,18.4,20.2,18.6z"/>
<path class="st4" d="M16.4,16l-0.3,2.1l0.2,5.2c0,0.2,0.1,0.4,0.3,0.4l0,0c0.2,0,0.4-0.1,0.4-0.3l0.7-3.9v-0.1l-0.6-3.3
	c-0.1-0.2-0.2-0.3-0.4-0.3C16.6,15.8,16.4,16,16.4,16z"/>
<path class="st5" d="M17,19.4l-0.7,3.9c0,0.2,0.1,0.3,0.2,0.4l0.6,0.4c0.1,0.1,0.1,0.1,0.2,0.1c0.1,0,0.1,0,0.2-0.1l3.3-2.6
	c0-0.1,0.1-0.2,0.1-0.3l0.1-2.6c0-0.2-0.1-0.3-0.2-0.3c-0.1-0.1-0.2-0.1-0.3-0.1l-3.2,1C17.1,19.2,17,19.3,17,19.4z"/>
<path class="st7" d="M21.4,25.4c-0.1-0.1-0.3-0.2-0.5-0.1l-3.1,1.5v-0.5h-5.6v0.5l-3.1-1.5c-0.2-0.1-0.4,0-0.5,0.1
	c-0.1,0.1-0.1,0.4,0.1,0.5l4.1,3H15h2.2l4.1-3C21.5,25.8,21.5,25.5,21.4,25.4z"/>
<path class="st8" d="M17.6,23.8c0-0.1-0.1-0.2-0.2-0.3c0,0-0.7-0.5-0.8-0.5H15h-1.6c-0.1,0-0.8,0.5-0.8,0.5
	c-0.1,0.1-0.2,0.2-0.2,0.3l-0.3,2.5c0,0.2,0.1,0.3,0.2,0.4c0.2,0.1,0.3,0,0.4-0.1l0.2-0.2H15h2.1l0.2,0.2c0.1,0.1,0.2,0.2,0.4,0.1
	c0.1-0.1,0.2-0.2,0.2-0.4L17.6,23.8z"/>
<path class="st6" d="M16.8,9.3c0,0.1-0.1,0.2-0.1,0.3s0,0.2,0.1,0.3l4.3,3.6c0,0.1,0.1,0.1,0.1,0.1l6,1.7h0.1c0.1,0,0.2,0,0.3-0.1
	l1.3-1.6c0,0,0.1-0.1,0.1-0.3c0-0.2-0.1-0.3-0.1-0.3l-0.2-0.1l0.6-0.5c0,0,0.1-0.1,0.1-0.3c0-0.2-0.1-0.3-0.1-0.3L29,11.5l0.5-0.4
	c0,0,0.1-0.1,0.1-0.3c0-0.2-0.2-0.3-0.2-0.3L29,10.2l0.9-4.4c0-0.1,0-0.1,0-0.2l-1.5-4.4c0-0.1-0.1-0.2-0.2-0.2S28,1,27.9,1.1
	L16.8,9.3z"/>
<path class="st5" d="M20.2,20.9c-0.1,0.2-0.1,0.3,0,0.4s0.2,0.2,0.3,0.2l0,0l3.6-0.1h5.3c0.1,0,0.3,0,0.3-0.2
	c0.1-0.1,0.1-0.2,0.1-0.3l-2-6.2c0-0.1-0.3-0.2-0.3-0.2l-6-1.7c-0.1-0.1-0.3,0-0.4,0.1c-0.1,0.1-0.1,0.3,0,0.4l1.7,2.6L20.2,20.9z"
	/>
<path class="st5" d="M19.1,4.7c-0.1-0.1-0.2-0.2-0.3-0.2H15h-3.8c-0.1,0-0.2,0.1-0.3,0.2c-0.1,0.1-0.1,0.2,0,0.3l1.7,4.7l0.5,8.7
	v5.1c0,0.2,0.2,0.4,0.4,0.4H15h1.5c0.2,0,0.4-0.2,0.4-0.4v-5.1l0.5-8.7L19.1,5C19.1,4.9,19.2,4.8,19.1,4.7z"/>
</svg>
