<svg id="Layer_1" data-name="Layer 1" xmlns="http://www.w3.org/2000/svg" viewBox="0 0 16.88 10.12">
  <path d="M8.44,2.25c-.56,0-1.1,.16-1.56,.47s-.82,.75-1.04,1.26c-.21,.51-.27,1.08-.16,1.62,.11,.55,.38,1.05,.77,1.44,.39,.39,.89,.66,1.44,.77,.55,.11,1.11,.05,1.62-.16,.51-.21,.95-.57,1.26-1.04,.31-.46,.47-1.01,.47-1.56,0-.75-.3-1.46-.82-1.99-.53-.53-1.24-.82-1.99-.82Zm0,4.5c-.33,0-.66-.1-.94-.28-.28-.19-.49-.45-.62-.76-.13-.31-.16-.65-.1-.97,.07-.33,.23-.63,.46-.86s.54-.4,.86-.46c.33-.07,.67-.03,.97,.1,.31,.13,.57,.34,.76,.62,.19,.28,.28,.6,.28,.94,0,.45-.18,.88-.49,1.19-.32,.32-.75,.49-1.19,.49ZM16.31,0H.56C.41,0,.27,.06,.16,.16c-.11,.11-.16,.25-.16,.4V9.56c0,.15,.06,.29,.16,.4,.11,.11,.25,.16,.4,.16h15.75c.15,0,.29-.06,.4-.16,.11-.11,.16-.25,.16-.4V.56c0-.15-.06-.29-.16-.4-.11-.11-.25-.16-.4-.16Zm-3.26,9H3.82c-.19-.64-.53-1.22-1.01-1.69s-1.05-.82-1.69-1.01V3.82c.64-.19,1.22-.53,1.69-1.01s.82-1.05,1.01-1.69H13.05c.19,.64,.53,1.22,1.01,1.69s1.05,.82,1.69,1.01v2.48c-.64,.19-1.22,.53-1.69,1.01s-.82,1.05-1.01,1.69Zm2.7-6.37c-.67-.29-1.21-.83-1.5-1.5h1.5v1.5ZM2.63,1.12c-.29,.67-.83,1.21-1.5,1.5V1.12h1.5ZM1.12,7.5c.67,.29,1.21,.83,1.5,1.5H1.12v-1.5Zm13.12,1.5c.29-.67,.83-1.21,1.5-1.5v1.5h-1.5Z" />
</svg>
