<?xml version="1.0" encoding="utf-8"?>
<svg version="1.1" xmlns="http://www.w3.org/2000/svg" xmlns:xlink="http://www.w3.org/1999/xlink" x="0px" y="0px"
	 viewBox="0 0 30 30" style="enable-background:new 0 0 30 30;" xml:space="preserve">
<path d="M30,10.9c0,0.6-0.5,1.2-1.2,1.2h-2.3v2.3c0,0.6-0.5,1.2-1.2,1.2c-0.6,0-1.2-0.5-1.2-1.2v-2.3h-2.3c-0.6,0-1.2-0.5-1.2-1.2
	s0.5-1.2,1.2-1.2h2.3V7.5c0-0.6,0.5-1.2,1.2-1.2c0.6,0,1.2,0.5,1.2,1.2v2.3h2.3C29.5,9.8,30,10.3,30,10.9z M16.1,5.2h1.2v1.2
	c0,0.6,0.5,1.2,1.2,1.2s1.2-0.5,1.2-1.2V5.2h1.2c0.6,0,1.2-0.5,1.2-1.2s-0.5-1.2-1.2-1.2h-1.2V1.7c0-0.6-0.5-1.2-1.2-1.2
	S17.3,1,17.3,1.7v1.2h-1.2C15.5,2.9,15,3.4,15,4S15.5,5.2,16.1,5.2z M26.8,20.4c-2.6,7.2-10.6,10.8-17.7,8.2S-1.8,18,0.9,10.8
	C2.3,7,5.3,4,9.1,2.6c0.6-0.2,1,0,1.3,0.3s0.3,0.7,0.2,1c-1.4,6.9,3.1,13.5,10,14.9c1.6,0.3,3.3,0.3,4.9,0c0.4-0.1,0.8,0,1.1,0.4
	S26.9,20,26.8,20.4z M23.8,21.3C15.6,21.7,8.5,15.4,8.1,7.1c0-0.2,0-0.5,0-0.7c0-0.3,0-0.5,0-0.8C2.6,8.7,0.7,15.8,3.9,21.3
	s10.2,7.4,15.7,4.2C21.4,24.5,22.8,23.1,23.8,21.3L23.8,21.3L23.8,21.3z"/>
</svg>
