<svg width="16" height="16" viewBox="0 0 16 16" fill="none" xmlns="http://www.w3.org/2000/svg">
<path d="M6.5 8H13.5" stroke="#101828" stroke-width="1.2" stroke-linecap="round" stroke-linejoin="round"/>
<path d="M6.5 4H13.5" stroke="#101828" stroke-width="1.2" stroke-linecap="round" stroke-linejoin="round"/>
<path d="M6.5 12H13.5" stroke="#101828" stroke-width="1.2" stroke-linecap="round" stroke-linejoin="round"/>
<path d="M2.5 3.75L3.5 3.25V6.75" stroke="#101828" stroke-width="1.2" stroke-linecap="round" stroke-linejoin="round"/>
<path d="M2.56875 9.53562C2.61482 9.42154 2.68444 9.31845 2.77305 9.23309C2.86167 9.14774 2.96729 9.08203 3.08301 9.04025C3.19874 8.99848 3.32198 8.98159 3.44468 8.99067C3.56739 8.99975 3.68679 9.03461 3.79511 9.09297C3.90343 9.15133 3.99822 9.23188 4.0733 9.32935C4.14837 9.42683 4.20205 9.53904 4.23082 9.65866C4.2596 9.77829 4.26282 9.90264 4.24027 10.0236C4.21773 10.1445 4.16993 10.2594 4.1 10.3606L2.5 12.4981H4.25" stroke="#101828" stroke-width="1.2" stroke-linecap="round" stroke-linejoin="round"/>
</svg>
