<?xml version="1.0" encoding="utf-8"?>
<svg version="1.1" xmlns="http://www.w3.org/2000/svg" xmlns:xlink="http://www.w3.org/1999/xlink" x="0px" y="0px"
	 viewBox="0 0 30 30" style="enable-background:new 0 0 30 30;" xml:space="preserve">
<style type="text/css">
	.st0{fill:#9C59F2;}
	.st1{fill:#FFFFFF;}
</style>
<circle class="st0" cx="15" cy="15" r="15"/>
<path class="st1" d="M11.5,11.3h5.2c0.3,1.2,1.4,2.1,2.7,2.1c1.5,0,2.7-1.2,2.7-2.7C22.2,9.2,21,8,19.4,8c-1.3,0-2.4,0.9-2.7,2.1
	l-5.3,0c-0.9,0-2.6,0.9-2.6,3c0,2.2,1.7,3,2.6,3l5.8,0c0.2,0,1.6,0.2,1.6,1.8c0,1.6-1.2,1.8-1.4,1.8h-4.4c-0.2-1.3-1.4-2.2-2.7-2.2
	c-1.5,0-2.7,1.2-2.7,2.7c0,1.5,1.2,2.7,2.7,2.7c1.3,0,2.3-0.9,2.6-2.1l4.5,0c0.9,0,2.5-0.9,2.5-3c0-2.2-1.7-3-2.7-3l-5.8,0
	c-0.1,0-1.5-0.2-1.5-1.8C10.1,11.5,11.3,11.3,11.5,11.3z M19.4,9.2c0.8,0,1.5,0.7,1.5,1.5c0,0.8-0.7,1.5-1.5,1.5s-1.5-0.7-1.5-1.5
	C17.9,9.8,18.6,9.2,19.4,9.2z M10.4,21.8c-0.8,0-1.5-0.7-1.5-1.5c0-0.8,0.7-1.5,1.5-1.5s1.5,0.7,1.5,1.5
	C12,21.1,11.3,21.8,10.4,21.8z"/>
</svg>
