<svg width="32" height="29" viewBox="0 0 32 29" fill="none" xmlns="http://www.w3.org/2000/svg">
<path d="M29.1247 19.2188C28.9473 19.0768 28.7269 18.9994 28.4997 18.9994C28.2725 18.9994 28.0521 19.0768 27.8747 19.2188C27.7572 19.3138 24.9997 21.5538 24.9997 24.5C24.9997 25.4283 25.3685 26.3185 26.0248 26.9749C26.6812 27.6313 27.5714 28 28.4997 28C29.428 28 30.3182 27.6313 30.9746 26.9749C31.631 26.3185 31.9997 25.4283 31.9997 24.5C31.9997 21.5538 29.2422 19.3138 29.1247 19.2188ZM28.4997 26C28.1019 26 27.7203 25.842 27.439 25.5607C27.1577 25.2794 26.9997 24.8979 26.9997 24.5C26.9997 23.2275 27.8747 22.0588 28.4997 21.3838C29.1247 22.0613 29.9997 23.2338 29.9997 24.5C29.9997 24.8979 29.8417 25.2794 29.5604 25.5607C29.2791 25.842 28.8975 26 28.4997 26ZM28.7072 13.7288L15.271 0.292539C15.0834 0.105145 14.8292 -0.00012207 14.5641 -0.00012207C14.299 -0.00012207 14.0447 0.105145 13.8572 0.292539L8.78095 5.37504L5.70595 2.29254C5.51831 2.10506 5.26388 1.99981 4.99864 1.99993C4.73339 2.00004 4.47905 2.10552 4.29158 2.29316C4.1041 2.4808 3.99885 2.73523 3.99896 3.00048C3.99908 3.26573 4.10456 3.52006 4.2922 3.70754L7.3672 6.78254L1.8747 12.2713C1.31214 12.8339 0.996094 13.5969 0.996094 14.3925C0.996094 15.1882 1.31214 15.9512 1.8747 16.5138L12.486 27.125C13.0486 27.6876 13.8116 28.0036 14.6072 28.0036C15.4028 28.0036 16.1659 27.6876 16.7285 27.125L28.7072 15.1463C28.8006 15.0534 28.8746 14.9429 28.9252 14.8213C28.9757 14.6997 29.0017 14.5693 29.0017 14.4375C29.0017 14.3058 28.9757 14.1754 28.9252 14.0538C28.8746 13.9322 28.8006 13.8217 28.7072 13.7288ZM15.3135 25.7075C15.1259 25.8949 14.8717 26.0002 14.6066 26.0002C14.3415 26.0002 14.0872 25.8949 13.8997 25.7075L3.2922 15.1C3.10481 14.9125 2.99954 14.6583 2.99954 14.3932C2.99954 14.1281 3.10481 13.8738 3.2922 13.6863L8.78095 8.19629L12.421 11.8363C12.0215 12.576 11.9016 13.4348 12.0832 14.2556C12.2649 15.0765 12.7359 15.8045 13.4102 16.3066C14.0845 16.8087 14.917 17.0514 15.7554 16.9901C16.5939 16.9289 17.3823 16.5679 17.9765 15.9732C18.5707 15.3785 18.931 14.5897 18.9915 13.7512C19.052 12.9127 18.8086 12.0804 18.3059 11.4066C17.8032 10.7327 17.0748 10.2623 16.2538 10.0814C15.4328 9.90051 14.5741 10.0212 13.8347 10.4213L10.196 6.78254L14.571 2.41379L26.5922 14.435L15.3135 25.7075ZM15.4997 12C15.8467 12.0006 16.1829 12.1215 16.4508 12.3421C16.7187 12.5627 16.9018 12.8693 16.9689 13.2098C17.0361 13.5503 16.9831 13.9035 16.819 14.2093C16.6549 14.5151 16.3898 14.7545 16.069 14.8868C15.7481 15.0191 15.3913 15.036 15.0594 14.9347C14.7275 14.8334 14.441 14.6201 14.2486 14.3313C14.0563 14.0424 13.9701 13.6958 14.0048 13.3504C14.0394 13.0051 14.1926 12.6825 14.4385 12.4375C14.7202 12.1568 15.1019 11.9994 15.4997 12Z" fill="black"/>
</svg>
