<svg width="14" height="14" viewBox="0 0 14 14" fill="none" xmlns="http://www.w3.org/2000/svg">
<g id="PaperPlaneTilt">
<path id="Vector" d="M12.4316 1.56846C12.3215 1.4585 12.1842 1.37986 12.0336 1.34064C11.8831 1.30143 11.7248 1.30304 11.5752 1.34534H11.5669L1.07023 4.53034C0.899363 4.57947 0.747518 4.6795 0.634917 4.81709C0.522316 4.95468 0.454301 5.12331 0.439929 5.30052C0.425557 5.47773 0.465511 5.65512 0.554469 5.80906C0.643428 5.96299 0.77717 6.08618 0.937887 6.16221L5.62023 8.37979L7.83781 13.0621C7.90782 13.2121 8.01927 13.3389 8.159 13.4275C8.29873 13.5162 8.46092 13.563 8.6264 13.5625C8.65156 13.5625 8.67671 13.5614 8.70187 13.5592C8.87846 13.5449 9.04645 13.477 9.1833 13.3645C9.32015 13.252 9.41932 13.1003 9.4675 12.9298L12.6503 2.43307C12.6503 2.43034 12.6503 2.4276 12.6503 2.42487C12.6931 2.27555 12.6955 2.11752 12.657 1.96701C12.6186 1.8165 12.5408 1.67894 12.4316 1.56846ZM8.63132 12.6793L8.62859 12.687L6.47609 8.14299L9.05953 5.55901C9.13811 5.47629 9.18127 5.36615 9.17981 5.25207C9.17835 5.13799 9.13238 5.02899 9.05171 4.94831C8.97103 4.86764 8.86203 4.82167 8.74795 4.82021C8.63387 4.81874 8.52373 4.86191 8.44101 4.94049L5.85703 7.52393L1.3125 5.37143H1.32015L11.8125 2.18752L8.63132 12.6793Z" fill="#101828"/>
</g>
</svg>
