<?xml version="1.0" encoding="UTF-8"?>
<svg id="Layer_1" data-name="Layer 1" xmlns="http://www.w3.org/2000/svg" viewBox="0 0 11.38 11.38">
  <path d="M9.71,1.67c-1.07-1.07-2.51-1.67-4.02-1.67S2.73,.6,1.67,1.67C.6,2.73,0,4.18,0,5.69s.6,2.96,1.67,4.02c1.07,1.07,2.51,1.67,4.02,1.67s2.96-.6,4.02-1.67c1.07-1.07,1.67-2.51,1.67-4.02s-.6-2.96-1.67-4.02ZM3.5,9.19c0-.23,.09-.45,.26-.62,.16-.16,.39-.26,.62-.26s.45,.09,.62,.26c.16,.16,.26,.39,.26,.62v1.29c-.61-.06-1.2-.23-1.75-.5v-.79Zm2.62,0c0-.23,.09-.45,.26-.62,.16-.16,.39-.26,.62-.26s.45,.09,.62,.26c.16,.16,.26,.39,.26,.62v.79c-.55,.28-1.14,.45-1.75,.5v-1.29Zm-1.57-3.06h2.27l.63,1.37c-.32-.08-.65-.08-.96,.01-.31,.09-.59,.27-.81,.52-.22-.25-.49-.43-.81-.52-.31-.09-.64-.1-.96-.01l.63-1.37Zm.4-.88l.73-1.58,.73,1.58h-1.46Zm4.13,3.84c-.11,.11-.22,.21-.34,.31v-1.09c0-.06-.01-.13-.04-.18L6.08,2.44c-.04-.08-.09-.14-.16-.18-.07-.04-.15-.07-.24-.07s-.17,.02-.24,.07-.13,.11-.16,.18l-2.62,5.69c-.03,.06-.04,.12-.04,.18v1.09c-.12-.1-.23-.2-.34-.31-.67-.67-1.13-1.53-1.32-2.46-.19-.93-.09-1.9,.27-2.78,.36-.88,.98-1.63,1.77-2.16,.79-.53,1.72-.81,2.67-.81s1.88,.28,2.67,.81c.79,.53,1.41,1.28,1.77,2.16,.36,.88,.46,1.85,.27,2.78-.19,.93-.64,1.79-1.32,2.46Z"/>
</svg>