<?xml version="1.0" encoding="utf-8"?>
<svg version="1.1" xmlns="http://www.w3.org/2000/svg" xmlns:xlink="http://www.w3.org/1999/xlink" x="0px" y="0px"
	 viewBox="0 0 30 30" style="enable-background:new 0 0 30 30;" xml:space="preserve">
<path d="M29.3,7.4l-6.7-6.7c-0.9-0.9-2.5-0.9-3.4,0L0.8,19.2c-0.5,0.4-0.7,1.1-0.7,1.7v6.7c0,1.3,1.1,2.4,2.4,2.4h6.7
	c0.6,0,1.2-0.3,1.7-0.7l18.5-18.5C30.2,9.8,30.2,8.3,29.3,7.4z M3,20.4L15.6,7.7l2.5,2.5L5.4,22.9L3,20.4z M2.5,23.3l4.3,4.3H2.5
	V23.3z M9.6,27.1l-2.5-2.5l12.7-12.7l2.5,2.5C22.3,14.4,9.6,27.1,9.6,27.1z M24,12.7L17.3,6l3.6-3.6l6.7,6.7
	C27.6,9.1,24,12.7,24,12.7z"/>
</svg>
