<?xml version="1.0" encoding="UTF-8"?>
<svg xmlns="http://www.w3.org/2000/svg" viewBox="0 0 14.06 14.06">
  <path d="M13.73,3.47L10.59,.33c-.1-.1-.23-.19-.36-.24s-.28-.09-.43-.09-.29,.03-.43,.09c-.14,.06-.26,.14-.36,.24L.33,9c-.1,.1-.19,.23-.24,.36C.03,9.5,0,9.65,0,9.8v3.14C0,13.24,.12,13.52,.33,13.73c.21,.21,.5,.33,.8,.33h3.14c.15,0,.29-.03,.43-.09,.14-.06,.26-.14,.36-.24L13.73,5.06c.1-.1,.19-.23,.24-.36,.06-.14,.09-.28,.09-.43s-.03-.29-.09-.43c-.06-.14-.14-.26-.24-.37ZM1.36,9.56L7.31,3.61l1.17,1.17L2.53,10.74l-1.17-1.17Zm-.23,1.36l2.02,2.02H1.13v-2.02Zm3.38,1.78l-1.17-1.17,5.95-5.95,1.17,1.17-5.95,5.95Zm6.75-6.75l-3.14-3.14,1.69-1.69,3.14,3.14-1.69,1.69Z"/>
</svg>