<?xml version="1.0" encoding="utf-8"?>
<svg version="1.1"
	xmlns="http://www.w3.org/2000/svg"
	xmlns:xlink="http://www.w3.org/1999/xlink" x="0px" y="0px" viewBox="0 0 14 14" style="enable-background:new 0 0 14 14;" xml:space="preserve">
<path d="M11.2472 3.37091L3.37216 11.2459C3.29007 11.328 3.17872 11.3741 3.06263 11.3741C2.94653 11.3741 2.83519 11.328 2.7531 11.2459C2.671 11.1638 2.62488 11.0525 2.62488 10.9364C2.62488 10.8203 2.671 10.7089 2.7531 10.6268L10.6281 2.75185C10.7101 2.66975 10.8214 2.62361 10.9374 2.62355C11.0535 2.6235 11.1648 2.66955 11.2469 2.75157C11.329 2.83359 11.3751 2.94487 11.3752 3.06091C11.3752 3.17696 11.3292 3.28827 11.2472 3.37036V3.37091ZM2.76403 5.54747C2.39483 5.1782 2.18745 4.67739 2.1875 4.15521C2.18755 3.63303 2.39504 3.13226 2.76431 2.76306C3.13358 2.39386 3.63439 2.18647 4.15657 2.18652C4.67875 2.18657 5.17952 2.39406 5.54872 2.76333C5.91792 3.1326 6.12531 3.63342 6.12526 4.15559C6.12521 4.67777 5.91772 5.17855 5.54845 5.54775C5.17918 5.91695 4.67836 6.12433 4.15619 6.12428C3.63401 6.12423 3.13323 5.91674 2.76403 5.54747ZM3.06263 4.15622C3.06277 4.33606 3.10725 4.51309 3.19214 4.67163C3.27703 4.83018 3.3997 4.96534 3.54929 5.06516C3.69889 5.16498 3.87079 5.22637 4.04977 5.2439C4.22875 5.26143 4.40929 5.23456 4.57541 5.16566C4.74153 5.09676 4.88809 4.98796 5.00213 4.8489C5.11616 4.70984 5.19415 4.5448 5.22918 4.36841C5.26421 4.19202 5.2552 4.0097 5.20296 3.83762C5.15071 3.66554 5.05684 3.50899 4.92966 3.38185C4.77663 3.22886 4.58166 3.12471 4.36943 3.08256C4.15719 3.04041 3.93722 3.06216 3.73734 3.14506C3.53747 3.22796 3.36668 3.36829 3.24658 3.54828C3.12647 3.72827 3.06246 3.93984 3.06263 4.15622ZM11.8126 9.84372C11.8125 10.2992 11.6545 10.7405 11.3655 11.0926C11.0764 11.4446 10.6743 11.6855 10.2276 11.7743C9.78081 11.863 9.31711 11.7942 8.91546 11.5794C8.51381 11.3646 8.19906 11.0172 8.02484 10.5963C7.85062 10.1755 7.82771 9.70725 7.96001 9.27141C8.09231 8.83558 8.37164 8.4591 8.75039 8.20611C9.12915 7.95313 9.58391 7.83931 10.0372 7.88403C10.4905 7.92875 10.9142 8.12926 11.2362 8.45138C11.4196 8.63381 11.565 8.8508 11.6639 9.0898C11.7629 9.3288 11.8134 9.58505 11.8126 9.84372ZM10.9376 9.84372C10.9377 9.59067 10.85 9.34544 10.6895 9.1498C10.529 8.95415 10.3056 8.82021 10.0575 8.7708C9.8093 8.72138 9.55166 8.75955 9.32847 8.87879C9.10528 8.99803 8.93034 9.19098 8.83346 9.42474C8.73658 9.65851 8.72376 9.91864 8.79717 10.1608C8.87058 10.403 9.02569 10.6122 9.23607 10.7528C9.44645 10.8934 9.69908 10.9568 9.95091 10.932C10.2027 10.9072 10.4382 10.7959 10.6172 10.617C10.719 10.5157 10.7998 10.3952 10.8548 10.2625C10.9098 10.1297 10.938 9.9874 10.9376 9.84372Z"/>
</svg>
