<svg width="12" height="12" viewBox="0 0 12 12" xmlns="http://www.w3.org/2000/svg">
<path d="M4.46883 5.36727C4.53535 5.32886 4.59059 5.27361 4.62899 5.20709C4.66739 5.14056 4.6876 5.0651 4.68758 4.98828V1.05078C4.68719 0.98103 4.67013 0.912383 4.63782 0.850566C4.6055 0.788749 4.55888 0.735553 4.50183 0.695417C4.44478 0.65528 4.37897 0.629365 4.30987 0.619834C4.24077 0.610303 4.17039 0.617431 4.10461 0.640625C2.82765 1.09257 1.75377 1.9852 1.07603 3.15804C0.398284 4.33088 0.161128 5.70702 0.407189 7.03906C0.419944 7.10794 0.449053 7.17276 0.492068 7.22805C0.535083 7.28334 0.590746 7.32749 0.654377 7.3568C0.71172 7.38361 0.774277 7.39743 0.83758 7.39727C0.914368 7.3973 0.989812 7.37711 1.05633 7.33875L4.46883 5.36727ZM3.81258 1.71359V4.73562L1.19414 6.24664C1.18758 6.16406 1.18758 6.08094 1.18758 6C1.18836 5.11317 1.43383 4.24374 1.89698 3.48746C2.36013 2.73117 3.02299 2.11736 3.81258 1.71359ZM10.9405 3.18469C10.9356 3.17484 10.9307 3.16445 10.9247 3.15461C10.9187 3.14477 10.9138 3.13656 10.9077 3.12781C10.4063 2.2713 9.68952 1.56084 8.82861 1.06697C7.9677 0.573105 6.99259 0.313006 6.00008 0.3125C5.88405 0.3125 5.77277 0.358594 5.69072 0.440641C5.60867 0.522688 5.56258 0.633968 5.56258 0.75V5.77195L1.25266 8.28211C1.20264 8.3111 1.15887 8.34972 1.12387 8.39573C1.08887 8.44174 1.06334 8.49423 1.04874 8.55016C1.03415 8.6061 1.03078 8.66437 1.03884 8.72162C1.04691 8.77886 1.06623 8.83394 1.09571 8.88367C1.72804 9.96046 2.69718 10.7992 3.85355 11.2705C5.00993 11.7418 6.28927 11.8194 7.49414 11.4914C8.69901 11.1633 9.76244 10.4479 10.5203 9.45545C11.2782 8.46301 11.6884 7.24873 11.6876 6C11.6888 5.01241 11.4313 4.04173 10.9405 3.18469ZM6.43758 1.20719C7.13145 1.27106 7.8032 1.48476 8.40644 1.83354C9.00967 2.18232 9.53002 2.65786 9.93156 3.22734L6.43758 5.26227V1.20719ZM6.00008 10.8125C5.23632 10.8105 4.48388 10.6278 3.80435 10.2791C3.12481 9.93044 2.5375 9.42583 2.09047 8.80656L6.21391 6.40523L6.22594 6.39758L10.3696 3.98422C10.7078 4.71744 10.8561 5.52397 10.8008 6.32954C10.7455 7.13511 10.4884 7.91382 10.0532 8.59396C9.61798 9.27409 9.01862 9.83378 8.31032 10.2215C7.60201 10.6092 6.80755 10.8124 6.00008 10.8125Z" />
</svg>
