<?xml version="1.0" encoding="utf-8"?>
<svg version="1.1" xmlns="http://www.w3.org/2000/svg" xmlns:xlink="http://www.w3.org/1999/xlink" x="0px" y="0px"
	 viewBox="0 0 30 30" style="enable-background:new 0 0 30 30;" xml:space="preserve">
<path d="M17.9,16.4c-0.4-0.4-1.1-0.4-1.5,0l-2.5,2.5l-2.8-2.8l2.5-2.5c0.4-0.4,0.4-1.1,0-1.5c-0.4-0.4-1.1-0.4-1.5,0
	l-2.5,2.5l-2.5-2.5c-0.4-0.4-1.1-0.4-1.5,0c-0.4,0.4-0.4,1.1,0,1.5l0.9,0.8l-3.1,3.1c-1.7,1.7-1.7,4.4,0,6.1l0.7,0.7l-3.8,3.8
	c-0.4,0.4-0.4,1.1,0,1.5s1.1,0.4,1.5,0l3.8-3.8l0.7,0.7c1.7,1.7,4.4,1.7,6.1,0c0,0,0,0,0,0l3.1-3.1l0.8,0.8c0.4,0.4,1.1,0.4,1.5,0
	c0.4-0.4,0.4-1.1,0-1.5l-2.5-2.5l2.5-2.5C18.3,17.5,18.3,16.8,17.9,16.4C17.9,16.4,17.9,16.4,17.9,16.4L17.9,16.4z M10.9,25.1
	c-0.8,0.8-2.2,0.8-3,0l-3-3c-0.8-0.8-0.8-2.2,0-3L8,16l6,6C14,22,10.9,25.1,10.9,25.1z M29.7,0.3c-0.4-0.4-1.1-0.4-1.5,0
	c0,0,0,0,0,0l-3.8,3.8l-0.7-0.7c-1.7-1.7-4.4-1.7-6.1,0l-3.1,3.1l-0.8-0.9c-0.4-0.4-1.1-0.4-1.5,0c-0.4,0.4-0.4,1.1,0,1.5l10.7,10.7
	c0.4,0.4,1.1,0.4,1.5,0s0.4-1.1,0-1.5l-0.9-0.8l3.1-3.1c1.7-1.7,1.7-4.4,0-6.1c0,0,0,0,0,0l-0.7-0.7l3.8-3.8
	C30.1,1.4,30.1,0.8,29.7,0.3C29.7,0.4,29.7,0.3,29.7,0.3L29.7,0.3z M25.1,10.9L22,14.1l-6-6l3.1-3.1c0.8-0.8,2.2-0.8,3,0l3,2.9
	C25.9,8.7,25.9,10.1,25.1,10.9C25.1,10.9,25.1,10.9,25.1,10.9L25.1,10.9L25.1,10.9z"/>
</svg>
