<?xml version="1.0" encoding="UTF-8"?>
<svg id="Layer_1" data-name="Layer 1" xmlns="http://www.w3.org/2000/svg" viewBox="0 0 12 12">
  <path d="M12,6c0,.13-.05,.26-.15,.35-.09,.09-.22,.15-.35,.15H6.5v5c0,.13-.05,.26-.15,.35-.09,.09-.22,.15-.35,.15s-.26-.05-.35-.15c-.09-.09-.15-.22-.15-.35V6.5H.5c-.13,0-.26-.05-.35-.15-.09-.09-.15-.22-.15-.35s.05-.26,.15-.35c.09-.09,.22-.15,.35-.15H5.5V.5c0-.13,.05-.26,.15-.35,.09-.09,.22-.15,.35-.15s.26,.05,.35,.15c.09,.09,.15,.22,.15,.35V5.5h5c.13,0,.26,.05,.35,.15,.09,.09,.15,.22,.15,.35Z" />
</svg>