<?xml version="1.0" encoding="utf-8"?>
<svg version="1.1" xmlns="http://www.w3.org/2000/svg" xmlns:xlink="http://www.w3.org/1999/xlink" x="0px" y="0px"
	 viewBox="0 0 27 26" style="enable-background:new 0 0 27 26;" xml:space="preserve">
<style type="text/css">
	.st0{fill:#6938EF;}
	.st1{fill:#FFFFFF;}
</style>
<path class="st0" d="M13.5,26c7.2,0,13-5.8,13-13s-5.8-13-13-13c-7.2,0-13,5.8-13,13S6.3,26,13.5,26z"/>
<path class="st1" d="M17.6,10.4c-0.3-0.2-0.7-0.2-1,0l-2.3,1.3l-1.6,0.9l-2.3,1.3c-0.3,0.2-0.7,0.2-1,0l-1.9-1C7.2,12.7,7,12.4,7,12
	V10c0-0.3,0.2-0.7,0.5-0.8l1.8-1c0.3-0.2,0.7-0.2,1,0l1.8,1c0.3,0.2,0.5,0.5,0.5,0.8v1.3l1.6-0.9V9c0-0.2,0-0.3-0.1-0.5
	c-0.1-0.1-0.2-0.3-0.4-0.4l-3.4-1.9c-0.3-0.2-0.7-0.2-1,0L5.9,8.2C5.7,8.3,5.6,8.4,5.5,8.6C5.4,8.7,5.4,8.9,5.4,9v3.9
	c0,0.3,0.2,0.7,0.5,0.8l3.4,1.9c0.3,0.2,0.7,0.2,1,0l2.3-1.3l1.6-0.9l2.3-1.3c0.3-0.2,0.7-0.2,1,0l1.8,1c0.3,0.2,0.5,0.5,0.5,0.8
	v2.1c0,0.3-0.2,0.7-0.5,0.8l-1.8,1c-0.3,0.2-0.7,0.2-1,0l-1.8-1c-0.3-0.2-0.5-0.5-0.5-0.8v-1.3l-1.6,0.9V17c0,0.3,0.2,0.7,0.5,0.8
	l3.4,1.9c0.3,0.2,0.7,0.2,1,0l3.4-1.9c0.3-0.2,0.5-0.5,0.5-0.8v-3.9c0-0.2,0-0.3-0.1-0.5c-0.1-0.1-0.2-0.3-0.4-0.4L17.6,10.4
	L17.6,10.4z"/>
</svg>
