<svg width="16" height="16" viewBox="0 0 16 16" xmlns="http://www.w3.org/2000/svg">
  <path d="M13.7668 9.90868C13.6955 9.86371 13.614 9.8375 13.5299 9.83247C13.4457 9.82745 13.3617 9.84377 13.2856 9.87993C13.095 9.97003 12.8848 10.0105 12.6745 9.99758C12.4641 9.98465 12.2604 9.91874 12.0824 9.80599C11.9043 9.69323 11.7577 9.53729 11.6561 9.35265C11.5544 9.16802 11.5011 8.96068 11.5011 8.74993C11.5011 8.53918 11.5544 8.33184 11.6561 8.14721C11.7577 7.96257 11.9043 7.80663 12.0824 7.69387C12.2604 7.58112 12.4641 7.51521 12.6745 7.50228C12.8848 7.48936 13.095 7.52983 13.2856 7.61993C13.3618 7.6561 13.4459 7.6724 13.5301 7.6673C13.6144 7.66221 13.6959 7.63588 13.7672 7.59078C13.8385 7.54567 13.8973 7.48326 13.938 7.40935C13.9786 7.33543 14 7.25243 13.9999 7.16806V4.49993C13.9999 4.23471 13.8946 3.98036 13.707 3.79282C13.5195 3.60529 13.2652 3.49993 12.9999 3.49993H10.7362C10.7455 3.41692 10.7501 3.33346 10.7499 3.24993C10.7495 2.94263 10.6863 2.63867 10.5642 2.35666C10.4421 2.07466 10.2637 1.82055 10.0399 1.60993C9.73011 1.31894 9.34419 1.12166 8.92686 1.04094C8.50954 0.960225 8.07789 0.999369 7.6819 1.15384C7.28591 1.30832 6.94177 1.5718 6.68934 1.91378C6.43691 2.25576 6.28651 2.66225 6.25556 3.08618C6.24596 3.22408 6.24889 3.36256 6.26431 3.49993H3.99994C3.73472 3.49993 3.48037 3.60529 3.29283 3.79282C3.1053 3.98036 2.99994 4.23471 2.99994 4.49993V6.51368C2.91693 6.50438 2.83346 6.49979 2.74994 6.49993C2.44265 6.50043 2.13869 6.56365 1.85669 6.68574C1.57469 6.80782 1.32059 6.9862 1.10994 7.20993C0.897781 7.43404 0.734419 7.69971 0.630176 7.99017C0.525933 8.28063 0.483076 8.58956 0.504314 8.89743C0.540144 9.43954 0.770486 9.95049 1.15298 10.3363C1.53548 10.7221 2.04441 10.9569 2.58619 10.9974C2.72408 11.0073 2.86259 11.0044 2.99994 10.9887V12.9999C2.99994 13.2651 3.1053 13.5195 3.29283 13.707C3.48037 13.8946 3.73472 13.9999 3.99994 13.9999H12.9999C13.2652 13.9999 13.5195 13.8946 13.707 13.707C13.8946 13.5195 13.9999 13.2651 13.9999 12.9999V10.3318C14 10.2473 13.9786 10.1642 13.9379 10.0902C13.8971 10.0162 13.8383 9.95377 13.7668 9.90868ZM12.9999 12.9999H3.99994V10.3318C3.99997 10.2474 3.97864 10.1644 3.93795 10.0905C3.89726 10.0166 3.83853 9.95419 3.76723 9.90908C3.69592 9.86398 3.61436 9.83765 3.53014 9.83255C3.44593 9.82746 3.36179 9.84376 3.28556 9.87993C3.09504 9.97003 2.88483 10.0105 2.67447 9.99758C2.46412 9.98465 2.26044 9.91874 2.08239 9.80599C1.90433 9.69323 1.75768 9.53729 1.65606 9.35265C1.55444 9.16802 1.50115 8.96068 1.50115 8.74993C1.50115 8.53918 1.55444 8.33184 1.65606 8.14721C1.75768 7.96257 1.90433 7.80663 2.08239 7.69387C2.26044 7.58112 2.46412 7.51521 2.67447 7.50228C2.88483 7.48936 3.09504 7.52983 3.28556 7.61993C3.36179 7.6561 3.44593 7.6724 3.53014 7.6673C3.61436 7.66221 3.69592 7.63588 3.76723 7.59078C3.83853 7.54567 3.89726 7.48326 3.93795 7.40935C3.97864 7.33543 3.99997 7.25243 3.99994 7.16806V4.49993H6.91806C7.00244 4.49996 7.08544 4.47863 7.15936 4.43794C7.23327 4.39725 7.29568 4.33852 7.34079 4.26722C7.38589 4.19591 7.41222 4.11435 7.41731 4.03014C7.42241 3.94592 7.40611 3.86178 7.36994 3.78555C7.27983 3.59503 7.23936 3.38482 7.25229 3.17446C7.26522 2.96411 7.33112 2.76043 7.44388 2.58238C7.55664 2.40432 7.71258 2.25767 7.89722 2.15605C8.08185 2.05443 8.28919 2.00114 8.49994 2.00114C8.71069 2.00114 8.91803 2.05443 9.10266 2.15605C9.2873 2.25767 9.44324 2.40432 9.556 2.58238C9.66875 2.76043 9.73466 2.96411 9.74759 3.17446C9.76051 3.38482 9.72004 3.59503 9.62994 3.78555C9.59376 3.86178 9.57747 3.94592 9.58256 4.03014C9.58766 4.11435 9.61399 4.19591 9.65909 4.26722C9.7042 4.33852 9.76661 4.39725 9.84052 4.43794C9.91443 4.47863 9.99744 4.49996 10.0818 4.49993H12.9999V6.51431C12.8626 6.49857 12.7241 6.49564 12.5862 6.50555C12.0043 6.54676 11.4611 6.81238 11.0712 7.24639C10.6814 7.6804 10.4754 8.24886 10.4966 8.83186C10.5178 9.41486 10.7647 9.96682 11.1851 10.3713C11.6055 10.7758 12.1666 11.0012 12.7499 10.9999C12.8335 11.0001 12.9169 10.9955 12.9999 10.9862V12.9999Z" />
</svg>
