<?xml version="1.0" encoding="utf-8"?>
<svg version="1.1" xmlns="http://www.w3.org/2000/svg" xmlns:xlink="http://www.w3.org/1999/xlink" x="0px" y="0px"
	 viewBox="0 0 30 30" style="enable-background:new 0 0 30 30;" xml:space="preserve">
<path d="M16.7,22.5c0,1-0.8,1.7-1.7,1.7s-1.7-0.8-1.7-1.7s0.8-1.7,1.7-1.7S16.7,21.5,16.7,22.5z M15,6.9
	c-3.2,0-5.8,2.3-5.8,5.2v0.6c0,0.6,0.5,1.2,1.2,1.2c0.6,0,1.2-0.5,1.2-1.2v-0.6c0-1.6,1.6-2.9,3.5-2.9s3.5,1.3,3.5,2.9
	S16.9,15,15,15c-0.6,0-1.2,0.5-1.2,1.2v1.2c0,0.6,0.5,1.2,1.2,1.2c0.6,0,1.2-0.5,1.2-1.2v-0.1c2.6-0.5,4.6-2.6,4.6-5.1
	C20.8,9.3,18.2,6.9,15,6.9z M30,15c0,8.3-6.7,15-15,15S0,23.3,0,15S6.7,0,15,0C23.3,0,30,6.7,30,15z M27.7,15C27.7,8,22,2.3,15,2.3
	S2.3,8,2.3,15S8,27.7,15,27.7C22,27.7,27.7,22,27.7,15z"/>
</svg>
