<svg width="16" height="16" viewBox="0 0 16 16" fill="none" xmlns="http://www.w3.org/2000/svg">
<path d="M6.75 9H2.5C2.36739 9 2.24021 8.94732 2.14645 8.85355C2.05268 8.75979 2 8.63261 2 8.5V4.5C2 4.36739 2.05268 4.24021 2.14645 4.14645C2.24021 4.05268 2.36739 4 2.5 4H6.25C6.38261 4 6.50979 4.05268 6.60355 4.14645C6.69732 4.24021 6.75 4.36739 6.75 4.5V10C6.75 10.663 6.48661 11.2989 6.01777 11.7678C5.54893 12.2366 4.91304 12.5 4.25 12.5" stroke="#101828" stroke-width="1.2" stroke-linecap="round" stroke-linejoin="round"/>
<path d="M14 9H9.75C9.61739 9 9.49021 8.94732 9.39645 8.85355C9.30268 8.75979 9.25 8.63261 9.25 8.5V4.5C9.25 4.36739 9.30268 4.24021 9.39645 4.14645C9.49021 4.05268 9.61739 4 9.75 4H13.5C13.6326 4 13.7598 4.05268 13.8536 4.14645C13.9473 4.24021 14 4.36739 14 4.5V10C14 10.663 13.7366 11.2989 13.2678 11.7678C12.7989 12.2366 12.163 12.5 11.5 12.5" stroke="#101828" stroke-width="1.2" stroke-linecap="round" stroke-linejoin="round"/>
</svg>
