<?xml version="1.0" encoding="utf-8"?>
<svg version="1.1" xmlns="http://www.w3.org/2000/svg" xmlns:xlink="http://www.w3.org/1999/xlink" x="0px" y="0px"
	 viewBox="0 0 30 30" style="enable-background:new 0 0 30 30;" xml:space="preserve">
<path d="M6.9,11.3c0-0.6,0.5-1.2,1.2-1.2h13.8c0.6,0,1.2,0.5,1.2,1.2c0,0.6-0.5,1.2-1.2,1.2H8.1C7.4,12.5,6.9,11.9,6.9,11.3z
	 M8.1,17.1h13.8c0.6,0,1.2-0.5,1.2-1.2c0-0.6-0.5-1.2-1.2-1.2H8.1c-0.6,0-1.2,0.5-1.2,1.2C6.9,16.5,7.4,17.1,8.1,17.1z M30,4.4v21.9
	c0,0.6-0.9,1.4-1.7,1.1l-4.1-2l-4.1,2c-0.3,0.2-0.7,0.2-1,0l-4.1-2l-4.1,2c-0.3,0.2-0.7,0.2-1,0l-4.1-2l-4.1,2
	c-0.6,0.3-1.7,0-1.7-1.1V4.4c0-1.3,1-2.3,2.3-2.3h25.4C29,2.1,30,3.1,30,4.4z M27.7,4.4H2.3v20.1l3-1.5c0.3-0.2,0.7-0.2,1,0l4.1,2
	l4.1-2c0.3-0.2,0.7-0.2,1,0l4.1,2l4.1-2c0.3-0.2,0.7-0.2,1,0l2.9,1.5V4.4H27.7z"/>
</svg>
