<svg width="26" height="25" viewBox="0 0 26 25" xmlns="http://www.w3.org/2000/svg">
<path d="M9.97221 19.2425C9.92346 19.4363 8.70471 24 2.00096 24C1.73575 24 1.48139 23.8947 1.29386 23.7071C1.10632 23.5196 1.00096 23.2652 1.00096 23C1.00096 16.2963 5.56471 15.0775 5.75846 15.0288C6.01589 14.9645 6.28832 15.005 6.51583 15.1416C6.74333 15.2781 6.90727 15.4995 6.97159 15.7569C7.0359 16.0143 6.99532 16.2867 6.85877 16.5143C6.72222 16.7418 6.50089 16.9057 6.24346 16.97C6.13096 17.0013 3.44096 17.7875 3.04846 21.9525C7.21346 21.56 8.00096 18.875 8.03346 18.75C8.09977 18.4929 8.26549 18.2727 8.49416 18.1378C8.72284 18.0029 8.99574 17.9643 9.25284 18.0306C9.50993 18.0969 9.73016 18.2627 9.86507 18.4913C9.99998 18.72 10.0385 18.9929 9.97221 19.25V19.2425ZM21.5972 10.8175L21.001 11.4138V18.705C21.0024 18.9687 20.9515 19.23 20.8511 19.4738C20.7506 19.7175 20.6027 19.9389 20.416 20.125L16.126 24.4125C15.941 24.5988 15.7209 24.7467 15.4785 24.8475C15.236 24.9484 14.976 25.0002 14.7135 25C14.4968 25 14.2815 24.9649 14.076 24.8963C13.7231 24.7795 13.4099 24.5665 13.1718 24.2811C12.9336 23.9957 12.7801 23.6494 12.7285 23.2813L12.0572 18.47L6.53096 12.9438L1.72221 12.2725C1.35364 12.2208 1.00681 12.0673 0.720721 11.8293C0.434636 11.5912 0.220653 11.278 0.102843 10.925C-0.0149671 10.5719 -0.0319305 10.193 0.0538612 9.83088C0.139653 9.46872 0.324796 9.13769 0.588464 8.87502L4.87596 4.58502C5.06206 4.39825 5.28344 4.25035 5.52722 4.14992C5.771 4.04949 6.03231 3.99853 6.29596 4.00002H13.5872L14.1835 3.40377C17.5185 0.0700173 21.5372 -0.0737325 23.1097 0.0200175C23.5973 0.0496487 24.0572 0.256706 24.4026 0.602121C24.748 0.947537 24.9551 1.40743 24.9847 1.89502C25.076 3.46377 24.9322 7.48252 21.5985 10.8175H21.5972ZM2.00096 10.2925L6.64471 10.94L11.5872 6.00002H6.29596L2.00096 10.2925ZM8.41596 12L13.001 16.585L20.1822 9.40377C21.15 8.44251 21.9008 7.28524 22.3842 6.00972C22.8676 4.7342 23.0723 3.36999 22.9847 2.00877C21.6242 1.9244 20.2614 2.13131 18.9872 2.61567C17.713 3.10003 16.5569 3.85069 15.596 4.81752L8.41596 12ZM19.001 13.4138L14.0597 18.355L14.7097 23L19.001 18.705V13.4138Z" />
</svg>
