<svg width="16" height="16" viewBox="0 0 16 16" fill="none" xmlns="http://www.w3.org/2000/svg">
<path d="M9 14H7" stroke="#101828" stroke-width="1.2" stroke-linecap="round" stroke-linejoin="round"/>
<path d="M7.68747 1.23736C6.49997 2.18736 2.53122 5.98736 5.99997 11.9999H9.99997C13.4 5.98736 9.48747 2.19361 8.31247 1.23736C8.22479 1.16413 8.11419 1.12402 7.99997 1.12402C7.88574 1.12402 7.77514 1.16413 7.68747 1.23736Z" stroke="#101828" stroke-width="1.2" stroke-linecap="round" stroke-linejoin="round"/>
<path d="M4.61897 6.9624L2.65647 9.3124C2.60703 9.37008 2.57214 9.43878 2.55474 9.51273C2.53734 9.58668 2.53793 9.66373 2.55647 9.7374L3.32522 13.2187C3.34377 13.3014 3.38306 13.3781 3.4394 13.4415C3.49574 13.5048 3.56727 13.5528 3.64727 13.581C3.72728 13.6091 3.81312 13.6164 3.89673 13.6022C3.98034 13.5881 4.05896 13.5528 4.12522 13.4999L6.00022 11.9999" stroke="#101828" stroke-width="1.2" stroke-linecap="round" stroke-linejoin="round"/>
<path d="M11.3438 6.9126L13.3438 9.3126C13.3932 9.37028 13.4281 9.43898 13.4455 9.51293C13.4629 9.58688 13.4623 9.66392 13.4438 9.7376L12.675 13.2188C12.6564 13.3016 12.6172 13.3783 12.5608 13.4417C12.5045 13.505 12.4329 13.553 12.3529 13.5812C12.2729 13.6093 12.1871 13.6166 12.1035 13.6024C12.0199 13.5882 11.9413 13.553 11.875 13.5001L10 12.0001" stroke="#101828" stroke-width="1.2" stroke-linecap="round" stroke-linejoin="round"/>
<path d="M8 6.75C8.41421 6.75 8.75 6.41421 8.75 6C8.75 5.58579 8.41421 5.25 8 5.25C7.58579 5.25 7.25 5.58579 7.25 6C7.25 6.41421 7.58579 6.75 8 6.75Z" fill="#101828"/>
</svg>
