<?xml version="1.0" encoding="utf-8"?>
<svg version="1.1" xmlns="http://www.w3.org/2000/svg" xmlns:xlink="http://www.w3.org/1999/xlink" x="0px" y="0px"
	 viewBox="0 0 30 30" style="enable-background:new 0 0 30 30;" xml:space="preserve">
<path d="M28.1,11.6c-0.5-0.5-1-1.1-1.2-1.5c-0.2-0.4-0.2-1.2-0.2-1.9c0-1.3,0-2.8-1.1-3.8c-1-1-2.5-1.1-3.8-1.1
	c-0.7,0-1.4,0-1.9-0.2c-0.5-0.2-1-0.7-1.6-1.2C17.4,1,16.4,0,15,0c-1.4,0-2.4,1-3.4,1.9c-0.5,0.5-1.1,1-1.5,1.2
	C9.6,3.3,8.9,3.3,8.2,3.3c-1.3,0-2.8,0-3.8,1.1s-1,2.5-1.1,3.8c0,0.7,0,1.4-0.2,1.9c-0.2,0.5-0.7,1-1.2,1.5C1,12.6,0,13.6,0,15
	s1,2.4,1.9,3.4c0.5,0.5,1,1.1,1.2,1.5c0.2,0.4,0.2,1.2,0.2,1.9c0,1.3,0,2.8,1.1,3.8s2.5,1.1,3.8,1.1c0.7,0,1.4,0,1.9,0.2
	c0.5,0.2,1,0.7,1.5,1.2c0.9,0.9,2,1.9,3.4,1.9s2.4-1,3.4-1.9c0.5-0.5,1.1-1,1.5-1.2c0.4-0.2,1.2-0.2,1.9-0.2c1.3,0,2.8,0,3.8-1.1
	c1-1,1.1-2.5,1.1-3.8c0-0.7,0-1.4,0.2-1.9c0.2-0.5,0.7-1,1.2-1.6c0.9-0.9,1.9-2,1.9-3.4C30,13.6,29,12.6,28.1,11.6z M26.6,16.9
	c-0.6,0.7-1.3,1.4-1.7,2.2c-0.3,0.8-0.4,1.7-0.4,2.7c0,0.9,0,1.9-0.4,2.3c-0.4,0.4-1.4,0.4-2.3,0.4c-0.9,0-1.8,0-2.7,0.4
	c-0.9,0.4-1.5,1-2.2,1.7c-0.7,0.6-1.4,1.3-1.9,1.3s-1.2-0.7-1.9-1.3c-0.7-0.6-1.4-1.3-2.2-1.7c-0.8-0.3-1.7-0.4-2.7-0.4
	c-0.9,0-1.9,0-2.3-0.4c-0.4-0.4-0.4-1.4-0.4-2.3c0-0.9,0-1.8-0.4-2.7c-0.4-0.9-1-1.5-1.7-2.2c-0.6-0.7-1.3-1.4-1.3-1.9
	s0.7-1.2,1.3-1.9c0.6-0.7,1.3-1.4,1.7-2.2c0.3-0.8,0.4-1.7,0.4-2.7c0-0.9,0-1.9,0.4-2.3s1.4-0.4,2.3-0.4c0.9,0,1.8,0,2.7-0.4
	c0.9-0.4,1.5-1,2.2-1.7c0.7-0.6,1.4-1.3,1.9-1.3s1.2,0.7,1.9,1.3c0.7,0.6,1.4,1.3,2.2,1.7c0.8,0.3,1.7,0.4,2.7,0.4
	c0.9,0,1.9,0,2.3,0.4c0.4,0.4,0.4,1.4,0.4,2.3c0,0.9,0,1.8,0.4,2.7c0.4,0.9,1,1.5,1.7,2.2c0.6,0.7,1.3,1.4,1.3,1.9
	S27.2,16.2,26.6,16.9z M21.1,11c0.4,0.4,0.4,1.1,0,1.5L13.6,20c-0.4,0.4-1.1,0.4-1.5,0l-3.2-3.2c-0.4-0.4-0.4-1.1,0-1.5
	c0.4-0.4,1.1-0.4,1.5,0l2.5,2.5l6.7-6.7C20,10.6,20.7,10.6,21.1,11L21.1,11z"/>
</svg>
