<?xml version="1.0" encoding="utf-8"?>
<svg version="1.1" xmlns="http://www.w3.org/2000/svg" xmlns:xlink="http://www.w3.org/1999/xlink" x="0px" y="0px"
	 viewBox="0 0 30 30" style="enable-background:new 0 0 30 30;" xml:space="preserve">
<path d="M22.1,19.2c-1.5,0-2.9,0.7-3.9,1.7L12.1,17c0.2-0.6,0.4-1.3,0.4-2c0-0.7-0.1-1.4-0.4-2l6.1-3.9c1,1,2.4,1.7,3.9,1.7
	c3,0,5.4-2.4,5.4-5.4c0-3-2.4-5.4-5.4-5.4c-3,0-5.4,2.4-5.4,5.4c0,0.7,0.1,1.3,0.4,1.9l-6.2,3.9c-1-1-2.3-1.6-3.9-1.6
	c-3,0-5.4,2.4-5.4,5.4c0,3,2.4,5.4,5.4,5.4c1.5,0,2.9-0.6,3.9-1.7l6.1,3.9c-0.2,0.6-0.4,1.3-0.4,1.9c0,3,2.4,5.4,5.4,5.4
	c3,0,5.4-2.4,5.4-5.4C27.5,21.6,25.1,19.2,22.1,19.2z M22.1,2.2c1.8,0,3.2,1.4,3.2,3.2c0,1.8-1.4,3.2-3.2,3.2
	c-1.8,0-3.2-1.4-3.2-3.2C18.9,3.6,20.3,2.2,22.1,2.2z M7.1,18.3c-1.8,0-3.2-1.4-3.2-3.2c0-1.8,1.4-3.2,3.2-3.2
	c1.8,0,3.2,1.4,3.2,3.2C10.3,16.8,8.8,18.3,7.1,18.3z M22.1,27.8c-1.8,0-3.2-1.4-3.2-3.2c0-1.8,1.4-3.2,3.2-3.2
	c1.8,0,3.2,1.4,3.2,3.2C25.3,26.4,23.9,27.8,22.1,27.8z"/>
</svg>
