<?xml version="1.0" encoding="UTF-8"?><svg id="Layer_1" xmlns="http://www.w3.org/2000/svg" viewBox="0 0 10.5 10.94"><path d="M9.62,0H.88c-.23,0-.45,.09-.62,.26-.16,.16-.26,.39-.26,.62v3.21c0,4.9,4.15,6.53,4.98,6.8,.18,.06,.37,.06,.55,0,.83-.28,4.98-1.9,4.98-6.8V.88c0-.23-.09-.45-.26-.62-.16-.16-.39-.26-.62-.26Zm0,4.09c0,4.29-3.63,5.72-4.38,5.97-.74-.25-4.38-1.68-4.38-5.97V.88H9.62v3.22Zm-6.87,1.47c-.08-.08-.13-.19-.13-.31s.05-.23,.13-.31c.08-.08,.19-.13,.31-.13s.23,.05,.31,.13l1,1,2.75-2.75s.09-.07,.14-.09c.05-.02,.11-.03,.17-.03s.11,.01,.17,.03c.05,.02,.1,.05,.14,.09,.04,.04,.07,.09,.09,.14s.03,.11,.03,.17-.01,.11-.03,.17-.05,.1-.09,.14l-3.06,3.06s-.09,.07-.14,.09c-.05,.02-.11,.03-.17,.03s-.11-.01-.17-.03c-.05-.02-.1-.05-.14-.09l-1.31-1.31Z" style="fill:#101828;"/></svg>