<svg width="12" height="12" viewBox="0 0 12 12" xmlns="http://www.w3.org/2000/svg">
<path d="M3.40617 4.39844C3.42764 4.34502 3.45944 4.29636 3.49975 4.25526C3.54006 4.21416 3.58809 4.18141 3.64108 4.15891C3.69407 4.1364 3.75098 4.12457 3.80855 4.1241C3.86612 4.12363 3.92321 4.13453 3.97656 4.15617L5.5625 4.79109V3.25C5.5625 3.13397 5.60859 3.02269 5.69064 2.94064C5.77269 2.85859 5.88397 2.8125 6 2.8125C6.11603 2.8125 6.22731 2.85859 6.30936 2.94064C6.39141 3.02269 6.4375 3.13397 6.4375 3.25V4.79109L8.02344 4.15617C8.0768 4.13463 8.13388 4.1238 8.19142 4.12432C8.24896 4.12483 8.30584 4.13668 8.35881 4.15917C8.41177 4.18167 8.45979 4.21438 8.50011 4.25543C8.54044 4.29648 8.57228 4.34508 8.59383 4.39844C8.61537 4.4518 8.6262 4.50888 8.62568 4.56642C8.62517 4.62396 8.61332 4.68084 8.59083 4.73381C8.56833 4.78677 8.53562 4.83479 8.49457 4.87511C8.45352 4.91544 8.40492 4.94728 8.35156 4.96883L6.69398 5.63164L7.6625 6.925C7.73212 7.01783 7.76201 7.13451 7.7456 7.24937C7.72919 7.36424 7.66783 7.46788 7.575 7.5375C7.48217 7.60712 7.36549 7.63701 7.25063 7.6206C7.13576 7.60419 7.03212 7.54283 6.9625 7.45L6 6.16648L5.0375 7.45C5.00303 7.49596 4.95984 7.53469 4.9104 7.56396C4.86097 7.59323 4.80625 7.61248 4.74937 7.6206C4.6925 7.62873 4.63458 7.62557 4.57892 7.61131C4.52326 7.59705 4.47096 7.57197 4.425 7.5375C4.37904 7.50303 4.34031 7.45984 4.31104 7.4104C4.28177 7.36097 4.26252 7.30625 4.2544 7.24937C4.24627 7.1925 4.24943 7.13458 4.26369 7.07892C4.27795 7.02327 4.30303 6.97096 4.3375 6.925L5.30766 5.63164L3.64844 4.96883C3.59502 4.94736 3.54636 4.91556 3.50526 4.87525C3.46416 4.83494 3.43141 4.78691 3.40891 4.73392C3.3864 4.68093 3.37457 4.62402 3.3741 4.56645C3.37363 4.50888 3.38453 4.45179 3.40617 4.39844ZM11.25 1.0625V4.27648C11.25 9.17758 7.10359 10.8029 6.27344 11.0791C6.09619 11.1397 5.90381 11.1397 5.72656 11.0791C4.89531 10.8056 0.75 9.17813 0.75 4.27703V1.0625C0.75 0.830436 0.842187 0.607876 1.00628 0.443782C1.17038 0.279687 1.39294 0.1875 1.625 0.1875H10.375C10.6071 0.1875 10.8296 0.279687 10.9937 0.443782C11.1578 0.607876 11.25 0.830436 11.25 1.0625ZM10.375 1.0625H1.625V4.27758C1.625 8.57055 5.26008 10.0023 6 10.2484C6.74703 9.99899 10.375 8.56617 10.375 4.27758V1.0625Z"/>
</svg>
