<?xml version="1.0" encoding="utf-8"?>
<svg version="1.1" xmlns="http://www.w3.org/2000/svg" xmlns:xlink="http://www.w3.org/1999/xlink" x="0px" y="0px"
	 viewBox="0 0 30 30" style="enable-background:new 0 0 30 30;" xml:space="preserve">
<path d="M2.6,22.3c-0.6,0.6-1.6,0.6-2.2,0s-0.6-1.5,0-2.1l6.7-6.7c0.6-0.6,1.6-0.6,2.2-0.1s0.6,1.6,0.1,2.2c0,0,0,0-0.1,0.1
	C9.4,15.6,2.6,22.3,2.6,22.3z"/>
<path d="M11.4,22.8l-6.7,6.7c-0.6,0.6-1.6,0.6-2.2-0.1c-0.6-0.6-0.6-1.5,0-2.1l6.7-6.7c0.6-0.6,1.6-0.6,2.2-0.1
	C12.1,21.2,12.1,22.2,11.4,22.8C11.5,22.8,11.4,22.8,11.4,22.8z"/>
<path d="M20.7,20.6c0.6,0.6,0.6,1.6,0,2.2l0,0L14,29.6c-0.6,0.6-1.6,0.6-2.2-0.1c-0.6-0.6-0.6-1.5,0-2.1l6.7-6.7
	C19.2,20,20.1,20,20.7,20.6L20.7,20.6L20.7,20.6z"/>
<path d="M15.2,19.8c-0.6,0-1.2-0.2-1.7-0.6c-0.9-0.7-1.4-1.8-1.2-2.9l0.6-3.5l-2.6-2.5c-0.8-0.8-1.1-1.9-0.7-3
	c0.3-1.1,1.3-1.8,2.4-2l3.5-0.5l1.6-3.2c0.5-1,1.5-1.6,2.6-1.6c1.1,0,2.1,0.6,2.6,1.6L24,4.9l3.5,0.5c1.1,0.2,2,0.9,2.4,2
	c0.3,1.1,0.1,2.2-0.7,3l-2.6,2.5l0.6,3.5c0.2,1.1-0.3,2.2-1.2,2.9c-0.9,0.7-2.1,0.8-3.1,0.2l-3.2-1.7l-3.2,1.7
	C16.1,19.7,15.7,19.8,15.2,19.8z M19.7,14.6c0.5,0,0.9,0.1,1.4,0.3l2.8,1.5l-0.5-3.1c-0.2-1,0.2-1.9,0.8-2.6l2.3-2.2L23.4,8
	c-1-0.1-1.8-0.7-2.2-1.6l-1.4-2.9l-1.4,2.9c-0.4,0.9-1.3,1.5-2.2,1.6L13,8.5l2.3,2.2c0.7,0.7,1,1.7,0.8,2.6l-0.5,3.1l2.8-1.5
	C18.8,14.7,19.3,14.6,19.7,14.6z"/>
</svg>
