<?xml version="1.0" encoding="utf-8"?>
<svg version="1.1" xmlns="http://www.w3.org/2000/svg" xmlns:xlink="http://www.w3.org/1999/xlink" x="0px" y="0px"
	 viewBox="0 0 30 30" style="enable-background:new 0 0 30 30;" xml:space="preserve">
<path d="M9.3,14.7l-7.5,7.5c-0.4,0.4-1.1,0.4-1.5,0s-0.4-1.1,0-1.5l7.5-7.5c0.4-0.4,1.1-0.4,1.5,0S9.7,14.3,9.3,14.7L9.3,14.7z"/>
<path d="M11.5,22.2L4,29.7c-0.4,0.4-1.1,0.4-1.5,0s-0.4-1.1,0-1.5l7.5-7.5c0.4-0.4,1.1-0.4,1.5,0S11.9,21.8,11.5,22.2L11.5,22.2z"/>
<path d="M21.1,20.7c0.4,0.4,0.4,1.1,0,1.5l0,0l-7.5,7.5c-0.4,0.4-1.1,0.4-1.5,0s-0.4-1.1,0-1.5l0,0l7.5-7.5
	C20,20.3,20.7,20.3,21.1,20.7L21.1,20.7L21.1,20.7z"/>
<path d="M29.9,7.1c-0.2-0.8-0.9-1.3-1.7-1.4l-4.3-0.6L22,1.1C21.6,0.4,20.9,0,20.1,0s-1.5,0.4-1.8,1.1l-1.9,3.9L12,5.7
	c-0.8,0.1-1.4,0.7-1.7,1.4c-0.2,0.8,0,1.6,0.5,2.1l3.1,3.1l-0.7,4.3c-0.1,0.8,0.2,1.6,0.8,2c0.6,0.5,1.5,0.5,2.2,0.2l3.9-2l3.9,2
	c0.7,0.4,1.5,0.3,2.2-0.2c0.6-0.5,1-1.2,0.8-2l-0.7-4.3l3.1-3.1C29.9,8.7,30.1,7.9,29.9,7.1z M24.4,10.7c-0.5,0.5-0.7,1.2-0.6,1.8
	l0.7,3.8l-3.4-1.8c-0.3-0.2-0.6-0.2-1-0.2s-0.7,0.1-1,0.2l-3.4,1.8l0.7-3.8c0.1-0.7-0.1-1.3-0.6-1.8L13,8l3.8-0.6
	c0.7-0.1,1.2-0.5,1.5-1.1l1.7-3.5l1.7,3.5c0.3,0.6,0.9,1,1.5,1.1L27.2,8L24.4,10.7z"/>
</svg>
