<svg width="14" height="12" viewBox="0 0 14 12" xmlns="http://www.w3.org/2000/svg">
<path d="M12.6876 8.1875H3.49243C3.63789 7.90094 3.78391 7.60617 3.92993 7.30648C4.74641 7.39672 5.71383 6.82523 6.81414 5.59914C6.84696 5.68992 6.8836 5.78344 6.92352 5.87805C7.27954 6.71203 7.73891 7.18727 8.29071 7.29172C8.85618 7.40109 9.41618 7.11508 9.99039 6.42656C10.3634 6.86789 11.129 7.3125 12.6876 7.3125C12.8036 7.3125 12.9149 7.26641 12.9969 7.18436C13.079 7.10231 13.1251 6.99103 13.1251 6.875C13.1251 6.75897 13.079 6.64769 12.9969 6.56564C12.9149 6.48359 12.8036 6.4375 12.6876 6.4375C11.0125 6.4375 10.5247 5.85836 10.5001 5.55047C10.4974 5.4487 10.4593 5.35104 10.3924 5.27432C10.3255 5.1976 10.2339 5.14662 10.1334 5.13017C10.033 5.11371 9.9299 5.13281 9.842 5.18418C9.7541 5.23554 9.68687 5.31596 9.65188 5.41156C8.98633 6.40961 8.59204 6.45828 8.44875 6.43203C7.99321 6.34617 7.56938 5.28742 7.42664 4.59945C7.40797 4.51257 7.36327 4.43343 7.29851 4.37257C7.23374 4.31171 7.15198 4.27202 7.0641 4.25878C6.97622 4.24554 6.88639 4.25938 6.80657 4.29845C6.72675 4.33752 6.66072 4.39997 6.61727 4.4775C5.53446 5.82391 4.80821 6.28219 4.35266 6.39922C4.81696 5.36672 5.16368 4.46055 5.38571 3.69766C5.75868 2.41578 5.78602 1.51945 5.46829 0.957812C5.30422 0.664687 4.96024 0.315234 4.27008 0.3125H4.25641C3.38141 0.318516 2.69235 1.14922 2.36313 2.59297C2.1668 3.45211 2.13454 4.40805 2.27399 5.21797C2.41344 6.02789 2.70383 6.61305 3.12438 6.96195C2.92094 7.38469 2.71258 7.79758 2.51024 8.18859H1.31258C1.19655 8.18859 1.08527 8.23469 1.00322 8.31673C0.921176 8.39878 0.875082 8.51006 0.875082 8.62609C0.875082 8.74213 0.921176 8.85341 1.00322 8.93545C1.08527 9.0175 1.19655 9.06359 1.31258 9.06359H2.04594C1.42688 10.212 0.945629 11.0127 0.937973 11.0258C0.906782 11.075 0.885754 11.13 0.876124 11.1876C0.866495 11.2451 0.868458 11.3039 0.881899 11.3607C0.895341 11.4174 0.919988 11.4709 0.954393 11.518C0.988798 11.565 1.03227 11.6048 1.08224 11.6348C1.13222 11.6648 1.1877 11.6846 1.24542 11.6929C1.30313 11.7012 1.36192 11.6978 1.41833 11.6831C1.47475 11.6683 1.52764 11.6424 1.5739 11.6069C1.62017 11.5714 1.65887 11.5271 1.68774 11.4764C1.69594 11.4622 2.30407 10.4488 3.03852 9.06359H12.6876C12.8036 9.06359 12.9149 9.0175 12.9969 8.93545C13.079 8.85341 13.1251 8.74213 13.1251 8.62609C13.1251 8.51006 13.079 8.39878 12.9969 8.31673C12.9149 8.23469 12.8036 8.18859 12.6876 8.18859V8.1875ZM10.5001 5.5625V5.55102C10.5004 5.55484 10.5004 5.55868 10.5001 5.5625ZM3.21516 2.78766C3.43336 1.83172 3.85446 1.1875 4.26571 1.1875C4.55282 1.1875 4.64852 1.28922 4.70321 1.3882C4.86727 1.67969 5.05977 2.71109 3.51922 6.11156C3.07133 5.49414 2.91875 4.08594 3.21516 2.78766Z"/>
</svg>
