<svg width="12" height="11" viewBox="0 0 12 11" xmlns="http://www.w3.org/2000/svg">
<path d="M2.19093 3.99219V0.4375C2.19093 0.321468 2.14484 0.210188 2.06279 0.128141C1.98074 0.0460937 1.86946 0 1.75343 0C1.6374 0 1.52612 0.0460937 1.44407 0.128141C1.36203 0.210188 1.31593 0.321468 1.31593 0.4375V3.99219C0.9395 4.08857 0.605852 4.30749 0.367589 4.61445C0.129326 4.9214 0 5.29893 0 5.6875C0 6.07607 0.129326 6.4536 0.367589 6.76055C0.605852 7.06751 0.9395 7.28643 1.31593 7.38281V10.0625C1.31593 10.1785 1.36203 10.2898 1.44407 10.3719C1.52612 10.4539 1.6374 10.5 1.75343 10.5C1.86946 10.5 1.98074 10.4539 2.06279 10.3719C2.14484 10.2898 2.19093 10.1785 2.19093 10.0625V7.38281C2.56736 7.28643 2.90101 7.06751 3.13927 6.76055C3.37754 6.4536 3.50686 6.07607 3.50686 5.6875C3.50686 5.29893 3.37754 4.9214 3.13927 4.61445C2.90101 4.30749 2.56736 4.08857 2.19093 3.99219ZM1.75343 6.5625C1.58037 6.5625 1.4112 6.51118 1.26731 6.41504C1.12341 6.31889 1.01126 6.18223 0.945037 6.02235C0.87881 5.86246 0.861482 5.68653 0.895244 5.5168C0.929006 5.34706 1.01234 5.19115 1.13471 5.06878C1.25708 4.94641 1.41299 4.86307 1.58273 4.82931C1.75246 4.79555 1.92839 4.81288 2.08828 4.87911C2.24816 4.94533 2.38482 5.05748 2.48097 5.20138C2.57711 5.34527 2.62843 5.51444 2.62843 5.6875C2.62843 5.91956 2.53624 6.14212 2.37215 6.30622C2.20806 6.47031 1.9855 6.5625 1.75343 6.5625ZM6.12843 1.36719V0.4375C6.12843 0.321468 6.08234 0.210188 6.00029 0.128141C5.91824 0.0460937 5.80696 0 5.69093 0C5.5749 0 5.46362 0.0460937 5.38157 0.128141C5.29953 0.210188 5.25343 0.321468 5.25343 0.4375V1.36719C4.877 1.46357 4.54335 1.68249 4.30509 1.98945C4.06683 2.2964 3.9375 2.67393 3.9375 3.0625C3.9375 3.45107 4.06683 3.8286 4.30509 4.13555C4.54335 4.44251 4.877 4.66143 5.25343 4.75781V10.0625C5.25343 10.1785 5.29953 10.2898 5.38157 10.3719C5.46362 10.4539 5.5749 10.5 5.69093 10.5C5.80696 10.5 5.91824 10.4539 6.00029 10.3719C6.08234 10.2898 6.12843 10.1785 6.12843 10.0625V4.75781C6.50486 4.66143 6.83851 4.44251 7.07677 4.13555C7.31504 3.8286 7.44436 3.45107 7.44436 3.0625C7.44436 2.67393 7.31504 2.2964 7.07677 1.98945C6.83851 1.68249 6.50486 1.46357 6.12843 1.36719ZM5.69093 3.9375C5.51787 3.9375 5.3487 3.88618 5.20481 3.79004C5.06091 3.69389 4.94876 3.55723 4.88254 3.39735C4.81631 3.23746 4.79898 3.06153 4.83274 2.8918C4.86651 2.72206 4.94984 2.56615 5.07221 2.44378C5.19458 2.32141 5.35049 2.23807 5.52023 2.20431C5.68996 2.17055 5.86589 2.18788 6.02578 2.25411C6.18567 2.32033 6.32232 2.43248 6.41847 2.57638C6.51461 2.72027 6.56593 2.88944 6.56593 3.0625C6.56593 3.29456 6.47374 3.51712 6.30965 3.68122C6.14556 3.84531 5.923 3.9375 5.69093 3.9375ZM11.3784 7.4375C11.3781 7.04952 11.249 6.67263 11.0115 6.36585C10.774 6.05906 10.4414 5.83973 10.0659 5.74219V0.4375C10.0659 0.321468 10.0198 0.210188 9.93779 0.128141C9.85574 0.0460937 9.74446 0 9.62843 0C9.5124 0 9.40112 0.0460937 9.31907 0.128141C9.23702 0.210188 9.19093 0.321468 9.19093 0.4375V5.74219C8.8145 5.83857 8.48085 6.05749 8.24259 6.36445C8.00433 6.6714 7.875 7.04893 7.875 7.4375C7.875 7.82607 8.00433 8.2036 8.24259 8.51055C8.48085 8.81751 8.8145 9.03643 9.19093 9.13281V10.0625C9.19093 10.1785 9.23702 10.2898 9.31907 10.3719C9.40112 10.4539 9.5124 10.5 9.62843 10.5C9.74446 10.5 9.85574 10.4539 9.93779 10.3719C10.0198 10.2898 10.0659 10.1785 10.0659 10.0625V9.13281C10.4414 9.03527 10.774 8.81594 11.0115 8.50915C11.249 8.20237 11.3781 7.82548 11.3784 7.4375ZM9.62843 8.3125C9.45537 8.3125 9.2862 8.26118 9.14231 8.16504C8.99841 8.06889 8.88626 7.93223 8.82004 7.77235C8.75381 7.61246 8.73648 7.43653 8.77024 7.2668C8.80401 7.09706 8.88734 6.94115 9.00971 6.81878C9.13208 6.69641 9.28799 6.61307 9.45773 6.57931C9.62746 6.54555 9.80339 6.56288 9.96328 6.62911C10.1232 6.69533 10.2598 6.80748 10.356 6.95138C10.4521 7.09527 10.5034 7.26444 10.5034 7.4375C10.5034 7.66956 10.4112 7.89212 10.2471 8.05622C10.0831 8.22031 9.8605 8.3125 9.62843 8.3125Z" />
</svg>
