<?xml version="1.0" encoding="utf-8"?>
<svg version="1.1" xmlns="http://www.w3.org/2000/svg" xmlns:xlink="http://www.w3.org/1999/xlink" x="0px" y="0px"
	 viewBox="0 0 30 30" style="enable-background:new 0 0 30 30;" xml:space="preserve">
<path d="M15,0C6.7,0,0,6.7,0,15s6.7,15,15,15s15-6.7,15-15C30,6.7,23.3,0,15,0z M15,27.7C8,27.7,2.3,22,2.3,15S8,2.3,15,2.3
	S27.7,8,27.7,15C27.7,22,22,27.7,15,27.7z M21.9,19.6c0,0.6-0.5,1.2-1.2,1.2H9.2c-0.6,0-1.2-0.5-1.2-1.2s0.5-1.2,1.2-1.2h11.5
	C21.4,18.5,21.9,19,21.9,19.6z M8.1,12.1c0-1,0.8-1.7,1.7-1.7s1.7,0.8,1.7,1.7s-0.8,1.7-1.7,1.7S8.1,13.1,8.1,12.1z M21.9,12.1
	c0,1-0.8,1.7-1.7,1.7c-1,0-1.7-0.8-1.7-1.7s0.8-1.7,1.7-1.7C21.1,10.4,21.9,11.2,21.9,12.1z"/>
</svg>
