<svg width="14" height="14" viewBox="0 0 14 14" fill="none" xmlns="http://www.w3.org/2000/svg">
<path d="M7 0.5C5.71442 0.5 4.45771 0.881218 3.38879 1.59545C2.31987 2.30968 1.48675 3.32484 0.994782 4.51256C0.502813 5.70028 0.374091 7.00721 0.624895 8.26809C0.875699 9.52896 1.49476 10.6872 2.40381 11.5962C3.31285 12.5052 4.47104 13.1243 5.73191 13.3751C6.99279 13.6259 8.29972 13.4972 9.48744 13.0052C10.6752 12.5132 11.6903 11.6801 12.4046 10.6112C13.1188 9.54229 13.5 8.28558 13.5 7C13.4982 5.27665 12.8128 3.62441 11.5942 2.40582C10.3756 1.18722 8.72335 0.50182 7 0.5ZM7 12.5C5.9122 12.5 4.84883 12.1774 3.94436 11.5731C3.03989 10.9687 2.33494 10.1098 1.91866 9.10476C1.50238 8.09977 1.39346 6.9939 1.60568 5.927C1.8179 4.86011 2.34172 3.8801 3.11091 3.11091C3.8801 2.34172 4.86011 1.8179 5.927 1.60568C6.9939 1.39346 8.09976 1.50238 9.10476 1.91866C10.1098 2.33494 10.9687 3.03989 11.5731 3.94436C12.1774 4.84883 12.5 5.9122 12.5 7C12.4983 8.45818 11.9184 9.85617 10.8873 10.8873C9.85617 11.9184 8.45818 12.4983 7 12.5ZM4 5.75C4 5.60166 4.04399 5.45666 4.1264 5.33332C4.20881 5.20999 4.32594 5.11386 4.46299 5.05709C4.60003 5.00032 4.75083 4.98547 4.89632 5.01441C5.0418 5.04335 5.17544 5.11478 5.28033 5.21967C5.38522 5.32456 5.45665 5.4582 5.48559 5.60368C5.51453 5.74917 5.49967 5.89997 5.44291 6.03701C5.38614 6.17406 5.29001 6.29119 5.16668 6.3736C5.04334 6.45601 4.89833 6.5 4.75 6.5C4.55109 6.5 4.36032 6.42098 4.21967 6.28033C4.07902 6.13968 4 5.94891 4 5.75ZM10 5.75C10 5.89834 9.95601 6.04334 9.8736 6.16668C9.79119 6.29001 9.67406 6.38614 9.53701 6.44291C9.39997 6.49968 9.24917 6.51453 9.10368 6.48559C8.9582 6.45665 8.82456 6.38522 8.71967 6.28033C8.61478 6.17544 8.54335 6.0418 8.51441 5.89632C8.48547 5.75083 8.50032 5.60003 8.55709 5.46299C8.61386 5.32594 8.70998 5.20881 8.83332 5.1264C8.95666 5.04399 9.10166 5 9.25 5C9.44891 5 9.63968 5.07902 9.78033 5.21967C9.92098 5.36032 10 5.55109 10 5.75ZM9.93312 8.75C9.29 9.86188 8.22062 10.5 7 10.5C5.77937 10.5 4.71062 9.8625 4.0675 8.75C4.03132 8.69309 4.00703 8.62945 3.99609 8.56291C3.98514 8.49637 3.98777 8.4283 4.00381 8.36281C4.01986 8.29731 4.04898 8.23573 4.08944 8.18178C4.1299 8.12783 4.18085 8.08262 4.23923 8.04888C4.29762 8.01513 4.36222 7.99354 4.42917 7.98541C4.49611 7.97728 4.564 7.98277 4.62877 8.00156C4.69353 8.02035 4.75383 8.05204 4.80602 8.09474C4.85822 8.13743 4.90124 8.19025 4.9325 8.25C5.39937 9.05688 6.13312 9.5 7 9.5C7.86687 9.5 8.60062 9.05625 9.06687 8.25C9.13318 8.13513 9.2424 8.0513 9.37051 8.01696C9.49862 7.98261 9.63513 8.00057 9.75 8.06688C9.86487 8.13318 9.9487 8.2424 9.98304 8.37051C10.0174 8.49862 9.99943 8.63513 9.93312 8.75Z" fill="#101828"/>
</svg>
