<svg width="24" height="24" viewBox="0 0 24 24" xmlns="http://www.w3.org/2000/svg">
<path d="M16.3988 14.6257C15.4341 16.2935 13.8309 17.2507 12 17.2507C10.1691 17.2507 8.56594 16.2944 7.60031 14.6257C7.55107 14.5404 7.51911 14.4462 7.50626 14.3485C7.49341 14.2508 7.49993 14.1516 7.52544 14.0564C7.55094 13.9613 7.59494 13.8721 7.65492 13.794C7.7149 13.7158 7.78968 13.6502 7.875 13.601C7.96032 13.5518 8.0545 13.5198 8.15217 13.5069C8.24984 13.4941 8.34908 13.5006 8.44423 13.5261C8.53938 13.5516 8.62858 13.5956 8.70673 13.6556C8.78487 13.7156 8.85044 13.7904 8.89969 13.8757C9.59906 15.086 10.6997 15.7507 12 15.7507C13.3003 15.7507 14.4009 15.0851 15.1012 13.8757C15.1481 13.7861 15.2127 13.7068 15.291 13.6428C15.3693 13.5788 15.4597 13.5312 15.5568 13.503C15.654 13.4748 15.7558 13.4666 15.8562 13.4788C15.9567 13.491 16.0536 13.5234 16.1411 13.574C16.2287 13.6246 16.3052 13.6924 16.3658 13.7734C16.4265 13.8543 16.4702 13.9466 16.4943 14.0449C16.5183 14.1431 16.5223 14.2452 16.5059 14.345C16.4895 14.4449 16.453 14.5403 16.3988 14.6257ZM21.75 12.0007C21.7505 12.9716 21.6064 13.9372 21.3225 14.8657C21.2863 14.9829 21.2219 15.0894 21.135 15.176L15.1753 21.1357C15.0893 21.2228 14.983 21.2872 14.8659 21.3232C12.9043 21.9264 10.8024 21.8953 8.85948 21.2343C6.91658 20.5732 5.23181 19.316 4.04515 17.6415C2.85849 15.9671 2.23044 13.9609 2.25046 11.9088C2.27049 9.85659 2.93756 7.86306 4.15668 6.21212C5.37579 4.56118 7.08477 3.33703 9.0402 2.71402C10.9956 2.09101 13.0978 2.10092 15.0472 2.74233C16.9967 3.38375 18.6941 4.62396 19.8976 6.28632C21.1011 7.94867 21.7493 9.94841 21.75 12.0007ZM20.25 12.0007C20.2479 10.2747 19.7038 8.59306 18.6946 7.19293C17.6854 5.79281 16.262 4.74493 14.6253 4.19718C12.9886 3.64944 11.2212 3.62947 9.57253 4.14011C7.92386 4.65074 6.47716 5.66619 5.43659 7.04316C4.39601 8.42014 3.8141 10.0891 3.77297 11.8145C3.73184 13.54 4.23356 15.2348 5.20734 16.6598C6.18112 18.0848 7.57779 19.168 9.20025 19.7566C10.8227 20.3452 12.589 20.4095 14.25 19.9404L19.9397 14.2507C20.1463 13.5186 20.2507 12.7614 20.25 12.0007ZM8.625 11.2507C8.8475 11.2507 9.06501 11.1847 9.25002 11.0611C9.43502 10.9375 9.57922 10.7618 9.66436 10.5562C9.74951 10.3506 9.77179 10.1244 9.72838 9.90621C9.68498 9.68798 9.57783 9.48752 9.4205 9.33019C9.26316 9.17285 9.06271 9.06571 8.84448 9.0223C8.62625 8.97889 8.40005 9.00117 8.19448 9.08632C7.98891 9.17147 7.81321 9.31566 7.6896 9.50067C7.56598 9.68567 7.5 9.90318 7.5 10.1257C7.5 10.4241 7.61853 10.7102 7.8295 10.9212C8.04048 11.1322 8.32663 11.2507 8.625 11.2507ZM15.375 9.00068C15.1525 9.00068 14.935 9.06666 14.75 9.19028C14.565 9.3139 14.4208 9.4896 14.3356 9.69516C14.2505 9.90073 14.2282 10.1269 14.2716 10.3452C14.315 10.5634 14.4222 10.7638 14.5795 10.9212C14.7368 11.0785 14.9373 11.1857 15.1555 11.2291C15.3738 11.2725 15.6 11.2502 15.8055 11.165C16.0111 11.0799 16.1868 10.9357 16.3104 10.7507C16.434 10.5657 16.5 10.3482 16.5 10.1257C16.5 9.82731 16.3815 9.54117 16.1705 9.33019C15.9595 9.11921 15.6734 9.00068 15.375 9.00068Z" />
</svg>
