<svg width="14" height="14" viewBox="0 0 14 14" xmlns="http://www.w3.org/2000/svg">
<path d="M10.8052 7.05797L7.98277 6.01891L6.94371 3.1943C6.88218 3.02713 6.77085 2.88287 6.62475 2.78096C6.47865 2.67906 6.30481 2.62442 6.12668 2.62442C5.94855 2.62442 5.7747 2.67906 5.6286 2.78096C5.4825 2.88287 5.37118 3.02713 5.30965 3.1943L4.26949 6.01562L1.44488 7.05469C1.27772 7.11622 1.13345 7.22755 1.03154 7.37365C0.929639 7.51975 0.875 7.69359 0.875 7.87172C0.875 8.04985 0.929639 8.22369 1.03154 8.36979C1.13345 8.51589 1.27772 8.62722 1.44488 8.68875L4.26566 9.73438L5.30472 12.5573C5.36626 12.7245 5.47758 12.8688 5.62368 12.9707C5.76978 13.0726 5.94363 13.1272 6.12175 13.1272C6.29988 13.1272 6.47373 13.0726 6.61983 12.9707C6.76593 12.8688 6.87725 12.7245 6.93879 12.5573L7.97785 9.73492L10.8025 8.69586C10.9696 8.63433 11.1139 8.523 11.2158 8.3769C11.3177 8.2308 11.3723 8.05696 11.3723 7.87883C11.3723 7.7007 11.3177 7.52686 11.2158 7.38076C11.1139 7.23466 10.9696 7.12333 10.8025 7.0618L10.8052 7.05797ZM7.67761 8.91406C7.55939 8.95746 7.45202 9.02606 7.36296 9.11512C7.27391 9.20417 7.20531 9.31154 7.16191 9.42977L6.12285 12.244L5.08597 9.42758C5.04255 9.30997 4.97416 9.20317 4.88551 9.11453C4.79686 9.02588 4.69006 8.95749 4.57246 8.91406L1.75824 7.875L4.57246 6.83594C4.69006 6.79251 4.79686 6.72412 4.88551 6.63547C4.97416 6.54683 5.04255 6.44003 5.08597 6.32242L6.12504 3.5082L7.1641 6.32242C7.20749 6.44065 7.2761 6.54802 7.36515 6.63707C7.4542 6.72613 7.56157 6.79473 7.6798 6.83813L10.494 7.87719L7.67761 8.91406ZM7.87504 2.1875C7.87504 2.07147 7.92113 1.96019 8.00318 1.87814C8.08522 1.79609 8.1965 1.75 8.31254 1.75H9.18754V0.875C9.18754 0.758968 9.23363 0.647688 9.31568 0.565641C9.39772 0.483594 9.509 0.4375 9.62504 0.4375C9.74107 0.4375 9.85235 0.483594 9.9344 0.565641C10.0164 0.647688 10.0625 0.758968 10.0625 0.875V1.75H10.9375C11.0536 1.75 11.1648 1.79609 11.2469 1.87814C11.3289 1.96019 11.375 2.07147 11.375 2.1875C11.375 2.30353 11.3289 2.41481 11.2469 2.49686C11.1648 2.57891 11.0536 2.625 10.9375 2.625H10.0625V3.5C10.0625 3.61603 10.0164 3.72731 9.9344 3.80936C9.85235 3.89141 9.74107 3.9375 9.62504 3.9375C9.509 3.9375 9.39772 3.89141 9.31568 3.80936C9.23363 3.72731 9.18754 3.61603 9.18754 3.5V2.625H8.31254C8.1965 2.625 8.08522 2.57891 8.00318 2.49686C7.92113 2.41481 7.87504 2.30353 7.87504 2.1875ZM13.5625 4.8125C13.5625 4.92853 13.5164 5.03981 13.4344 5.12186C13.3523 5.20391 13.2411 5.25 13.125 5.25H12.6875V5.6875C12.6875 5.80353 12.6414 5.91481 12.5594 5.99686C12.4773 6.07891 12.3661 6.125 12.25 6.125C12.134 6.125 12.0227 6.07891 11.9407 5.99686C11.8586 5.91481 11.8125 5.80353 11.8125 5.6875V5.25H11.375C11.259 5.25 11.1477 5.20391 11.0657 5.12186C10.9836 5.03981 10.9375 4.92853 10.9375 4.8125C10.9375 4.69647 10.9836 4.58519 11.0657 4.50314C11.1477 4.42109 11.259 4.375 11.375 4.375H11.8125V3.9375C11.8125 3.82147 11.8586 3.71019 11.9407 3.62814C12.0227 3.54609 12.134 3.5 12.25 3.5C12.3661 3.5 12.4773 3.54609 12.5594 3.62814C12.6414 3.71019 12.6875 3.82147 12.6875 3.9375V4.375H13.125C13.2411 4.375 13.3523 4.42109 13.4344 4.50314C13.5164 4.58519 13.5625 4.69647 13.5625 4.8125Z" />
</svg>
