<?xml version="1.0" encoding="utf-8"?>
<svg version="1.1" xmlns="http://www.w3.org/2000/svg" xmlns:xlink="http://www.w3.org/1999/xlink" x="0px" y="0px"
	 viewBox="0 0 30 30" style="enable-background:new 0 0 30 30;" xml:space="preserve">
<path d="M16.2,1.2v4.6c0,0.6-0.5,1.2-1.2,1.2c-0.6,0-1.2-0.5-1.2-1.2V1.2C13.8,0.5,14.4,0,15,0
	C15.6,0,16.2,0.5,16.2,1.2z M28.8,13.8h-4.6c-0.6,0-1.2,0.5-1.2,1.2c0,0.6,0.5,1.2,1.2,1.2h4.6c0.6,0,1.2-0.5,1.2-1.2
	C30,14.4,29.5,13.8,28.8,13.8z M22.3,20.7c-0.5-0.4-1.2-0.4-1.6,0c-0.4,0.4-0.4,1.2,0,1.6l3.3,3.3c0.5,0.5,1.2,0.5,1.6,0
	s0.5-1.2,0-1.6l0,0L22.3,20.7L22.3,20.7z M15,23.1c-0.6,0-1.2,0.5-1.2,1.2v4.6c0,0.6,0.5,1.2,1.2,1.2c0.6,0,1.2-0.5,1.2-1.2v-4.6
	C16.2,23.6,15.6,23.1,15,23.1z M7.7,20.7L4.4,24c-0.5,0.5-0.5,1.2,0,1.6s1.2,0.5,1.6,0l0,0l3.3-3.3c0.4-0.5,0.4-1.2-0.1-1.6
	C8.8,20.3,8.1,20.3,7.7,20.7z M6.9,15c0-0.6-0.5-1.2-1.2-1.2H1.2C0.5,13.8,0,14.4,0,15c0,0.6,0.5,1.2,1.2,1.2h4.6
	C6.4,16.2,6.9,15.6,6.9,15z M6,4.4c-0.5-0.5-1.2-0.5-1.6,0S3.9,5.6,4.4,6l3.3,3.3c0.5,0.4,1.2,0.4,1.6-0.1c0.4-0.4,0.4-1.1,0-1.6
	L6,4.4L6,4.4z"/>
</svg>
