<svg xmlns="http://www.w3.org/2000/svg" viewBox="0 0 18 18" height="18" width="18">
  <path
    d="m16.82,6.84c-.07-.21-.2-.4-.37-.53-.17-.14-.38-.22-.6-.24l-4.18-.36-1.64-3.89c-.09-.2-.23-.38-.41-.5-.18-.12-.4-.19-.62-.19s-.44.07-.62.19c-.18.12-.33.3-.41.5l-1.63,3.89-4.18.36c-.22.02-.43.1-.6.24s-.3.32-.37.53-.07.44-.01.65c.06.21.18.4.35.55l3.17,2.77-.95,4.12c-.05.22-.04.44.04.65.08.21.21.39.39.52.18.13.39.2.61.21.22,0,.44-.05.63-.16l3.59-2.18,3.59,2.18c.19.11.41.17.63.16.22,0,.43-.08.61-.21.18-.13.32-.31.39-.52.08-.21.09-.43.04-.65l-.95-4.12,3.17-2.77c.17-.15.29-.34.35-.55.06-.21.05-.44-.02-.65Zm-1.07.35h0s-3.17,2.76-3.17,2.76c-.15.13-.27.31-.33.5-.06.19-.07.4-.03.6l.95,4.12-3.59-2.18c-.18-.11-.38-.16-.58-.16s-.41.06-.58.16l-3.59,2.18.95-4.12c.05-.2.04-.41-.03-.6-.06-.19-.18-.37-.33-.5l-3.17-2.77s0,0,0,0l4.18-.36c.2-.02.4-.09.56-.21.17-.12.29-.28.37-.47l1.63-3.89,1.63,3.89c.08.19.21.35.37.47s.36.19.56.21l4.18.36h0Z" />
</svg>
