<svg width="14" height="13" viewBox="0 0 14 13" fill="none" xmlns="http://www.w3.org/2000/svg">
<path d="M13.082 5.32056C13.0291 5.15726 12.9292 5.01315 12.7949 4.90618C12.6606 4.79921 12.4978 4.73412 12.3268 4.719L9.07892 4.439L7.80579 1.4115C7.73951 1.25264 7.6277 1.11694 7.48446 1.0215C7.34121 0.926051 7.17293 0.875122 7.00079 0.875122C6.82866 0.875122 6.66038 0.926051 6.51713 1.0215C6.37388 1.11694 6.26208 1.25264 6.19579 1.4115L4.9265 4.439L1.67478 4.72064C1.50308 4.73507 1.33946 4.79987 1.20444 4.90691C1.06942 5.01396 0.969016 5.15849 0.915809 5.32237C0.862603 5.48625 0.858966 5.6622 0.905355 5.82814C0.951745 5.99408 1.0461 6.14264 1.17657 6.25517L3.64353 8.41095L2.90415 11.6124C2.86506 11.7799 2.87621 11.9552 2.93623 12.1165C2.99624 12.2777 3.10245 12.4176 3.24157 12.5188C3.3807 12.62 3.54656 12.678 3.71844 12.6854C3.89031 12.6928 4.06056 12.6494 4.2079 12.5606L6.99696 10.8653L9.79204 12.5606C9.93939 12.6494 10.1096 12.6928 10.2815 12.6854C10.4534 12.678 10.6192 12.62 10.7584 12.5188C10.8975 12.4176 11.0037 12.2777 11.0637 12.1165C11.1237 11.9552 11.1349 11.7799 11.0958 11.6124L10.357 8.40767L12.8234 6.25517C12.9538 6.14225 13.048 5.99327 13.094 5.82698C13.14 5.66068 13.1359 5.48449 13.082 5.32056ZM12.2497 5.594L9.78329 7.7465C9.66325 7.85091 9.57396 7.98608 9.52501 8.13746C9.47605 8.28885 9.4693 8.45071 9.50548 8.60564L10.2465 11.8125L7.45361 10.1172C7.31734 10.0342 7.16088 9.99033 7.00134 9.99033C6.8418 9.99033 6.68534 10.0342 6.54907 10.1172L3.76001 11.8125L4.49611 8.60782C4.53228 8.45289 4.52553 8.29103 4.47658 8.13965C4.42763 7.98827 4.33833 7.8531 4.21829 7.74868L1.75079 5.59728C1.75059 5.59564 1.75059 5.59399 1.75079 5.59236L5.00142 5.31126C5.16012 5.29727 5.312 5.24022 5.44065 5.14626C5.56931 5.05229 5.66988 4.92498 5.7315 4.77806L7.00079 1.75439L8.26954 4.77806C8.33116 4.92498 8.43172 5.05229 8.56038 5.14626C8.68904 5.24022 8.84092 5.29727 8.99962 5.31126L12.2508 5.59236C12.2508 5.59236 12.2508 5.59564 12.2508 5.59618L12.2497 5.594Z" fill="#475467"/>
</svg>
