<?xml version="1.0" encoding="utf-8"?>
<svg version="1.1" xmlns="http://www.w3.org/2000/svg" xmlns:xlink="http://www.w3.org/1999/xlink" x="0px" y="0px"
	 viewBox="0 0 30 30" style="enable-background:new 0 0 30 30;" xml:space="preserve">
<path d="M29.9,11.4c-0.3-0.8-1-1.4-1.8-1.5l-8-0.7L17,1.9c-0.5-1.1-1.7-1.6-2.8-1.2c-0.5,0.2-0.9,0.6-1.2,1.2L9.9,9.3
	L2,10c-1.2,0.1-2.1,1.1-2,2.3c0,0.6,0.3,1.1,0.7,1.4l6,5.3L5,26.8c-0.3,1.2,0.4,2.3,1.6,2.6c0.5,0.1,1.1,0,1.6-0.3L15,25l6.8,4.1
	c1,0.6,2.3,0.3,2.9-0.7c0.3-0.5,0.4-1,0.3-1.6L23.2,19l6-5.3C29.9,13.1,30.2,12.2,29.9,11.4z M27.8,12.1l-6,5.3
	c-0.6,0.5-0.9,1.3-0.7,2.1l1.8,7.8l-6.8-4.1c-0.7-0.4-1.5-0.4-2.2,0l-6.8,4.1l1.8-7.8c0.2-0.8-0.1-1.6-0.7-2.1l-6-5.3v0l8-0.7
	c0.8-0.1,1.5-0.6,1.8-1.3L15,2.7l3.1,7.4c0.3,0.7,1,1.2,1.8,1.3L27.8,12.1L27.8,12.1C27.9,12.1,27.8,12.1,27.8,12.1z"/>
</svg>
