<?xml version="1.0" encoding="utf-8"?>
<svg version="1.1" xmlns="http://www.w3.org/2000/svg" xmlns:xlink="http://www.w3.org/1999/xlink" x="0px" y="0px"
	 viewBox="0 0 30 30" style="enable-background:new 0 0 30 30;" xml:space="preserve">
<path d="M14,4V1c0-0.6,0.4-1,1-1c0.6,0,1,0.4,1,1v3c0,0.6-0.4,1-1,1C14.4,5,14,4.6,14,4z M23,15c0,4.4-3.6,8-8,8s-8-3.6-8-8
	s3.6-8,8-8C19.4,7,23,10.6,23,15z M21,15c0-3.3-2.7-6-6-6s-6,2.7-6,6s2.7,6,6,6C18.3,21,21,18.3,21,15z M6.3,7.7
	c0.4,0.4,1,0.4,1.4,0s0.4-1,0-1.4l-2-2c-0.4-0.4-1-0.4-1.4,0c-0.4,0.4-0.4,1,0,1.4C4.3,5.7,6.3,7.7,6.3,7.7z M6.3,22.3l-2,2
	c-0.4,0.4-0.4,1,0,1.4c0.4,0.4,1,0.4,1.4,0l2-2c0.4-0.4,0.4-1,0-1.4C7.3,21.9,6.7,21.9,6.3,22.3L6.3,22.3z M23,8
	c0.3,0,0.5-0.1,0.7-0.3l2-2c0.4-0.4,0.4-1,0-1.4c-0.4-0.4-1-0.4-1.4,0l-2,2c-0.4,0.4-0.4,1,0,1.4C22.5,7.9,22.7,8,23,8z M23.7,22.3
	c-0.4-0.4-1-0.4-1.4,0s-0.4,1,0,1.4l2,2c0.4,0.4,1,0.4,1.4,0s0.4-1,0-1.4L23.7,22.3z M5,15c0-0.6-0.4-1-1-1H1c-0.6,0-1,0.4-1,1
	c0,0.6,0.4,1,1,1h3C4.6,16,5,15.6,5,15z M15,25c-0.6,0-1,0.4-1,1v3c0,0.6,0.4,1,1,1c0.6,0,1-0.4,1-1v-3C16,25.4,15.6,25,15,25z
	 M29,14h-3c-0.6,0-1,0.4-1,1c0,0.6,0.4,1,1,1h3c0.6,0,1-0.4,1-1C30,14.4,29.6,14,29,14z"/>
</svg>
