<svg width="14" height="13" viewBox="0 0 14 13" fill="none" xmlns="http://www.w3.org/2000/svg">
<path d="M13.805 0.63676C13.7275 0.569865 13.6333 0.525376 13.5324 0.508085C13.4315 0.490794 13.3278 0.501357 13.2325 0.538635L0.566255 5.49551C0.386746 5.56531 0.23477 5.69154 0.133208 5.85519C0.0316461 6.01884 -0.0140051 6.21105 0.00312723 6.40289C0.0202596 6.59473 0.0992481 6.77582 0.228201 6.91888C0.357154 7.06194 0.529093 7.15925 0.71813 7.19614L4.00001 7.84051V11.4999C3.99936 11.6992 4.05859 11.8941 4.17003 12.0594C4.28147 12.2247 4.43997 12.3526 4.62501 12.4268C4.80975 12.5022 5.01292 12.5203 5.20809 12.4787C5.40327 12.4372 5.58142 12.3378 5.71938 12.1936L7.30188 10.5524L9.81251 12.7499C9.99364 12.9106 10.2273 12.9995 10.4694 12.9999C10.5755 12.9998 10.6809 12.9831 10.7819 12.9505C10.9468 12.8982 11.0952 12.8035 11.2122 12.676C11.3292 12.5485 11.4108 12.3925 11.4488 12.2236L13.9856 1.18739C14.0083 1.08785 14.0035 0.984023 13.9717 0.887023C13.9399 0.790023 13.8822 0.703511 13.805 0.63676ZM9.98376 2.88676L4.38438 6.89676L1.28438 6.28864L9.98376 2.88676ZM5.00001 11.4999V8.53239L6.54938 9.89114L5.00001 11.4999ZM10.4706 11.9999L5.30313 7.46864L12.7406 2.13801L10.4706 11.9999Z" fill="#101828"/>
</svg>
