<?xml version="1.0" encoding="utf-8"?>
<!-- Generator: Adobe Illustrator 27.8.1, SVG Export Plug-In . SVG Version: 6.00 Build 0)  -->
<svg version="1.1" xmlns="http://www.w3.org/2000/svg" xmlns:xlink="http://www.w3.org/1999/xlink" x="0px" y="0px"
	 viewBox="0 0 19 18" style="enable-background:new 0 0 19 18;" xml:space="preserve">
<path d="M16.9,6.2c-0.1-0.2-0.2-0.5-0.4-0.6c-0.2-0.2-0.4-0.3-0.6-0.4C15.8,5.1,15.5,5,15.3,5h-3.8V3.9
	c0-0.8-0.3-1.5-0.8-2c-0.5-0.5-1.3-0.8-2-0.8c-0.2,0-0.4,0.1-0.5,0.3L5.5,6.7h-3c-0.3,0-0.6,0.1-0.8,0.3C1.5,7.3,1.3,7.6,1.3,7.9
	v6.2c0,0.3,0.1,0.6,0.3,0.8c0.2,0.2,0.5,0.3,0.8,0.3h3.4h8.6c0.4,0,0.8-0.2,1.1-0.4c0.3-0.3,0.5-0.7,0.6-1.1L17,7
	C17,6.7,17,6.5,16.9,6.2z M2.5,7.9h2.7V14l-2.7,0L2.5,7.9z M15,13.6c0,0.1-0.1,0.2-0.2,0.3C14.7,14,14.6,14,14.4,14h-8V7.5L9,2.3
	c0.3,0.1,0.6,0.2,0.8,0.4c0.3,0.3,0.5,0.7,0.5,1.2v1.7c0,0.3,0.3,0.6,0.6,0.6h4.4h0c0.1,0,0.1,0,0.2,0c0.1,0,0.1,0.1,0.2,0.1
	c0,0.1,0.1,0.1,0.1,0.2c0,0.1,0,0.1,0,0.2L15,13.6z"/>
</svg>
