<?xml version="1.0" encoding="utf-8"?>
<!-- Generator: Adobe Illustrator 27.8.1, SVG Export Plug-In . SVG Version: 6.00 Build 0)  -->
<svg version="1.1" xmlns="http://www.w3.org/2000/svg" xmlns:xlink="http://www.w3.org/1999/xlink" x="0px" y="0px"
	 viewBox="0 0 19 18" style="enable-background:new 0 0 19 18;" xml:space="preserve">
<path d="M17.5,11l-0.8-6.8c-0.1-0.4-0.3-0.8-0.6-1.1c-0.3-0.3-0.7-0.4-1.1-0.4H6.4H3c-0.3,0-0.6,0.1-0.8,0.3
	C2,3.3,1.8,3.6,1.8,3.9v6.2c0,0.3,0.1,0.6,0.3,0.8c0.2,0.2,0.5,0.3,0.8,0.3h3l2.6,5.3c0.1,0.2,0.3,0.3,0.5,0.3c0.8,0,1.5-0.3,2-0.8
	c0.5-0.5,0.8-1.3,0.8-2V13h3.8c0.2,0,0.5-0.1,0.7-0.2c0.2-0.1,0.4-0.2,0.6-0.4c0.2-0.2,0.3-0.4,0.4-0.6C17.5,11.5,17.5,11.3,17.5,11
	z M5.8,10.1l-2.7,0L3,4h2.7V10.1z M16.3,11.4c0,0.1-0.1,0.1-0.1,0.2s-0.1,0.1-0.2,0.1c-0.1,0-0.1,0-0.2,0h-4.4
	c-0.3,0-0.6,0.3-0.6,0.6v1.7c0,0.4-0.2,0.9-0.5,1.2c-0.2,0.2-0.5,0.4-0.8,0.4L7,10.5V4h8c0.1,0,0.2,0,0.3,0.1
	c0.1,0.1,0.2,0.2,0.2,0.3l0.8,6.8C16.3,11.3,16.3,11.3,16.3,11.4z"/>
</svg>
