<svg width="25" height="24" viewBox="0 0 25 24" fill="none" xmlns="http://www.w3.org/2000/svg">
<path d="M21.5217 9.795C21.8605 9.72606 22.1652 9.54219 22.384 9.27449C22.6028 9.00679 22.7225 8.6717 22.7227 8.32594V6C22.7227 5.60218 22.5646 5.22064 22.2833 4.93934C22.002 4.65804 21.6205 4.5 21.2227 4.5H3.22266C2.82483 4.5 2.4433 4.65804 2.162 4.93934C1.88069 5.22064 1.72266 5.60218 1.72266 6V8.32594C1.72285 8.6717 1.84249 9.00679 2.06133 9.27449C2.28017 9.54219 2.58477 9.72606 2.9236 9.795C3.43023 9.90006 3.88517 10.1765 4.21178 10.5778C4.53839 10.9791 4.71672 11.4807 4.71672 11.9981C4.71672 12.5155 4.53839 13.0171 4.21178 13.4184C3.88517 13.8197 3.43023 14.0962 2.9236 14.2013C2.58414 14.2703 2.27905 14.4547 2.06014 14.7232C1.84123 14.9917 1.72198 15.3277 1.72266 15.6741V18C1.72266 18.3978 1.88069 18.7794 2.162 19.0607C2.4433 19.342 2.82483 19.5 3.22266 19.5H21.2227C21.6205 19.5 22.002 19.342 22.2833 19.0607C22.5646 18.7794 22.7227 18.3978 22.7227 18V15.6741C22.7225 15.3283 22.6028 14.9932 22.384 14.7255C22.1652 14.4578 21.8605 14.2739 21.5217 14.205C21.0151 14.0999 20.5602 13.8235 20.2335 13.4222C19.9069 13.0209 19.7286 12.5193 19.7286 12.0019C19.7286 11.4845 19.9069 10.9829 20.2335 10.5816C20.5602 10.1803 21.0151 9.90381 21.5217 9.79875V9.795ZM3.22266 15.675C4.06987 15.5024 4.83142 15.0424 5.37838 14.3728C5.92534 13.7031 6.22411 12.8651 6.22411 12.0005C6.22411 11.1359 5.92534 10.2978 5.37838 9.62819C4.83142 8.95857 4.06987 8.49852 3.22266 8.32594V6H8.47266V18H3.22266V15.675ZM21.2227 15.675V18H9.97266V6H21.2227V8.325C20.3754 8.49759 19.6139 8.95763 19.0669 9.62725C18.52 10.2969 18.2212 11.1349 18.2212 11.9995C18.2212 12.8641 18.52 13.7022 19.0669 14.3718C19.6139 15.0414 20.3754 15.5015 21.2227 15.6741V15.675Z" fill="#101828"/>
</svg>
