<svg width="16" height="13" viewBox="0 0 16 13" fill="none" xmlns="http://www.w3.org/2000/svg">
<path d="M15.148 4.71054L11.773 8.08554C11.6674 8.19109 11.5243 8.25038 11.375 8.25038C11.2257 8.25038 11.0826 8.19109 10.977 8.08554C10.8715 7.97999 10.8122 7.83684 10.8122 7.68757C10.8122 7.5383 10.8715 7.39515 10.977 7.2896L13.3923 4.87507H10.6016C9.22953 4.87469 7.89628 5.33035 6.81147 6.1704C5.72667 7.01044 4.95184 8.18723 4.60883 9.51569C4.57153 9.66022 4.47835 9.784 4.34979 9.85982C4.22122 9.93564 4.0678 9.95729 3.92328 9.91999C3.77876 9.8827 3.65497 9.78951 3.57915 9.66095C3.50333 9.53238 3.48169 9.37897 3.51898 9.23444C3.92371 7.66403 4.83928 6.27285 6.12152 5.27995C7.40377 4.28705 8.97984 3.74884 10.6016 3.75007H13.3937L10.977 1.33554C10.9248 1.28328 10.8833 1.22123 10.855 1.15295C10.8267 1.08466 10.8122 1.01148 10.8122 0.937569C10.8122 0.863659 10.8267 0.790473 10.855 0.722189C10.8833 0.653906 10.9248 0.591862 10.977 0.5396C11.0826 0.434052 11.2257 0.374756 11.375 0.374756C11.4489 0.374756 11.5221 0.389313 11.5904 0.417597C11.6587 0.445881 11.7207 0.487338 11.773 0.5396L15.148 3.9146C15.2003 3.96684 15.2418 4.02888 15.2701 4.09716C15.2984 4.16545 15.3129 4.23865 15.3129 4.31257C15.3129 4.38649 15.2984 4.45969 15.2701 4.52797C15.2418 4.59626 15.2003 4.6583 15.148 4.71054ZM12.5 11.6251H1.8125V3.18757C1.8125 3.03838 1.75324 2.89531 1.64775 2.78982C1.54226 2.68433 1.39918 2.62507 1.25 2.62507C1.10082 2.62507 0.957742 2.68433 0.852252 2.78982C0.746763 2.89531 0.6875 3.03838 0.6875 3.18757V11.6251C0.6875 11.9234 0.806026 12.2096 1.017 12.4206C1.22798 12.6315 1.51413 12.7501 1.8125 12.7501H12.5C12.6492 12.7501 12.7923 12.6908 12.8977 12.5853C13.0032 12.4798 13.0625 12.3368 13.0625 12.1876C13.0625 12.0384 13.0032 11.8953 12.8977 11.7898C12.7923 11.6843 12.6492 11.6251 12.5 11.6251Z" fill="#101828"/>
</svg>
