<?xml version="1.0" encoding="utf-8"?>
<svg version="1.1" xmlns="http://www.w3.org/2000/svg" xmlns:xlink="http://www.w3.org/1999/xlink" x="0px" y="0px"
	 viewBox="0 0 30 30" style="enable-background:new 0 0 30 30;" xml:space="preserve">
<path d="M11.5,23.1c0.7,0,1.2-0.6,1.2-1.2v-9.2c0-0.6-0.5-1.2-1.2-1.2s-1.2,0.6-1.2,1.2v9.2C10.3,22.6,10.8,23.1,11.5,23.1z"/>
<path d="M18.5,23.1c-0.7,0-1.2-0.6-1.2-1.2v-9.2c0-0.6,0.5-1.2,1.2-1.2s1.2,0.6,1.2,1.2v9.2C19.7,22.6,19.2,23.1,18.5,23.1z"/>
<path d="M27.7,4.7h-5.8V3.5c0-2-1.5-3.5-3.4-3.5h-7.1C9.6,0,8.1,1.5,8.1,3.5v1.2H2.3c-0.6,0-1.2,0.5-1.2,1.2c0,0.7,0.5,1.2,1.2,1.2
	h1.2v20.7c0,1.3,1,2.3,2.3,2.3h18.4c1.3,0,2.3-1,2.3-2.3V7.1h1.2c0.7,0,1.2-0.5,1.2-1.2C28.9,5.2,28.3,4.7,27.7,4.7z M10.4,3.5
	c0-0.6,0.5-1.2,1.2-1.2h6.8c0.7,0,1.2,0.6,1.2,1.2v1.2h-9.2V3.5z M24.2,27.5H5.8V7h18.4V27.5z"/>
</svg>
