<svg xmlns="http://www.w3.org/2000/svg" width="16" height="16" fill="none"><path fill="#101828" d="M15.462 4.309A.5.5 0 0 0 15.001 4h-1.902a3.041 3.041 0 0 0-2.592-1.5 2.932 2.932 0 0 0-2.11.857A2.994 2.994 0 0 0 7.5 5.5v.38c-2.516-.663-4.574-2.71-4.596-2.732a.5.5 0 0 0-.853.308c-.27 2.987.598 4.985 1.375 6.136.379.569.84 1.079 1.368 1.513-.952 1.095-2.451 1.67-2.467 1.677a.5.5 0 0 0-.24.746c.046.07.233.315.692.545.566.284 1.314.427 2.221.427 4.417 0 8.108-3.401 8.485-7.777l1.87-1.869a.5.5 0 0 0 .107-.545ZM12.65 6.147a.5.5 0 0 0-.145.321C12.25 10.412 8.955 13.5 5 13.5c-.66 0-1.125-.087-1.45-.192.719-.39 1.722-1.063 2.367-2.03a.5.5 0 0 0-.167-.71c-.029-.017-2.744-1.646-2.75-6C4 5.38 5.83 6.64 7.917 6.992A.5.5 0 0 0 8.5 6.5v-1a2 2 0 0 1 .6-1.432 1.934 1.934 0 0 1 1.394-.568c.792.01 1.53.493 1.84 1.2a.5.5 0 0 0 .458.3h1L12.65 6.147Z"/></svg>
