<?xml version="1.0" encoding="utf-8"?>
<svg version="1.1" xmlns="http://www.w3.org/2000/svg" xmlns:xlink="http://www.w3.org/1999/xlink" x="0px" y="0px"
	 viewBox="0 0 30 30" style="enable-background:new 0 0 30 30;" xml:space="preserve">
<style type="text/css">
	.st0{display:none;}
</style>
<path class="st0" d="M22.9,24.9c0.3,0.5,0.2,1.1-0.3,1.4s-1.1,0.2-1.4-0.3c0,0,0,0,0-0.1c-2-3.4-6.4-4.5-9.8-2.5
	c-1,0.6-1.9,1.5-2.5,2.5c-0.3,0.5-0.9,0.7-1.3,0.4C7,26.1,6.8,25.5,7.1,25c0,0,0,0,0-0.1c1-1.7,2.4-3,4.2-3.7
	c-2.6-2-3.1-5.8-1.1-8.4s5.8-3.1,8.4-1.1s3.1,5.8,1.1,8.4c-0.3,0.4-0.7,0.8-1.1,1.1C20.4,22,21.9,23.3,22.9,24.9z"/>
<circle class="st0" cx="15" cy="16.4" r="4"/>
<path d="M8,13.4c0-0.6-0.4-1-1-1c-1.7,0-3-1.3-3-3s1.3-3,3-3c1.4,0,2.6,0.9,2.9,2.2c0.1,0.5,0.7,0.9,1.2,0.7
	c0.5-0.1,0.9-0.7,0.7-1.2c-0.7-2.7-3.4-4.3-6.1-3.6S1.5,8,2.2,10.7c0.2,0.9,0.8,1.8,1.5,2.4c-1.4,0.6-2.5,1.5-3.4,2.7
	c-0.3,0.4-0.2,1.1,0.2,1.4c0.4,0.3,1.1,0.2,1.4-0.2l0,0C3,15.4,5,14.4,7,14.4C7.6,14.4,8,14,8,13.4z"/>
<path d="M23.1,14.4c2,0,4,1,5.1,2.6l0,0c0.3,0.4,1,0.5,1.4,0.2c0.4-0.3,0.5-1,0.2-1.4c-0.9-1.2-2-2.1-3.4-2.7
	c0.7-0.6,1.3-1.5,1.5-2.4c0.7-2.7-0.8-5.5-3.5-6.2S19,5.4,18.3,8.1c-0.2,0.5,0.2,1.1,0.7,1.2c0.5,0.2,1.1-0.2,1.2-0.7
	c0.3-1.3,1.5-2.2,2.9-2.2c1.7,0,3,1.3,3,3s-1.3,3-3,3c-0.6,0-1,0.4-1,1S22.5,14.4,23.1,14.4z"/>
<path d="M22.8,24.8c0,0-1.3-2.5-4.2-3.6c1.4-1,2.4-2.8,2.4-4.8c0-3.3-2.7-6-6-6s-6,2.7-6,6c0,2,0.9,3.7,2.4,4.8
	c-2.9,1.2-4.2,3.6-4.2,3.6s-0.6,1,0.3,1.5c0.8,0.4,1.2-0.2,1.3-0.4c0.1-0.2,1.7-3.4,6.3-3.4c4.6,0,6.1,3.2,6.3,3.4
	c0.1,0.2,0.5,0.8,1.3,0.4C23.4,25.9,22.8,24.8,22.8,24.8z M15,20.5c-2.2,0-4-1.8-4-4c0-2.2,1.9-4,4-4s4,1.9,4,4
	C19,18.7,17.2,20.5,15,20.5z"/>
</svg>
