<svg xmlns="http://www.w3.org/2000/svg" viewBox="0 0 23 22" height="22" width="23">
	<path d="M20.3,18.6c-1.3-2.3-3.3-3.9-5.7-4.7c1.2-0.7,2.1-1.7,2.6-3c0.5-1.3,0.6-2.6,0.2-4c-0.4-1.3-1.1-2.5-2.2-3.3
		c-1.1-0.8-2.4-1.3-3.8-1.3c-1.4,0-2.7,0.4-3.8,1.3c-1.1,0.8-1.9,2-2.2,3.3c-0.4,1.3-0.3,2.7,0.2,4c0.5,1.3,1.4,2.3,2.6,3
		C6,14.7,4,16.3,2.7,18.6c0,0.1-0.1,0.2-0.1,0.3c0,0.1,0,0.2,0,0.3c0,0.1,0.1,0.2,0.1,0.2c0.1,0.1,0.1,0.1,0.2,0.2
		c0.1,0,0.2,0.1,0.3,0.1c0.1,0,0.2,0,0.3,0c0.1,0,0.2-0.1,0.2-0.1s0.1-0.1,0.2-0.2c1.6-2.8,4.5-4.5,7.7-4.5c3.2,0,6,1.7,7.7,4.5
		c0,0.1,0.1,0.2,0.2,0.2c0.1,0.1,0.2,0.1,0.2,0.1c0.1,0,0.2,0,0.3,0c0.1,0,0.2,0,0.3-0.1c0.1,0,0.1-0.1,0.2-0.2
		c0.1-0.1,0.1-0.2,0.1-0.2c0-0.1,0-0.2,0-0.3C20.4,18.7,20.4,18.6,20.3,18.6z M6.7,8.6c0-1,0.3-1.9,0.8-2.7C8,5.1,8.8,4.5,9.7,4.1
		c0.9-0.4,1.8-0.5,2.8-0.3c0.9,0.2,1.8,0.6,2.5,1.3c0.7,0.7,1.1,1.5,1.3,2.5c0.2,0.9,0.1,1.9-0.3,2.8c-0.4,0.9-1,1.6-1.8,2.2
		s-1.7,0.8-2.7,0.8c-1.3,0-2.5-0.5-3.4-1.4C7.2,11.1,6.7,9.9,6.7,8.6z"/>
</svg>
