<svg width="27" height="26" viewBox="0 0 27 26" xmlns="http://www.w3.org/2000/svg">
<path id="Vector" d="M13.2227 0C10.6515 0 8.13809 0.762437 6.00025 2.1909C3.86241 3.61935 2.19617 5.64968 1.21223 8.02512C0.228289 10.4006 -0.0291544 13.0144 0.472453 15.5362C0.974061 18.0579 2.21219 20.3743 4.03027 22.1924C5.84836 24.0105 8.16473 25.2486 10.6865 25.7502C13.2082 26.2518 15.8221 25.9944 18.1975 25.0104C20.573 24.0265 22.6033 22.3603 24.0318 20.2224C25.4602 18.0846 26.2227 15.5712 26.2227 13C26.219 9.5533 24.8482 6.24882 22.411 3.81163C19.9738 1.37445 16.6694 0.00363977 13.2227 0ZM6.48266 21.6875C7.20608 20.5561 8.20267 19.625 9.38056 18.9801C10.5585 18.3351 11.8798 17.9971 13.2227 17.9971C14.5656 17.9971 15.8869 18.3351 17.0648 18.9801C18.2427 19.625 19.2392 20.5561 19.9627 21.6875C18.0356 23.1862 15.6639 23.9999 13.2227 23.9999C10.7814 23.9999 8.40974 23.1862 6.48266 21.6875ZM9.22266 12C9.22266 11.2089 9.45726 10.4355 9.89678 9.77772C10.3363 9.11992 10.961 8.60723 11.6919 8.30448C12.4228 8.00173 13.2271 7.92252 14.003 8.07686C14.7789 8.2312 15.4917 8.61216 16.0511 9.17157C16.6105 9.73098 16.9915 10.4437 17.1458 11.2196C17.3001 11.9956 17.2209 12.7998 16.9182 13.5307C16.6154 14.2616 16.1027 14.8864 15.4449 15.3259C14.7871 15.7654 14.0138 16 13.2227 16C12.1618 16 11.1444 15.5786 10.3942 14.8284C9.64409 14.0783 9.22266 13.0609 9.22266 12ZM21.4427 20.3013C20.3274 18.6851 18.7591 17.4348 16.9352 16.7075C17.9149 15.9358 18.6299 14.878 18.9806 13.6811C19.3313 12.4843 19.3003 11.2079 18.8919 10.0294C18.4836 8.851 17.7181 7.82911 16.7021 7.10586C15.686 6.38262 14.4698 5.99397 13.2227 5.99397C11.9755 5.99397 10.7593 6.38262 9.74324 7.10586C8.72718 7.82911 7.96175 8.851 7.5534 10.0294C7.14504 11.2079 7.11406 12.4843 7.46475 13.6811C7.81545 14.878 8.53039 15.9358 9.51016 16.7075C7.68618 17.4348 6.11795 18.6851 5.00266 20.3013C3.59337 18.7165 2.67225 16.7581 2.35022 14.6619C2.02819 12.5657 2.31897 10.4211 3.18756 8.48637C4.05615 6.55163 5.4655 4.90922 7.24592 3.75692C9.02633 2.60462 11.1019 1.99156 13.2227 1.99156C15.3434 1.99156 17.419 2.60462 19.1994 3.75692C20.9798 4.90922 22.3892 6.55163 23.2578 8.48637C24.1264 10.4211 24.4171 12.5657 24.0951 14.6619C23.7731 16.7581 22.852 18.7165 21.4427 20.3013Z" />
</svg>
