<?xml version="1.0" encoding="utf-8"?>
<svg version="1.1" xmlns="http://www.w3.org/2000/svg" xmlns:xlink="http://www.w3.org/1999/xlink" x="0px" y="0px"
	 viewBox="0 0 30 30" style="enable-background:new 0 0 30 30;" xml:space="preserve">
<path d="M29.9,27.7c-1.5-3.7-5.2-6.6-9.8-7.8c0.1,0,0.1,0,0.2-0.1c3-1.8,5-5.1,5-8.9c0-5.7-4.7-10.3-10.3-10.3S4.6,5.4,4.6,11
	c0,3.8,2,7,5,8.9c0.1,0,0.2,0,0.3,0.1c-4.6,1.2-8.3,4.1-9.8,7.8c-0.2,0.6,0.1,1.2,0.6,1.4c0.6,0.2,1.2-0.1,1.4-0.6
	C3.7,24.4,9,21.5,15,21.4c6,0,11.3,2.9,12.9,7.1c0.2,0.6,0.9,0.8,1.4,0.6C29.9,28.9,30.1,28.3,29.9,27.7z M6.8,11
	c0-4.5,3.7-8.2,8.2-8.2s8.2,3.7,8.2,8.2s-3.7,8.2-8.2,8.2S6.8,15.5,6.8,11z"/>
</svg>
