<?xml version="1.0" encoding="UTF-8"?>
<svg id="Layer_1" data-name="Layer 1" xmlns="http://www.w3.org/2000/svg" xmlns:xlink="http://www.w3.org/1999/xlink" viewBox="0 0 18 18">
  <defs>
    <clipPath id="clippath">
      <rect width="18" height="18" style="fill: none;"/>
    </clipPath>
  </defs>
  <g style="clip-path: url(#clippath);">
    <path d="M17.84,9.4l-1.69,1.69c-.05,.05-.11,.09-.18,.12-.07,.03-.14,.04-.22,.04s-.15-.01-.22-.04c-.07-.03-.13-.07-.18-.12l-1.69-1.69c-.11-.11-.16-.25-.16-.4s.06-.29,.16-.4c.11-.11,.25-.16,.4-.16s.29,.06,.4,.16l.73,.73v-.33c0-1.31-.41-2.59-1.19-3.65-.77-1.06-1.86-1.85-3.11-2.25-1.25-.4-2.59-.4-3.83,.01-1.24,.41-2.33,1.21-3.09,2.27-.09,.12-.22,.2-.37,.23-.15,.02-.3-.01-.42-.1-.12-.09-.2-.22-.23-.37-.02-.15,.01-.3,.1-.42,.9-1.26,2.18-2.2,3.65-2.68,1.47-.49,3.06-.49,4.53-.02,1.47,.47,2.76,1.4,3.67,2.66,.91,1.25,1.4,2.76,1.4,4.31v.33l.73-.73c.11-.11,.25-.16,.4-.16s.29,.06,.4,.16c.11,.11,.16,.25,.16,.4s-.06,.29-.16,.4Zm-2.9,3.87c-.9,1.26-2.18,2.2-3.65,2.68-1.47,.48-3.06,.49-4.53,.02-1.47-.47-2.76-1.4-3.67-2.65-.91-1.25-1.4-2.76-1.4-4.31v-.33l-.73,.73c-.11,.11-.25,.16-.4,.16s-.29-.06-.4-.16c-.11-.11-.16-.25-.16-.4s.06-.29,.16-.4l1.69-1.69c.05-.05,.11-.09,.18-.12s.14-.04,.22-.04,.15,.01,.22,.04c.07,.03,.13,.07,.18,.12l1.69,1.69c.11,.11,.16,.25,.16,.4s-.06,.29-.16,.4c-.11,.11-.25,.16-.4,.16s-.29-.06-.4-.16l-.73-.73v.33c0,1.51,.56,2.98,1.56,4.11,.63-.91,1.51-1.61,2.54-2.02-.55-.43-.95-1.03-1.15-1.7-.2-.67-.18-1.39,.05-2.05s.66-1.24,1.23-1.64c.57-.41,1.26-.63,1.96-.63s1.39,.22,1.96,.63c.57,.41,1,.98,1.23,1.64,.23,.66,.25,1.38,.05,2.05-.2,.67-.6,1.27-1.15,1.7,1.03,.41,1.91,1.11,2.54,2.02,.14-.16,.28-.33,.4-.5,.09-.12,.22-.2,.37-.23,.15-.02,.3,.01,.42,.1,.12,.09,.2,.22,.23,.37,.02,.15-.01,.3-.1,.42h0Zm-5.94-2.58c.45,0,.88-.13,1.25-.38,.37-.25,.66-.6,.83-1.01,.17-.41,.21-.86,.13-1.3-.09-.44-.3-.84-.62-1.15-.31-.31-.72-.53-1.15-.62-.44-.09-.89-.04-1.3,.13-.41,.17-.76,.46-1.01,.83-.25,.37-.38,.81-.38,1.25,0,.6,.24,1.17,.66,1.59,.42,.42,.99,.66,1.59,.66Zm0,4.5c1.37,0,2.71-.46,3.79-1.3-.41-.64-.97-1.16-1.63-1.52s-1.41-.55-2.16-.55-1.5,.19-2.16,.55c-.66,.36-1.22,.89-1.63,1.52,1.08,.84,2.42,1.3,3.79,1.3Z"/>
  </g>
</svg>