<svg width="16" height="16" viewBox="0 0 16 16" xmlns="http://www.w3.org/2000/svg">
  <path d="M1.7 7.89993C1.75253 7.93933 1.8123 7.96799 1.87591 7.98429C1.93952 8.00058 2.00571 8.00419 2.07071 7.9949C2.13571 7.98562 2.19825 7.96362 2.25475 7.93017C2.31125 7.89671 2.3606 7.85246 2.4 7.79993C2.70273 7.39629 3.09528 7.06868 3.54656 6.84304C3.99784 6.6174 4.49545 6.49993 5 6.49993C5.50455 6.49993 6.00216 6.6174 6.45344 6.84304C6.90472 7.06868 7.29727 7.39629 7.6 7.79993C7.67966 7.90592 7.79815 7.97593 7.92942 7.99457C8.06069 8.0132 8.19399 7.97894 8.3 7.8993C8.33779 7.8712 8.37127 7.83772 8.39937 7.79993C8.7021 7.39629 9.09465 7.06868 9.54593 6.84304C9.99721 6.6174 10.4948 6.49993 10.9994 6.49993C11.5039 6.49993 12.0015 6.6174 12.4528 6.84304C12.9041 7.06868 13.2966 7.39629 13.5994 7.79993C13.679 7.90602 13.7976 7.97612 13.9289 7.99481C14.0602 8.01351 14.1936 7.97927 14.2997 7.89962C14.4058 7.81997 14.4759 7.70144 14.4946 7.57011C14.5133 7.43877 14.479 7.30539 14.3994 7.19931C13.9568 6.60597 13.3666 6.13882 12.6875 5.84431C13.0598 5.50439 13.3206 5.05986 13.4358 4.56905C13.5509 4.07825 13.515 3.56409 13.3327 3.09407C13.1504 2.62405 12.8303 2.22011 12.4143 1.93529C11.9984 1.65046 11.506 1.49805 11.0019 1.49805C10.4977 1.49805 10.0054 1.65046 9.58942 1.93529C9.17346 2.22011 8.85332 2.62405 8.67103 3.09407C8.48874 3.56409 8.45281 4.07825 8.56796 4.56905C8.6831 5.05986 8.94394 5.50439 9.31625 5.84431C8.8259 6.05634 8.38046 6.35988 8.00375 6.73868C7.62704 6.35988 7.1816 6.05634 6.69125 5.84431C7.06355 5.50439 7.3244 5.05986 7.43954 4.56905C7.55469 4.07825 7.51876 3.56409 7.33647 3.09407C7.15418 2.62405 6.83404 2.22011 6.41808 1.93529C6.00212 1.65046 5.50976 1.49805 5.00562 1.49805C4.50149 1.49805 4.00913 1.65046 3.59317 1.93529C3.17721 2.22011 2.85707 2.62405 2.67478 3.09407C2.49249 3.56409 2.45656 4.07825 2.57171 4.56905C2.68685 5.05986 2.9477 5.50439 3.32 5.84431C2.63791 6.13786 2.04481 6.60531 1.6 7.19993C1.5606 7.25246 1.53194 7.31223 1.51564 7.37584C1.49935 7.43945 1.49574 7.50564 1.50503 7.57064C1.51431 7.63564 1.53631 7.69818 1.56976 7.75468C1.60322 7.81118 1.64747 7.86053 1.7 7.89993ZM11 2.49993C11.2967 2.49993 11.5867 2.5879 11.8334 2.75273C12.08 2.91755 12.2723 3.15182 12.3858 3.4259C12.4994 3.69999 12.5291 4.00159 12.4712 4.29257C12.4133 4.58354 12.2704 4.85081 12.0607 5.06059C11.8509 5.27037 11.5836 5.41323 11.2926 5.47111C11.0017 5.52899 10.7001 5.49928 10.426 5.38575C10.1519 5.27222 9.91762 5.07996 9.7528 4.83329C9.58797 4.58661 9.5 4.2966 9.5 3.99993C9.5 3.60211 9.65804 3.22057 9.93934 2.93927C10.2206 2.65797 10.6022 2.49993 11 2.49993ZM5 2.49993C5.29667 2.49993 5.58668 2.5879 5.83336 2.75273C6.08003 2.91755 6.27229 3.15182 6.38582 3.4259C6.49935 3.69999 6.52906 4.00159 6.47118 4.29257C6.4133 4.58354 6.27044 4.85081 6.06066 5.06059C5.85088 5.27037 5.58361 5.41323 5.29264 5.47111C5.00166 5.52899 4.70006 5.49928 4.42597 5.38575C4.15189 5.27222 3.91762 5.07996 3.7528 4.83329C3.58797 4.58661 3.5 4.2966 3.5 3.99993C3.5 3.60211 3.65804 3.22057 3.93934 2.93927C4.22064 2.65797 4.60218 2.49993 5 2.49993ZM12.6875 12.3443C13.0598 12.0044 13.3206 11.5599 13.4358 11.0691C13.5509 10.5782 13.515 10.0641 13.3327 9.59407C13.1504 9.12404 12.8303 8.72011 12.4143 8.43529C11.9984 8.15046 11.506 7.99805 11.0019 7.99805C10.4977 7.99805 10.0054 8.15046 9.58942 8.43529C9.17346 8.72011 8.85332 9.12404 8.67103 9.59407C8.48874 10.0641 8.45281 10.5782 8.56796 11.0691C8.6831 11.5599 8.94394 12.0044 9.31625 12.3443C8.8259 12.5563 8.38046 12.8599 8.00375 13.2387C7.62704 12.8599 7.1816 12.5563 6.69125 12.3443C7.06355 12.0044 7.3244 11.5599 7.43954 11.0691C7.55469 10.5782 7.51876 10.0641 7.33647 9.59407C7.15418 9.12404 6.83404 8.72011 6.41808 8.43529C6.00212 8.15046 5.50976 7.99805 5.00562 7.99805C4.50149 7.99805 4.00913 8.15046 3.59317 8.43529C3.17721 8.72011 2.85707 9.12404 2.67478 9.59407C2.49249 10.0641 2.45656 10.5782 2.57171 11.0691C2.68685 11.5599 2.9477 12.0044 3.32 12.3443C2.63791 12.6379 2.04481 13.1053 1.6 13.6999C1.5606 13.7525 1.53194 13.8122 1.51564 13.8758C1.49935 13.9394 1.49574 14.0056 1.50503 14.0706C1.51431 14.1356 1.53631 14.1982 1.56976 14.2547C1.60322 14.3112 1.64747 14.3605 1.7 14.3999C1.75253 14.4393 1.8123 14.468 1.87591 14.4843C1.93952 14.5006 2.00571 14.5042 2.07071 14.4949C2.13571 14.4856 2.19825 14.4636 2.25475 14.4302C2.31125 14.3967 2.3606 14.3525 2.4 14.2999C2.70273 13.8963 3.09528 13.5687 3.54656 13.343C3.99784 13.1174 4.49545 12.9999 5 12.9999C5.50455 12.9999 6.00216 13.1174 6.45344 13.343C6.90472 13.5687 7.29727 13.8963 7.6 14.2999C7.67966 14.4059 7.79815 14.4759 7.92942 14.4946C8.06069 14.5132 8.19399 14.4789 8.3 14.3993C8.33779 14.3712 8.37127 14.3377 8.39937 14.2999C8.7021 13.8963 9.09465 13.5687 9.54593 13.343C9.99721 13.1174 10.4948 12.9999 10.9994 12.9999C11.5039 12.9999 12.0015 13.1174 12.4528 13.343C12.9041 13.5687 13.2966 13.8963 13.5994 14.2999C13.679 14.406 13.7976 14.4761 13.9289 14.4948C14.0602 14.5135 14.1936 14.4793 14.2997 14.3996C14.4058 14.32 14.4759 14.2014 14.4946 14.0701C14.5133 13.9388 14.479 13.8054 14.3994 13.6993C13.9568 13.106 13.3666 12.6388 12.6875 12.3443ZM5 8.99993C5.29667 8.99993 5.58668 9.0879 5.83336 9.25273C6.08003 9.41755 6.27229 9.65182 6.38582 9.9259C6.49935 10.2 6.52906 10.5016 6.47118 10.7926C6.4133 11.0835 6.27044 11.3508 6.06066 11.5606C5.85088 11.7704 5.58361 11.9132 5.29264 11.9711C5.00166 12.029 4.70006 11.9993 4.42597 11.8857C4.15189 11.7722 3.91762 11.58 3.7528 11.3333C3.58797 11.0866 3.5 10.7966 3.5 10.4999C3.5 10.1021 3.65804 9.72057 3.93934 9.43927C4.22064 9.15797 4.60218 8.99993 5 8.99993ZM11 8.99993C11.2967 8.99993 11.5867 9.0879 11.8334 9.25273C12.08 9.41755 12.2723 9.65182 12.3858 9.9259C12.4994 10.2 12.5291 10.5016 12.4712 10.7926C12.4133 11.0835 12.2704 11.3508 12.0607 11.5606C11.8509 11.7704 11.5836 11.9132 11.2926 11.9711C11.0017 12.029 10.7001 11.9993 10.426 11.8857C10.1519 11.7722 9.91762 11.58 9.7528 11.3333C9.58797 11.0866 9.5 10.7966 9.5 10.4999C9.5 10.1021 9.65804 9.72057 9.93934 9.43927C10.2206 9.15797 10.6022 8.99993 11 8.99993Z" />
</svg>
