<svg xmlns="http://www.w3.org/2000/svg" viewBox="0 0 18 18" height="18" width="18">
  <path
    d="m16.94,9.53h-1.09v-1.09c0-.33-.27-.6-.6-.6s-.6.27-.6.6v1.09h-1.09c-.33,0-.6.27-.6.6s.27.6.6.6h1.09v1.09c0,.33.27.6.6.6s.6-.27.6-.6v-1.09h1.09c.33,0,.6-.27.6-.6s-.27-.6-.6-.6Z" />
  <path
    d="m10.68,12.01c-.32-.15-.64-.27-.97-.37,1.33-.86,2.21-2.35,2.21-4.04,0-2.66-2.16-4.82-4.82-4.82S2.27,4.94,2.27,7.59c0,1.69.88,3.18,2.21,4.04-.33.11-.66.23-.97.37-1.11.52-2.12,1.29-2.91,2.23-.21.25-.18.63.07.85.25.21.63.18.85-.07.68-.81,1.54-1.47,2.5-1.92,1.91-.89,4.24-.89,6.15,0,.95.44,1.82,1.11,2.5,1.92.12.14.29.21.46.21.14,0,.27-.05.39-.14.25-.21.29-.59.07-.85-.79-.94-1.8-1.71-2.91-2.23ZM3.47,7.59c0-2,1.62-3.62,3.62-3.62s3.62,1.62,3.62,3.62-1.62,3.62-3.62,3.62-3.62-1.62-3.62-3.62Z" />
</svg>
