<svg id="Layer_1" data-name="Layer 1" xmlns="http://www.w3.org/2000/svg" viewBox="0 0 10.5 10.5">
  <path d="M10.5,.88v1.53c0,.12-.05,.23-.13,.31-.08,.08-.19,.13-.31,.13s-.23-.05-.31-.13c-.08-.08-.13-.19-.13-.31V.88h-1.53c-.12,0-.23-.05-.31-.13-.08-.08-.13-.19-.13-.31s.05-.23,.13-.31c.08-.08,.19-.13,.31-.13h1.53c.23,0,.45,.09,.62,.26,.16,.16,.26,.39,.26,.62Zm-.44,6.78c-.12,0-.23,.05-.31,.13-.08,.08-.13,.19-.13,.31v1.53h-1.53c-.12,0-.23,.05-.31,.13-.08,.08-.13,.19-.13,.31s.05,.23,.13,.31c.08,.08,.19,.13,.31,.13h1.53c.23,0,.45-.09,.62-.26s.26-.39,.26-.62v-1.53c0-.12-.05-.23-.13-.31-.08-.08-.19-.13-.31-.13Zm-7.66,1.97H.88v-1.53c0-.12-.05-.23-.13-.31-.08-.08-.19-.13-.31-.13s-.23,.05-.31,.13c-.08,.08-.13,.19-.13,.31v1.53c0,.23,.09,.45,.26,.62,.16,.16,.39,.26,.62,.26h1.53c.12,0,.23-.05,.31-.13,.08-.08,.13-.19,.13-.31s-.05-.23-.13-.31c-.08-.08-.19-.13-.31-.13ZM.44,2.84c.12,0,.23-.05,.31-.13s.13-.19,.13-.31V.88h1.53c.12,0,.23-.05,.31-.13s.13-.19,.13-.31-.05-.23-.13-.31c-.08-.08-.19-.13-.31-.13H.88c-.23,0-.45,.09-.62,.26-.16,.16-.26,.39-.26,.62v1.53c0,.12,.05,.23,.13,.31,.08,.08,.19,.13,.31,.13ZM7.88,7.88c-.07,0-.14-.02-.2-.05s-.11-.07-.15-.13c-.26-.35-.61-.64-1-.84-.39-.2-.83-.3-1.27-.3s-.88,.1-1.27,.3c-.39,.2-.74,.48-1,.84-.07,.09-.17,.15-.29,.17-.11,.02-.23-.01-.32-.08-.09-.07-.15-.17-.17-.29-.02-.11,.01-.23,.08-.32,.39-.52,.9-.93,1.5-1.19-.33-.3-.55-.69-.65-1.12-.1-.43-.07-.88,.09-1.29,.16-.41,.44-.76,.8-1.01,.36-.25,.79-.38,1.24-.38s.87,.13,1.24,.38c.36,.25,.64,.6,.8,1.01,.16,.41,.19,.86,.09,1.29-.1,.43-.33,.82-.65,1.12,.59,.26,1.11,.67,1.5,1.19,.05,.06,.08,.14,.09,.22,0,.08,0,.16-.04,.23-.04,.07-.09,.13-.16,.18-.07,.04-.15,.07-.23,.07Zm-2.62-2.19c.26,0,.51-.08,.73-.22,.22-.14,.38-.35,.48-.59,.1-.24,.13-.5,.07-.76s-.18-.49-.36-.67c-.18-.18-.42-.31-.67-.36s-.52-.02-.76,.07c-.24,.1-.44,.27-.59,.48-.14,.22-.22,.47-.22,.73,0,.35,.14,.68,.38,.93s.58,.38,.93,.38Z" />
</svg>
