<svg width="12" height="12" viewBox="0 0 12 12" xmlns="http://www.w3.org/2000/svg">
<path d="M8.18754 2.06251C8.18754 1.94647 8.23364 1.83519 8.31569 1.75315C8.39773 1.6711 8.50901 1.62501 8.62504 1.62501H11.25C11.3661 1.62501 11.4774 1.6711 11.5594 1.75315C11.6415 1.83519 11.6875 1.94647 11.6875 2.06251C11.6875 2.17854 11.6415 2.28982 11.5594 2.37187C11.4774 2.45391 11.3661 2.50001 11.25 2.50001H8.62504C8.50901 2.50001 8.39773 2.45391 8.31569 2.37187C8.23364 2.28982 8.18754 2.17854 8.18754 2.06251ZM11.6088 5.05282C11.8087 6.24094 11.6258 7.46184 11.0865 8.53924C10.5473 9.61664 9.67961 10.4948 8.60875 11.0469C7.53789 11.599 6.31927 11.7965 5.12884 11.6109C3.93841 11.4253 2.83778 10.8661 1.98584 10.0142C1.13391 9.16228 0.574771 8.06164 0.389149 6.87121C0.203528 5.68078 0.401032 4.46216 0.953146 3.3913C1.50526 2.32044 2.38341 1.45275 3.46081 0.913508C4.53822 0.374267 5.75911 0.191382 6.94723 0.391256C7.0608 0.41134 7.16184 0.475454 7.22838 0.569653C7.29492 0.663851 7.32158 0.780513 7.30255 0.894262C7.28352 1.00801 7.22034 1.10964 7.12677 1.17705C7.03319 1.24447 6.91678 1.2722 6.80286 1.25423C6.11277 1.13814 5.40568 1.17382 4.73079 1.35879C4.0559 1.54376 3.42942 1.87357 2.89495 2.32528C2.36049 2.77698 1.93087 3.33973 1.636 3.97435C1.34114 4.60897 1.1881 5.30023 1.18754 6.00001C1.18651 7.17808 1.61949 8.31525 2.4038 9.1943C2.89173 8.48724 3.57784 7.94022 4.37583 7.62204C3.94718 7.28442 3.63439 6.82162 3.48096 6.298C3.32753 5.77437 3.34108 5.21595 3.51974 4.70038C3.6984 4.18482 4.03327 3.73774 4.4778 3.42132C4.92232 3.1049 5.4544 2.93487 6.00005 2.93487C6.54569 2.93487 7.07777 3.1049 7.52229 3.42132C7.96682 3.73774 8.30169 4.18482 8.48035 4.70038C8.659 5.21595 8.67256 5.77437 8.51913 6.298C8.3657 6.82162 8.05291 7.28442 7.62426 7.62204C8.42225 7.94022 9.10836 8.48724 9.59629 9.1943C10.3806 8.31525 10.8136 7.17808 10.8125 6.00001C10.8126 5.73102 10.7902 5.46249 10.7458 5.19719C10.7358 5.14028 10.7371 5.08194 10.7497 5.02554C10.7623 4.96914 10.786 4.91579 10.8193 4.86859C10.8526 4.82138 10.895 4.78125 10.944 4.75051C10.9929 4.71978 11.0474 4.69904 11.1045 4.6895C11.1615 4.67997 11.2198 4.68182 11.2761 4.69495C11.3323 4.70809 11.3855 4.73224 11.4324 4.76602C11.4793 4.7998 11.519 4.84254 11.5493 4.89177C11.5796 4.94099 11.5998 4.99573 11.6088 5.05282ZM6.00005 7.31251C6.34616 7.31251 6.68451 7.20987 6.97229 7.01758C7.26008 6.82529 7.48438 6.55197 7.61683 6.2322C7.74929 5.91243 7.78394 5.56056 7.71642 5.2211C7.64889 4.88163 7.48222 4.56981 7.23748 4.32507C6.99274 4.08033 6.68092 3.91366 6.34145 3.84613C6.00199 3.77861 5.65012 3.81326 5.33035 3.94572C5.01058 4.07817 4.73727 4.30247 4.54497 4.59026C4.35268 4.87804 4.25005 5.21639 4.25005 5.56251C4.25005 6.02664 4.43442 6.47175 4.76261 6.79994C5.0908 7.12813 5.53592 7.31251 6.00005 7.31251ZM6.00005 10.8125C7.06829 10.8136 8.10623 10.4575 8.94879 9.80079C8.6323 9.3058 8.19629 8.89845 7.68096 8.61629C7.16563 8.33412 6.58757 8.18622 6.00005 8.18622C5.41252 8.18622 4.83446 8.33412 4.31913 8.61629C3.8038 8.89845 3.36779 9.3058 3.0513 9.80079C3.89386 10.4575 4.9318 10.8136 6.00005 10.8125Z"/>
</svg>
