<?xml version="1.0" encoding="utf-8"?>
<svg version="1.1" xmlns="http://www.w3.org/2000/svg" xmlns:xlink="http://www.w3.org/1999/xlink" x="0px" y="0px"
	 viewBox="0 0 30 30" style="enable-background:new 0 0 30 30;" xml:space="preserve">
<path d="M29.2,6.1l-0.7-0.4c0.1-0.4,0.1-0.8,0-1.2l0.7-0.4c0.5-0.3,0.7-1,0.4-1.6c-0.3-0.5-1-0.7-1.5-0.4l-0.7,0.4
	c-0.3-0.3-0.7-0.5-1.1-0.6V1.1c0-0.6-0.5-1.1-1.1-1.1C24.5,0,24,0.5,24,1.1v0.8C23.6,2,23.3,2.2,23,2.5l-0.7-0.4
	c-0.5-0.3-1.2-0.1-1.5,0.4c-0.3,0.5-0.1,1.2,0.4,1.5l0.7,0.4c-0.1,0.4-0.1,0.8,0,1.2l-0.7,0.4c-0.5,0.3-0.7,1-0.4,1.5
	c0.3,0.5,1,0.7,1.5,0.4c0,0,0,0,0,0L23,7.7C23.3,8,23.6,8.2,24,8.3v0.8c0,0.6,0.5,1.1,1.1,1.1c0.6,0,1.1-0.5,1.1-1.1V8.3
	c0.4-0.1,0.8-0.4,1.1-0.6L28,8.1c0.5,0.3,1.2,0.1,1.5-0.4C29.9,7.1,29.7,6.4,29.2,6.1L29.2,6.1z M24,5.1C24,4.5,24.5,4,25.2,4
	c0.6,0,1.1,0.5,1.1,1.1s-0.5,1.1-1.1,1.1C24.5,6.2,24,5.7,24,5.1z M28.2,11.9c-0.6,0.1-1,0.7-0.9,1.3c0.1,0.7,0.2,1.4,0.2,2.1
	c0,3.1-1.1,6-3.1,8.3c-1.3-1.8-3-3.2-5.1-4.1c2.9-2.3,3.5-6.6,1.1-9.5s-6.6-3.5-9.5-1.1s-3.5,6.6-1.1,9.5c0.3,0.4,0.7,0.8,1.1,1.1
	c-2.1,0.8-3.8,2.2-5.1,4.1C1.1,18.4,1.6,10.5,6.7,6C9.5,3.5,13.3,2.4,17,3c0.6,0.1,1.2-0.3,1.3-0.9c0.1-0.6-0.3-1.2-0.9-1.3
	c-8-1.3-15.6,4.1-17,12.1s4.1,15.6,12.1,17c8,1.3,15.6-4.1,17-12.1c0.3-1.6,0.3-3.3,0-4.9C29.4,12.2,28.8,11.8,28.2,11.9L28.2,11.9z
	 M10.4,14.2c0-2.5,2-4.6,4.5-4.6c2.5,0,4.6,2,4.6,4.5c0,0,0,0.1,0,0.1c0,2.5-2,4.5-4.5,4.5S10.4,16.7,10.4,14.2L10.4,14.2z
	 M7.3,25.1c2.7-4.2,8.3-5.4,12.5-2.8c1.1,0.7,2,1.6,2.8,2.8C18.1,28.6,11.8,28.6,7.3,25.1z"/>
</svg>
