<?xml version="1.0" encoding="utf-8"?>
<svg version="1.1" id="Layer_1" xmlns="http://www.w3.org/2000/svg" xmlns:xlink="http://www.w3.org/1999/xlink"
	 viewBox="0 0 80 80" style="enable-background:new 0 0 80 80;" xml:space="preserve">
<path d="M71.5,67.3c-4.7-8.3-11.9-14-20.6-16.9c4.3-2.5,7.6-6.1,9.4-10.8c1.8-4.7,2.2-9.4,0.7-14.4c-1.4-4.7-4-9-8-11.9
	s-8.7-4.7-13.7-4.7s-9.8,1.4-13.7,4.7c-4,2.9-6.9,7.2-8,11.9c-1.4,4.7-1.1,9.7,0.7,14.4s5.1,8.3,9.4,10.8c-8,2.9-15.2,8.6-19.9,16.9
	c-0.9,1.7-0.2,3,0.7,3.6c0.9,0.5,2.4,1.2,3.6-0.7C17.9,60.1,28.4,54,40,54s21.7,6.1,27.8,16.2c1,1.3,2.4,1.7,3.6,0.7
	C72.7,70,72,68.4,71.5,67.3z M22.3,31.4c0-3.6,1.1-6.8,2.9-9.7c1.8-2.9,4.7-5,8-6.5c3.3-1.4,6.5-1.8,10.1-1.1c3.3,0.7,6.5,2.2,9,4.7
	s4,5.4,4.7,9c0.7,3.2,0.4,6.8-1.1,10.1c-1.4,3.2-3.6,5.8-6.5,7.9s-6.1,2.9-9.8,2.9c-4.7,0-9-1.8-12.3-5C24.1,40.4,22.3,36,22.3,31.4
	z"/>
</svg>
