<?xml version="1.0" encoding="utf-8"?>
<svg version="1.1" xmlns="http://www.w3.org/2000/svg" xmlns:xlink="http://www.w3.org/1999/xlink" x="0px" y="0px"
	 viewBox="0 0 30 30" style="enable-background:new 0 0 30 30;" xml:space="preserve">
<path d="M16.5,10c0-0.5,0.4-1,1-1H29c0.5,0,1,0.4,1,1s-0.4,1-1,1H17.4C16.9,11,16.5,10.5,16.5,10z"/>
<path d="M29,14.8H17.4c-0.5,0-1,0.4-1,1c0,0.5,0.4,1,1,1H29c0.5,0,1-0.4,1-1C30,15.3,29.6,14.8,29,14.8z"/>
<path d="M29,20.6h-8.7c-0.5,0-1,0.4-1,1s0.4,1,1,1H29c0.5,0,1-0.4,1-1S29.6,20.6,29,20.6z"/>
<path d="M17.4,23.6c-0.4-1.8-1.9-4.8-5.2-6.1c1.4-1.1,2.3-2.7,2.3-4.6c0-3.2-2.6-5.8-5.8-5.8s-5.8,2.6-5.8,5.8
	c0,1.9,0.9,3.6,2.3,4.6C2,18.8,0.4,21.8,0,23.6c-0.1,0.5,0.2,1,0.7,1.1c0.5,0.1,1-0.2,1.1-0.7c0-0.2,1.3-5.2,6.9-5.2
	c5.6,0,6.8,5,6.8,5.2c0.1,0.4,0.5,0.7,0.9,0.7c0.1,0,0.1,0,0.2,0C17.2,24.6,17.5,24.1,17.4,23.6z M8.7,9c2.1,0,3.9,1.7,3.9,3.9
	c0,2.1-1.7,3.9-3.9,3.9c-2.1,0-3.9-1.7-3.9-3.9C4.8,10.8,6.6,9,8.7,9z"/>
</svg>
