<svg version="1.1"
	xmlns="http://www.w3.org/2000/svg"
	xmlns:xlink="http://www.w3.org/1999/xlink" viewBox="0 0 30 30" style="enable-background:new 0 0 30 30;" xml:space="preserve">
	<g>
		<path d="M15,29.9c-1.4,0-2.5-1-3.4-1.9c-0.5-0.5-1.1-1-1.5-1.2c-0.4-0.2-1.2-0.2-1.9-0.2c-1.3,0-2.7,0-3.8-1.1
		c-1-1-1.1-2.5-1.1-3.8c0-0.7,0-1.4-0.2-1.8c-0.2-0.4-0.7-1-1.2-1.5c-0.9-0.9-1.9-2-1.9-3.4c0-1.4,1-2.5,1.9-3.4
		c0.5-0.5,1-1.1,1.2-1.5c0.2-0.4,0.2-1.2,0.2-1.9c0-1.3,0-2.7,1.1-3.8c1-1,2.5-1.1,3.8-1.1c0.7,0,1.4,0,1.8-0.2
		c0.4-0.2,1-0.7,1.5-1.2c0.9-0.9,2-1.9,3.4-1.9c1.4,0,2.5,1,3.4,1.9c0.5,0.5,1.1,1,1.5,1.2c0.4,0.2,1.2,0.2,1.9,0.2
		c1.3,0,2.7,0,3.8,1.1c1,1,1.1,2.5,1.1,3.8c0,0.7,0,1.4,0.2,1.8c0.2,0.4,0.7,1,1.2,1.5c0.9,0.9,1.9,2,1.9,3.4c0,1.4-1,2.5-1.9,3.4
		c-0.5,0.5-1,1.1-1.2,1.5c-0.2,0.4-0.2,1.2-0.2,1.9c0,1.3,0,2.7-1.1,3.8c-1,1-2.5,1.1-3.8,1.1c-0.7,0-1.4,0-1.8,0.2
		c-0.4,0.2-1,0.7-1.5,1.2C17.5,28.9,16.4,29.9,15,29.9z M15,2.3c-0.5,0-1.2,0.7-1.9,1.3c-0.7,0.6-1.3,1.3-2.2,1.6
		c-0.8,0.3-1.8,0.4-2.7,0.4c-0.9,0-1.9,0-2.3,0.4C5.7,6.4,5.7,7.4,5.6,8.3c0,0.9,0,1.9-0.4,2.7c-0.4,0.8-1,1.5-1.7,2.2
		C3,13.8,2.3,14.5,2.3,15c0,0.5,0.7,1.2,1.3,1.9c0.6,0.7,1.3,1.3,1.6,2.2c0.3,0.8,0.4,1.8,0.4,2.7c0,0.9,0,1.9,0.4,2.3
		c0.4,0.4,1.3,0.4,2.2,0.4c0.9,0,1.9,0,2.7,0.4c0.8,0.4,1.5,1,2.2,1.7c0.7,0.6,1.3,1.3,1.8,1.3c0.5,0,1.2-0.7,1.9-1.3
		c0.7-0.6,1.3-1.3,2.2-1.6c0.8-0.3,1.8-0.4,2.7-0.4c0.9,0,1.9,0,2.3-0.4c0.4-0.4,0.4-1.3,0.4-2.2c0-0.9,0-1.9,0.4-2.7
		c0.4-0.8,1-1.5,1.7-2.2c0.6-0.7,1.3-1.3,1.3-1.8c0-0.5-0.7-1.2-1.3-1.9c-0.6-0.7-1.3-1.3-1.6-2.2c-0.3-0.8-0.4-1.8-0.4-2.7
		c0-0.9,0-1.9-0.4-2.3c-0.4-0.4-1.3-0.4-2.2-0.4c-0.9,0-1.9,0-2.7-0.4c-0.8-0.4-1.5-1-2.2-1.7C16.2,3,15.5,2.3,15,2.3z"/>
		<path d="M13.1,20.4c-0.3,0-0.6-0.1-0.8-0.3l-3.9-3.7c-0.5-0.4-0.5-1.1,0-1.6c0.4-0.5,1.1-0.5,1.6,0l3.1,3l7-6.7
		c0.5-0.4,1.2-0.4,1.6,0c0.4,0.5,0.4,1.2,0,1.6l-7.8,7.4C13.6,20.3,13.3,20.4,13.1,20.4z"/>
	</g>
</svg>
