<?xml version="1.0" encoding="utf-8"?>
<svg version="1.1" xmlns="http://www.w3.org/2000/svg" xmlns:xlink="http://www.w3.org/1999/xlink" x="0px" y="0px"
	 viewBox="0 0 30 30" style="enable-background:new 0 0 30 30;" xml:space="preserve">
<path d="M15,0C6.7,0,0,6.7,0,15s6.7,15,15,15s15-6.7,15-15C30,6.7,23.3,0,15,0z M15,27.7C8,27.7,2.3,22,2.3,15
	S8,2.3,15,2.3S27.7,8,27.7,15C27.7,22,22,27.7,15,27.7z M13.8,16.2V8.1c0-0.6,0.5-1.2,1.2-1.2c0.6,0,1.2,0.5,1.2,1.2v8.1
	c0,0.6-0.5,1.2-1.2,1.2C14.4,17.3,13.8,16.8,13.8,16.2z M16.7,21.3c0,1-0.8,1.7-1.7,1.7s-1.7-0.8-1.7-1.7c0-1,0.8-1.7,1.7-1.7
	S16.7,20.4,16.7,21.3z"/>
</svg>
