<svg width="13" height="10" viewBox="0 0 13 10" fill="none" xmlns="http://www.w3.org/2000/svg">
<path d="M12.4513 1.53094L4.46926 9.51299C4.42292 9.55937 4.3679 9.59617 4.30734 9.62128C4.24678 9.64638 4.18186 9.6593 4.1163 9.6593C4.05074 9.6593 3.98582 9.64638 3.92526 9.62128C3.8647 9.59617 3.80968 9.55937 3.76334 9.51299L0.271199 6.02085C0.177589 5.92724 0.125 5.80027 0.125 5.66789C0.125 5.5355 0.177589 5.40854 0.271199 5.31493C0.364809 5.22132 0.491771 5.16873 0.624155 5.16873C0.756539 5.16873 0.883501 5.22132 0.977111 5.31493L4.1163 8.45475L11.7454 0.825032C11.839 0.731422 11.966 0.678833 12.0983 0.678833C12.2307 0.678833 12.3577 0.731422 12.4513 0.825032C12.5449 0.918642 12.5975 1.0456 12.5975 1.17799C12.5975 1.31037 12.5449 1.43733 12.4513 1.53094Z" fill="white"/>
</svg>
