<svg width="15" height="12" viewBox="0 0 15 12" fill="none" xmlns="http://www.w3.org/2000/svg">
<path d="M6 4.5C6 4.36739 6.05268 4.24021 6.14645 4.14645C6.24021 4.05268 6.36739 4 6.5 4H10.5C10.6326 4 10.7598 4.05268 10.8536 4.14645C10.9473 4.24021 11 4.36739 11 4.5C11 4.63261 10.9473 4.75979 10.8536 4.85355C10.7598 4.94732 10.6326 5 10.5 5H6.5C6.36739 5 6.24021 4.94732 6.14645 4.85355C6.05268 4.75979 6 4.63261 6 4.5ZM6.5 7H10.5C10.6326 7 10.7598 6.94732 10.8536 6.85355C10.9473 6.75979 11 6.63261 11 6.5C11 6.36739 10.9473 6.24021 10.8536 6.14645C10.7598 6.05268 10.6326 6 10.5 6H6.5C6.36739 6 6.24021 6.05268 6.14645 6.14645C6.05268 6.24021 6 6.36739 6 6.5C6 6.63261 6.05268 6.75979 6.14645 6.85355C6.24021 6.94732 6.36739 7 6.5 7ZM14.5 10C14.5 10.5304 14.2893 11.0391 13.9142 11.4142C13.5391 11.7893 13.0304 12 12.5 12H5.5C4.96957 12 4.46086 11.7893 4.08579 11.4142C3.71071 11.0391 3.5 10.5304 3.5 10V2C3.5 1.73478 3.39464 1.48043 3.20711 1.29289C3.01957 1.10536 2.76522 1 2.5 1C2.23478 1 1.98043 1.10536 1.79289 1.29289C1.60536 1.48043 1.5 1.73478 1.5 2C1.5 2.35875 1.80187 2.60125 1.805 2.60375C1.88775 2.66743 1.94849 2.75542 1.97869 2.85538C2.00889 2.95533 2.00705 3.06223 1.97341 3.16108C1.93977 3.25993 1.87602 3.34577 1.79112 3.40655C1.70622 3.46734 1.60442 3.50001 1.5 3.5C1.39188 3.50019 1.28669 3.46483 1.20062 3.39937C1.12812 3.34625 0.5 2.85063 0.5 2C0.5 1.46957 0.710714 0.960859 1.08579 0.585786C1.46086 0.210714 1.96957 0 2.5 0H11C11.5304 0 12.0391 0.210714 12.4142 0.585786C12.7893 0.960859 13 1.46957 13 2V8.5H13.5C13.6082 8.5 13.7135 8.53509 13.8 8.6C13.875 8.65375 14.5 9.14937 14.5 10ZM6.01625 8.8425C6.05041 8.74166 6.11561 8.65422 6.20251 8.59269C6.2894 8.53117 6.39354 8.49872 6.5 8.5H12V2C12 1.73478 11.8946 1.48043 11.7071 1.29289C11.5196 1.10536 11.2652 1 11 1H4.23063C4.40746 1.30357 4.50043 1.64868 4.5 2V10C4.5 10.2652 4.60536 10.5196 4.79289 10.7071C4.98043 10.8946 5.23478 11 5.5 11C5.76522 11 6.01957 10.8946 6.20711 10.7071C6.39464 10.5196 6.5 10.2652 6.5 10C6.5 9.64125 6.19813 9.39875 6.195 9.39625C6.10979 9.3353 6.04642 9.24858 6.01424 9.14887C5.98206 9.04917 5.98276 8.94177 6.01625 8.8425ZM13.5 10C13.4937 9.81475 13.4223 9.63766 13.2981 9.5H7.42312C7.47338 9.66191 7.49888 9.83047 7.49875 10C7.49923 10.3512 7.40672 10.6962 7.23063 11H12.5C12.7652 11 13.0196 10.8946 13.2071 10.7071C13.3946 10.5196 13.5 10.2652 13.5 10Z" fill="#101828"/>
</svg>
