<svg id="Layer_1" data-name="Layer 1" xmlns="http://www.w3.org/2000/svg" viewBox="0 0 14.63 14.63">
  <path d="M14.26,3.17c-.03-.08-.09-.16-.16-.22-.07-.06-.15-.1-.24-.12-.09-.02-.18-.02-.27,0s-.17,.07-.24,.13l-2.83,2.61-1.21-.26-.26-1.21,2.61-2.83c.06-.07,.11-.15,.13-.24,.02-.09,.03-.18,0-.27-.02-.09-.06-.17-.12-.24-.06-.07-.13-.12-.22-.16C10.69,.06,9.86-.06,9.04,.03c-.82,.09-1.62,.37-2.3,.84-.69,.46-1.25,1.09-1.64,1.82-.39,.73-.59,1.55-.59,2.38,0,.7,.14,1.39,.42,2.03L.69,10.76s-.02,.02-.03,.03c-.42,.42-.66,.99-.66,1.59,0,.3,.06,.59,.17,.86,.11,.27,.28,.52,.49,.73,.21,.21,.46,.37,.73,.49,.27,.11,.57,.17,.86,.17,.6,0,1.17-.24,1.59-.66,0,0,.02-.02,.03-.03l3.66-4.23c.77,.34,1.61,.48,2.45,.41,.84-.07,1.65-.35,2.35-.81,.7-.46,1.28-1.09,1.68-1.83,.4-.74,.61-1.57,.61-2.41,0-.65-.12-1.3-.37-1.9Zm-4.69,5.84c-.67,0-1.32-.17-1.9-.49-.11-.06-.24-.08-.37-.06-.13,.02-.24,.09-.33,.19l-3.93,4.55c-.21,.2-.5,.31-.79,.31-.29,0-.57-.12-.78-.33-.21-.21-.33-.49-.33-.78,0-.29,.11-.58,.31-.79l4.55-3.93c.1-.08,.16-.2,.19-.33,.02-.13,0-.26-.06-.37-.36-.65-.53-1.39-.49-2.12,.04-.74,.29-1.45,.72-2.06,.43-.6,1.02-1.08,1.7-1.36,.68-.28,1.44-.37,2.17-.25l-2.19,2.38c-.06,.07-.11,.15-.13,.23-.02,.09-.03,.18,0,.27l.4,1.85c.02,.11,.08,.2,.15,.28,.08,.08,.17,.13,.28,.15l1.85,.4c.09,.02,.18,.02,.27,0,.09-.02,.17-.07,.23-.13l2.38-2.19c.09,.56,.07,1.14-.09,1.7-.15,.55-.42,1.06-.79,1.5-.37,.44-.83,.79-1.35,1.03-.52,.24-1.08,.37-1.66,.37Z" />
</svg>
