<svg width="10" height="13" viewBox="0 0 10 13" fill="none"
    xmlns="http://www.w3.org/2000/svg">
    <path d="M7.1875 8.31242C7.1875 8.42845 7.14141 8.53973 7.05936 8.62178C6.97731 8.70383 6.86603 8.74992 6.75 8.74992H3.25C3.13397 8.74992 3.02269 8.70383 2.94064 8.62178C2.85859 8.53973 2.8125 8.42845 2.8125 8.31242C2.8125 8.19639 2.85859 8.08511 2.94064 8.00306C3.02269 7.92101 3.13397 7.87492 3.25 7.87492H6.75C6.86603 7.87492 6.97731 7.92101 7.05936 8.00306C7.14141 8.08511 7.1875 8.19639 7.1875 8.31242ZM6.75 6.12492H3.25C3.13397 6.12492 3.02269 6.17101 2.94064 6.25306C2.85859 6.33511 2.8125 6.44639 2.8125 6.56242C2.8125 6.67845 2.85859 6.78973 2.94064 6.87178C3.02269 6.95383 3.13397 6.99992 3.25 6.99992H6.75C6.86603 6.99992 6.97731 6.95383 7.05936 6.87178C7.14141 6.78973 7.1875 6.67845 7.1875 6.56242C7.1875 6.44639 7.14141 6.33511 7.05936 6.25306C6.97731 6.17101 6.86603 6.12492 6.75 6.12492ZM9.8125 2.62492V11.8124C9.8125 12.0445 9.72031 12.267 9.55622 12.4311C9.39212 12.5952 9.16956 12.6874 8.9375 12.6874H1.0625C0.830436 12.6874 0.607876 12.5952 0.443782 12.4311C0.279687 12.267 0.1875 12.0445 0.1875 11.8124V2.62492C0.1875 2.39286 0.279687 2.1703 0.443782 2.0062C0.607876 1.84211 0.830436 1.74992 1.0625 1.74992H3.04547C3.29129 1.47469 3.59247 1.25448 3.92929 1.10371C4.26611 0.952937 4.63097 0.875 5 0.875C5.36903 0.875 5.73389 0.952937 6.07071 1.10371C6.40753 1.25448 6.70871 1.47469 6.95453 1.74992H8.9375C9.16956 1.74992 9.39212 1.84211 9.55622 2.0062C9.72031 2.1703 9.8125 2.39286 9.8125 2.62492ZM3.25 3.49992H6.75C6.75 3.03579 6.56563 2.59067 6.23744 2.26248C5.90925 1.9343 5.46413 1.74992 5 1.74992C4.53587 1.74992 4.09075 1.9343 3.76256 2.26248C3.43437 2.59067 3.25 3.03579 3.25 3.49992ZM8.9375 2.62492H7.47461C7.57413 2.90591 7.62499 3.20182 7.625 3.49992V3.93742C7.625 4.05345 7.57891 4.16473 7.49686 4.24678C7.41481 4.32883 7.30353 4.37492 7.1875 4.37492H2.8125C2.69647 4.37492 2.58519 4.32883 2.50314 4.24678C2.42109 4.16473 2.375 4.05345 2.375 3.93742V3.49992C2.37501 3.20182 2.42587 2.90591 2.52539 2.62492H1.0625V11.8124H8.9375V2.62492Z" />
</svg>
