<svg width="14" height="12" viewBox="0 0 14 12" fill="none"
    xmlns="http://www.w3.org/2000/svg">
    <path d="M13.0938 6.27344L11.3438 1.89844C11.3053 1.80207 11.2338 1.72254 11.142 1.67405C11.0502 1.62557 10.9442 1.61128 10.8429 1.63375L7.43751 2.39062V1.1875C7.43751 1.07147 7.39142 0.960188 7.30937 0.878141C7.22732 0.796094 7.11604 0.75 7.00001 0.75C6.88398 0.75 6.7727 0.796094 6.69065 0.878141C6.6086 0.960188 6.56251 1.07147 6.56251 1.1875V2.58641L2.96735 3.38539C2.89804 3.4007 2.83349 3.43265 2.77927 3.47848C2.72506 3.52431 2.68282 3.58264 2.65618 3.64844V3.65172L0.90618 8.02344C0.885245 8.07558 0.874658 8.13131 0.875008 8.1875C0.875008 9.46227 2.21704 9.9375 3.06251 9.9375C3.90798 9.9375 5.25001 9.46227 5.25001 8.1875C5.25036 8.13131 5.23977 8.07558 5.21884 8.02344L3.6597 4.12805L6.56251 3.48438V10.375H5.68751C5.57148 10.375 5.4602 10.4211 5.37815 10.5031C5.2961 10.5852 5.25001 10.6965 5.25001 10.8125C5.25001 10.9285 5.2961 11.0398 5.37815 11.1219C5.4602 11.2039 5.57148 11.25 5.68751 11.25H8.31251C8.42854 11.25 8.53982 11.2039 8.62187 11.1219C8.70392 11.0398 8.75001 10.9285 8.75001 10.8125C8.75001 10.6965 8.70392 10.5852 8.62187 10.5031C8.53982 10.4211 8.42854 10.375 8.31251 10.375H7.43751V3.28859L10.2266 2.66953L8.78118 6.27344C8.76025 6.32558 8.74966 6.38131 8.75001 6.4375C8.75001 7.71227 10.092 8.1875 10.9375 8.1875C11.783 8.1875 13.125 7.71227 13.125 6.4375C13.1254 6.38131 13.1148 6.32558 13.0938 6.27344ZM3.06251 9.0625C2.65071 9.0625 1.81782 8.86508 1.75384 8.26188L3.06251 4.99047L4.37118 8.26188C4.3072 8.86508 3.47431 9.0625 3.06251 9.0625ZM10.9375 7.3125C10.5257 7.3125 9.69282 7.11508 9.62884 6.51188L10.9375 3.24047L12.2462 6.51188C12.1822 7.11508 11.3493 7.3125 10.9375 7.3125Z" />
</svg>
