<svg width="14" height="13" viewBox="0 0 14 13" fill="none"
    xmlns="http://www.w3.org/2000/svg">
    <path d="M13.125 11.3751H12.25V5.25008C12.25 5.01802 12.1578 4.79546 11.9937 4.63136C11.8296 4.46727 11.6071 4.37508 11.375 4.37508H7.875V1.75008C7.8751 1.59163 7.83218 1.43613 7.75081 1.30017C7.66944 1.16421 7.55268 1.05289 7.41299 0.978106C7.2733 0.90332 7.11592 0.867869 6.95766 0.875537C6.79939 0.883205 6.64618 0.933703 6.51438 1.02164L2.13937 3.93758C2.01936 4.01765 1.921 4.12616 1.85307 4.25345C1.78513 4.38073 1.74973 4.52283 1.75 4.66711V11.3751H0.875C0.758968 11.3751 0.647688 11.4212 0.565641 11.5032C0.483594 11.5853 0.4375 11.6965 0.4375 11.8126C0.4375 11.9286 0.483594 12.0399 0.565641 12.1219C0.647688 12.204 0.758968 12.2501 0.875 12.2501H13.125C13.241 12.2501 13.3523 12.204 13.4344 12.1219C13.5164 12.0399 13.5625 11.9286 13.5625 11.8126C13.5625 11.6965 13.5164 11.5853 13.4344 11.5032C13.3523 11.4212 13.241 11.3751 13.125 11.3751ZM11.375 5.25008V11.3751H7.875V5.25008H11.375ZM2.625 4.66711L7 1.75008V11.3751H2.625V4.66711ZM6.125 6.12508V7.00008C6.125 7.11611 6.07891 7.22739 5.99686 7.30944C5.91481 7.39149 5.80353 7.43758 5.6875 7.43758C5.57147 7.43758 5.46019 7.39149 5.37814 7.30944C5.29609 7.22739 5.25 7.11611 5.25 7.00008V6.12508C5.25 6.00905 5.29609 5.89777 5.37814 5.81572C5.46019 5.73367 5.57147 5.68758 5.6875 5.68758C5.80353 5.68758 5.91481 5.73367 5.99686 5.81572C6.07891 5.89777 6.125 6.00905 6.125 6.12508ZM4.375 6.12508V7.00008C4.375 7.11611 4.32891 7.22739 4.24686 7.30944C4.16481 7.39149 4.05353 7.43758 3.9375 7.43758C3.82147 7.43758 3.71019 7.39149 3.62814 7.30944C3.54609 7.22739 3.5 7.11611 3.5 7.00008V6.12508C3.5 6.00905 3.54609 5.89777 3.62814 5.81572C3.71019 5.73367 3.82147 5.68758 3.9375 5.68758C4.05353 5.68758 4.16481 5.73367 4.24686 5.81572C4.32891 5.89777 4.375 6.00905 4.375 6.12508ZM4.375 9.18758V10.0626C4.375 10.1786 4.32891 10.2899 4.24686 10.3719C4.16481 10.454 4.05353 10.5001 3.9375 10.5001C3.82147 10.5001 3.71019 10.454 3.62814 10.3719C3.54609 10.2899 3.5 10.1786 3.5 10.0626V9.18758C3.5 9.07155 3.54609 8.96027 3.62814 8.87822C3.71019 8.79617 3.82147 8.75008 3.9375 8.75008C4.05353 8.75008 4.16481 8.79617 4.24686 8.87822C4.32891 8.96027 4.375 9.07155 4.375 9.18758ZM6.125 9.18758V10.0626C6.125 10.1786 6.07891 10.2899 5.99686 10.3719C5.91481 10.454 5.80353 10.5001 5.6875 10.5001C5.57147 10.5001 5.46019 10.454 5.37814 10.3719C5.29609 10.2899 5.25 10.1786 5.25 10.0626V9.18758C5.25 9.07155 5.29609 8.96027 5.37814 8.87822C5.46019 8.79617 5.57147 8.75008 5.6875 8.75008C5.80353 8.75008 5.91481 8.79617 5.99686 8.87822C6.07891 8.96027 6.125 9.07155 6.125 9.18758Z" />
</svg>
