<?xml version="1.0" encoding="utf-8"?>
<svg version="1.1"
	xmlns="http://www.w3.org/2000/svg"
	xmlns:xlink="http://www.w3.org/1999/xlink" x="0px" y="0px" viewBox="0 0 30 30" style="enable-background:new 0 0 30 30;" xml:space="preserve">
	<path d="M2,13h3v8H3c-0.6,0-1,0.4-1,1s0.4,1,1,1h24c0.6,0,1-0.4,1-1s-0.4-1-1-1h-2v-8h3c0.6,0,1-0.4,1-1
	c0-0.3-0.2-0.7-0.5-0.8l-13-8c-0.3-0.2-0.7-0.2-1,0l-13,8c-0.5,0.3-0.6,0.9-0.3,1.4C1.3,12.8,1.7,13,2,13z M7,13h4v8H7V13z M17,13v8
	h-4v-8H17z M23,21h-4v-8h4V21z M15,5.2l9.5,5.8H5.5L15,5.2z M30,26c0,0.6-0.4,1-1,1H1c-0.6,0-1-0.4-1-1s0.4-1,1-1h28
	C29.6,25,30,25.4,30,26z"/>
</svg>
