<?xml version="1.0" encoding="utf-8"?>
<svg version="1.1"
	xmlns="http://www.w3.org/2000/svg"
	xmlns:xlink="http://www.w3.org/1999/xlink" x="0px" y="0px" viewBox="0 0 30 30" style="enable-background:new 0 0 30 30;" xml:space="preserve">
	<path d="M16.8,7.8v6.5l5.4,3.2c0.6,0.3,0.8,1.1,0.4,1.6c-0.3,0.6-1.1,0.8-1.6,0.4l0,0L15,16c-0.4-0.2-0.6-0.6-0.6-1V7.8
	c0-0.7,0.5-1.2,1.2-1.2C16.3,6.6,16.8,7.1,16.8,7.8z M15.6,0.6c-3.8,0-7.5,1.5-10.2,4.2c-1,1.1-2,2.1-3,3.3V5.4
	c0-0.7-0.5-1.2-1.2-1.2S0,4.7,0,5.4v6c0,0.7,0.5,1.2,1.2,1.2h6c0.7,0,1.2-0.5,1.2-1.2c0-0.7-0.5-1.2-1.2-1.2H3.7
	c1.1-1.3,2.2-2.5,3.4-3.7c4.7-4.7,12.3-4.7,17,0s4.7,12.3,0,17c-4.6,4.6-12,4.7-16.7,0.2c-0.5-0.5-1.2-0.4-1.7,0
	c-0.5,0.5-0.4,1.2,0,1.7c5.8,5.5,14.9,5.2,20.4-0.6S31.3,10,25.5,4.5C22.8,2,19.3,0.6,15.6,0.6z"/>
</svg>
