<svg width="14" height="11" viewBox="0 0 14 11" fill="none"
    xmlns="http://www.w3.org/2000/svg">
    <path d="M1.3125 4.68747H2.625V8.18747H1.75C1.63397 8.18747 1.52269 8.23357 1.44064 8.31561C1.35859 8.39766 1.3125 8.50894 1.3125 8.62497C1.3125 8.741 1.35859 8.85228 1.44064 8.93433C1.52269 9.01638 1.63397 9.06247 1.75 9.06247H12.25C12.366 9.06247 12.4773 9.01638 12.5594 8.93433C12.6414 8.85228 12.6875 8.741 12.6875 8.62497C12.6875 8.50894 12.6414 8.39766 12.5594 8.31561C12.4773 8.23357 12.366 8.18747 12.25 8.18747H11.375V4.68747H12.6875C12.7827 4.68738 12.8753 4.65624 12.9511 4.59878C13.027 4.54132 13.0821 4.46067 13.108 4.36907C13.1339 4.27748 13.1293 4.17993 13.0947 4.09122C13.0602 4.00252 12.9977 3.9275 12.9166 3.87755L7.22914 0.37755C7.16022 0.335177 7.0809 0.312744 7 0.312744C6.9191 0.312744 6.83978 0.335177 6.77086 0.37755L1.08336 3.87755C1.00233 3.9275 0.939799 4.00252 0.905259 4.09122C0.870718 4.17993 0.866051 4.27748 0.891965 4.36907C0.917879 4.46067 0.972961 4.54132 1.04885 4.59878C1.12475 4.65624 1.21731 4.68738 1.3125 4.68747ZM3.5 4.68747H5.25V8.18747H3.5V4.68747ZM7.875 4.68747V8.18747H6.125V4.68747H7.875ZM10.5 8.18747H8.75V4.68747H10.5V8.18747ZM7 1.26349L11.142 3.81247H2.85797L7 1.26349ZM13.5625 10.375C13.5625 10.491 13.5164 10.6023 13.4344 10.6843C13.3523 10.7664 13.241 10.8125 13.125 10.8125H0.875C0.758968 10.8125 0.647688 10.7664 0.565641 10.6843C0.483594 10.6023 0.4375 10.491 0.4375 10.375C0.4375 10.2589 0.483594 10.1477 0.565641 10.0656C0.647688 9.98357 0.758968 9.93747 0.875 9.93747H13.125C13.241 9.93747 13.3523 9.98357 13.4344 10.0656C13.5164 10.1477 13.5625 10.2589 13.5625 10.375Z" />
</svg>
