<svg width="12" height="12" viewBox="0 0 12 12" fill="none"
    xmlns="http://www.w3.org/2000/svg">
    <path d="M6.4375 3.37502V5.75228L8.41281 6.93736C8.51231 6.99712 8.58399 7.09395 8.6121 7.20656C8.6402 7.31917 8.62241 7.43833 8.56266 7.53783C8.5029 7.63733 8.40606 7.70901 8.29346 7.73711C8.18085 7.76521 8.06169 7.74743 7.96219 7.68767L5.77469 6.37517C5.70994 6.33628 5.65637 6.28128 5.61919 6.21554C5.58201 6.14979 5.56248 6.07555 5.5625 6.00002V3.37502C5.5625 3.25898 5.60859 3.1477 5.69064 3.06566C5.77269 2.98361 5.88397 2.93752 6 2.93752C6.11603 2.93752 6.22731 2.98361 6.30936 3.06566C6.39141 3.1477 6.4375 3.25898 6.4375 3.37502ZM6 0.750016C5.30984 0.748297 4.62619 0.883472 3.98862 1.14772C3.35105 1.41196 2.77222 1.80003 2.28563 2.28947C1.88805 2.69197 1.53477 3.07916 1.1875 3.48439V2.50002C1.1875 2.38398 1.14141 2.2727 1.05936 2.19066C0.977312 2.10861 0.866032 2.06252 0.75 2.06252C0.633968 2.06252 0.522688 2.10861 0.440641 2.19066C0.358594 2.2727 0.3125 2.38398 0.3125 2.50002V4.68752C0.3125 4.80355 0.358594 4.91483 0.440641 4.99688C0.522688 5.07892 0.633968 5.12502 0.75 5.12502H2.9375C3.05353 5.12502 3.16481 5.07892 3.24686 4.99688C3.32891 4.91483 3.375 4.80355 3.375 4.68752C3.375 4.57148 3.32891 4.4602 3.24686 4.37816C3.16481 4.29611 3.05353 4.25002 2.9375 4.25002H1.67969C2.0707 3.78955 2.46008 3.35588 2.90414 2.90634C3.51219 2.2983 4.28593 1.88293 5.1287 1.71212C5.97147 1.54132 6.84589 1.62265 7.64269 1.94597C8.4395 2.26929 9.12336 2.82025 9.60882 3.53001C10.0943 4.23976 10.3598 5.07685 10.3723 5.93666C10.3847 6.79647 10.1435 7.64089 9.67876 8.36439C9.21403 9.0879 8.54639 9.65841 7.75927 10.0046C6.97215 10.3509 6.10045 10.4575 5.2531 10.3111C4.40574 10.1648 3.6203 9.77193 2.99492 9.18173C2.95312 9.14223 2.90396 9.11136 2.85023 9.09086C2.79649 9.07036 2.73925 9.06065 2.68177 9.06227C2.62428 9.0639 2.56768 9.07683 2.51519 9.10033C2.4627 9.12383 2.41536 9.15744 2.37586 9.19923C2.33636 9.24103 2.30548 9.2902 2.28498 9.34393C2.26449 9.39766 2.25477 9.4549 2.2564 9.51239C2.25802 9.56988 2.27095 9.62648 2.29445 9.67897C2.31795 9.73145 2.35156 9.7788 2.39336 9.8183C3.0165 10.4063 3.77408 10.8329 4.6 11.0609C5.42592 11.2888 6.29507 11.3111 7.1316 11.1259C7.96813 10.9406 8.74661 10.5535 9.3991 9.99819C10.0516 9.4429 10.5583 8.73636 10.8749 7.94023C11.1915 7.14409 11.3085 6.28256 11.2156 5.43082C11.1227 4.57908 10.8228 3.76302 10.342 3.05385C9.86119 2.34469 9.21413 1.76398 8.45728 1.3624C7.70042 0.960817 6.85679 0.750574 6 0.750016Z" />
</svg>
