<svg width="12" height="10" viewBox="0 0 12 10" fill="none"
    xmlns="http://www.w3.org/2000/svg">
    <path d="M10.8125 0.1875H1.1875C0.955436 0.1875 0.732876 0.279687 0.568782 0.443782C0.404687 0.607876 0.3125 0.830436 0.3125 1.0625V8.9375C0.3125 9.16956 0.404687 9.39212 0.568782 9.55622C0.732876 9.72031 0.955436 9.8125 1.1875 9.8125H10.8125C11.0446 9.8125 11.2671 9.72031 11.4312 9.55622C11.5953 9.39212 11.6875 9.16956 11.6875 8.9375V1.0625C11.6875 0.830436 11.5953 0.607876 11.4312 0.443782C11.2671 0.279687 11.0446 0.1875 10.8125 0.1875ZM10.8125 8.9375H1.1875V1.0625H10.8125V8.9375ZM3.375 2.59375C3.375 2.72354 3.33651 2.85042 3.2644 2.95834C3.19229 3.06626 3.0898 3.15038 2.96989 3.20005C2.84997 3.24972 2.71802 3.26271 2.59072 3.23739C2.46342 3.21207 2.34649 3.14957 2.25471 3.05779C2.16293 2.96601 2.10043 2.84908 2.07511 2.72178C2.04979 2.59448 2.06278 2.46253 2.11245 2.34261C2.16212 2.2227 2.24624 2.12021 2.35416 2.0481C2.46208 1.97599 2.58896 1.9375 2.71875 1.9375C2.8928 1.9375 3.05972 2.00664 3.18279 2.12971C3.30586 2.25278 3.375 2.4197 3.375 2.59375ZM5.5625 2.59375C5.5625 2.72354 5.52401 2.85042 5.4519 2.95834C5.37979 3.06626 5.2773 3.15038 5.15739 3.20005C5.03747 3.24972 4.90552 3.26271 4.77822 3.23739C4.65092 3.21207 4.53399 3.14957 4.44221 3.05779C4.35043 2.96601 4.28793 2.84908 4.26261 2.72178C4.23729 2.59448 4.25028 2.46253 4.29995 2.34261C4.34962 2.2227 4.43374 2.12021 4.54166 2.0481C4.64958 1.97599 4.77646 1.9375 4.90625 1.9375C5.0803 1.9375 5.24722 2.00664 5.37029 2.12971C5.49336 2.25278 5.5625 2.4197 5.5625 2.59375Z" />
</svg>
