<?xml version="1.0" encoding="utf-8"?>
<svg version="1.1"
	xmlns="http://www.w3.org/2000/svg"
	xmlns:xlink="http://www.w3.org/1999/xlink" x="0px" y="0px" viewBox="0 0 30 30" style="enable-background:new 0 0 30 30;" xml:space="preserve">
	<path d="M29.9,15.6L25.5,4.9c-0.2-0.4-0.5-0.6-0.9-0.6c0,0-4.2,0.9-8.6,1.9V3.1C16,2.5,15.5,2,14.9,2c-0.6,0-1.1,0.5-1.1,1.1v3.5
	c-4.5,1-8.6,1.9-8.6,1.9l0,0C4.9,8.6,4.6,8.8,4.5,9.1L0.1,19.8C0,20,0,20.2,0,20.4c0.2,1.4,1.7,4.1,5.4,4.1s5.2-2.7,5.4-4.1
	c0-0.2,0-0.4-0.1-0.5l-3.9-9.4l6.9-1.5v16.5h-2.1c-0.6,0-1.1,0.5-1.1,1.1c0,0.6,0.5,1.1,1.1,1.1h6.4c0.6,0,1.1-0.5,1.1-1.1
	c0-0.6-0.5-1.1-1.1-1.1H16v-17l6.9-1.5l-3.6,8.7c-0.1,0.2-0.1,0.4-0.1,0.5c0.2,1.4,1.7,4.1,5.4,4.1s5.2-2.7,5.4-4.1
	C30,16,30,15.8,29.9,15.6z M8.8,20.3c-0.2,0.6-0.9,2.2-3.4,2.2s-3.2-1.6-3.4-2.2l3.4-8.2L8.8,20.3z M24.6,18.3
	c-2.4,0-3.2-1.6-3.4-2.2l3.4-8.2l3.4,8.2C27.8,16.7,27,18.3,24.6,18.3z"/>
</svg>
